<?xml version="1.0" encoding="UTF-8" standalone="no"?><!DOCTYPE svg PUBLIC "-//W3C//DTD SVG 1.1//EN" "http://www.w3.org/Graphics/SVG/1.1/DTD/svg11.dtd"><svg width="100%" height="100%" viewBox="0 0 1200 601" version="1.1" xmlns="http://www.w3.org/2000/svg" xmlns:xlink="http://www.w3.org/1999/xlink" xml:space="preserve" style="fill-rule:evenodd;clip-rule:evenodd;"><rect id="Blog-mainSection-size" x="0" y="0.253" width="1200" height="600" style="fill:none;"/><g id="g8"><path id="path10" d="M878.809,456.744l0,-2.895c0,-7.955 -0.576,-15.842 -1.079,-23.727c-1.441,-3.832 -6.621,-7.666 -9.283,-10.344c3.597,-5.641 1.221,-9.62 -0.216,-15.045c-6.766,-7.162 -11.372,-15.915 -17.131,-23.8c-2.519,-1.665 -4.388,-4.413 -5.47,-7.088c-2.374,-2.895 -3.092,-6.439 -5.397,-9.259c-2.302,-3.908 -4.102,-5.498 -7.628,-8.248l12.522,-3.544c4.318,0.29 8.636,1.157 13.314,3.904c4.32,1.811 8.133,4.559 12.523,3.474l3.24,-2.169c4.533,-5.788 3.453,-13.239 -0.793,-18.519c-7.629,-7.161 -14.97,-7.957 -22.598,-10.126l0.504,-10.708c-0.935,-2.675 -3.24,-6.509 -6.477,-7.305c2.158,-6.295 4.605,-12.587 2.52,-18.881c-1.8,-3.616 -2.951,-4.701 -5.759,-7.233l4.318,-8.464l1.944,-1.662l14.106,-30.818c4.101,-12.585 9.285,-24.811 5.11,-37.396l-2.449,-4.126l0.578,-0.506c-4.751,-7.957 -11.3,-7.957 -19.002,-6.872l-5.47,3.256l-0.503,-0.506c-0.287,-5.21 -1.366,-10.417 -3.815,-15.626l-3.237,-3.472c-7.774,-6.076 -17.632,-3.111 -23.679,3.256c-1.438,-4.992 -2.375,-9.983 -5.109,-14.467l-6.837,-3.038l-1.585,0.288l-7.986,2.169l-4.607,6.006l-3.743,-9.84c-4.03,-5.932 -8.781,-5.713 -14.971,-3.833c-4.316,1.664 -9.212,6.004 -12.232,10.054c-1.081,-5.134 -1.944,-10.85 -8.205,-16.057c-7.269,-4.341 -14.323,-1.881 -21.375,2.459l-4.174,4.702l-3.456,-6.367c-3.309,-2.675 -6.262,-4.266 -9.571,-4.05c-11.012,0 -21.016,19.677 -24.397,28.14c-1.154,-6.004 -1.657,-13.092 -8.998,-18.086l-3.742,0.58c-10.292,4.341 -12.811,14.83 -16.913,24.306c-2.232,-4.992 -4.318,-11.719 -8.709,-15.263c-12.882,-8.827 -21.446,-0.509 -29.435,8.245c-4.318,5.715 -6.262,11.431 -8.709,16.856l-4.318,-1.881c-4.894,-0.291 -9.427,-0.579 -14.393,0.796l-3.887,2.17l-1.799,3.037l-0.648,-0.288l0,-0.796c-3.095,-3.98 -2.95,-5.064 -2.95,-10.417c0,-4.847 0.286,-6.076 2.95,-10.344c7.413,-11.501 8.781,-23.005 9.86,-34.434l0.217,-13.092c11.155,6.222 22.309,3.545 33.32,-2.75l1.009,-1.084c5.036,-1.012 7.556,-6.655 12.522,-8.754l1.656,-4.992l-8.205,-0.433c-4.535,-2.893 -6.26,-6.582 -9.716,-10.126l0,-1.157c3.24,-2.46 4.605,-3.472 6.766,-6.51c4.605,-5.137 5.18,-10.346 7.627,-15.842l-0.862,-1.956c2.878,-2.385 -0.576,-15.624 -1.368,-20.18c-1.296,-2.605 -1.799,-5.355 -3.526,-7.669c-1.943,-5.21 -7.413,-7.594 -9.787,-12.298l-9.285,-5.858l-1.009,1.808l5.614,10.635l1.368,6.509c0.433,9.839 -3.526,23.003 -13.314,30.382c-8.636,2.677 -17.632,-4.414 -26.341,-1.085c-1.799,-1.954 -4.39,-4.558 -7.268,-5.859l0,322.769c1.726,0.291 3.526,0.506 5.325,0.506c2.375,2.605 1.727,6.077 2.375,9.405c0.144,0.942 0.288,1.881 0.288,2.823l-2.519,0l-1.582,-1.087c-0.506,0 -3.312,-2.46 -3.384,-2.603c-0.217,-0.145 -0.361,-0.218 -0.503,-0.29l0,100.549l24.108,12.007l1.081,-1.663c0,-2.675 -1.512,-5.786 -2.446,-8.173l9.211,1.085l2.734,1.157l1.368,-1.448c-0.576,-3.977 -3.094,-5.858 -5.686,-8.969c-7.125,-10.126 -18.497,-7.667 -23.966,-17.723c2.374,-5.207 6.045,-9.765 8.998,-14.539c3.812,-6.8 4.101,-13.382 4.605,-19.894c3.311,-5.135 4.101,-5.353 2.015,-11.502l3.454,-1.084c0,-14.612 1.582,-28.718 3.239,-43.185l2.231,-0.218c1.44,-2.169 1.871,-2.387 0.503,-4.413c-1.871,-8.391 -3.382,-16.13 -4.319,-24.594c0.434,-3.038 -1.078,-6.366 -1.437,-9.548l-2.161,-1.376l-5.973,0.29c0.29,-12.586 0,-24.811 4.03,-37.399c4.535,-1.3 14.178,-4.123 14.178,-10.127c1.009,2.099 1.799,4.268 2.447,6.583c2.808,7.45 6.693,14.612 10.725,21.557l0.286,8.969c-5.611,2.459 -10.505,8.248 -12.955,14.251l-0.214,8.969c0.359,3.111 4.174,4.631 6.549,6.004c7.916,1.666 16.121,-9.042 23.966,-9.548l1.943,2.46l10.581,10.707l4.318,8.751l1.941,10.923c0,10.345 -1.366,19.965 1.368,30.312c1.44,3.616 2.302,7.305 4.607,10.414l-0.289,1.811c1.007,2.024 1.226,3.544 1.655,6.003l4.318,22.931c0.289,1.953 1.296,2.604 1.657,4.7l5.397,31.105c0.287,1.809 0.862,4.341 2.158,5.789l9.574,0l5.397,-25.102l5.469,0.797l3.816,10.053l4.028,17.508c0.504,6.004 1.441,12.08 3.599,17.793c2.808,0.651 5.399,1.665 8.35,1.087c6.548,-12.876 2.446,-25.465 4.39,-38.269l1.079,-8.172l5.398,0c2.663,-0.651 5.324,-0.508 8.205,-0.797l10.866,-0.578c1.8,-1.012 2.52,0.145 4.319,-1.085l3.023,13.092c1.509,1.954 2.733,4.195 4.318,6.294c2.95,2.46 6.261,5.208 9.284,5.208c3.382,2.822 5.253,8.608 6.98,12.588l6.837,12.225l-0.286,1.953l-2.664,2.966c-10.291,4.629 -18.496,-0.869 -28.571,-2.171c-7.774,1.517 -16.267,2.098 -18.424,11.719l-5.759,10.056l1.368,1.736l1.655,0c1.799,-2.027 5.255,-2.027 7.844,-2.172c2.088,2.893 -1.296,7.957 -2.447,10.923c3.095,0.578 4.391,-0.361 7.63,-0.794l3.239,0.794c6.26,4.34 12.521,6.8 18.497,6.512c5.325,0 10.867,-0.579 15.76,-2.968c7.917,-4.701 13.817,-12.007 19.793,-18.878c1.654,-0.363 2.734,-1.232 4.388,-1.883c5.327,-1.085 10.869,-2.748 16.266,-3.544l2.447,-2.532l1.655,-0.506c0.648,-1.591 1.368,-4.411 3.022,-4.919l0.793,-1.663l4.39,-1.591l0.215,-2.244l-10.075,-1.881c-8.492,-6.437 -15.257,-2.385 -23.607,1.087c-2.589,-2.605 -3.309,-6.873 -5.684,-9.766l-5.469,-12.876l-1.368,-9.838l2.446,-2.17l1.366,-2.75c2.736,0 4.894,0.506 7.63,-0.578l0.289,6.582l1.871,0.869l1.366,-0.578l1.657,-7.67c3.165,-4.483 5.036,-8.969 4.318,-14.684l8.131,-0.361c1.657,7.885 2.95,15.842 4.607,23.799l2.447,1.59l8.779,-0.794l6.189,-25.101l8.712,0.215l2.444,29.515l0.865,1.954l5.686,0.796l5.686,-1.375l9.212,-36.096c6.763,-2.533 10.075,-5.644 10.362,-12.659" style="fill:#231f20;fill-rule:nonzero;"/><path id="path12" d="M568.981,395.4l0,-322.769c-1.799,-0.796 -3.671,-1.156 -5.542,-0.723l-2.447,-2.172c-11.948,-11.574 -24.758,-14.754 -36.993,-14.754c-2.016,0 -4.966,0.072 -6.766,1.084l-0.503,2.096c3.671,0.797 11.37,2.46 12.738,6.367c-4.101,-0.436 -9.643,-0.363 -13.313,1.954c-5.039,4.413 -11.229,1.736 -16.337,-1.954c-5.903,-4.846 -6.982,-9.838 -6.189,-14.757l4.891,-5.713l-2.23,-1.087c-5.686,2.532 -10.867,8.03 -11.876,14.179l-1.727,2.532c-0.214,5.352 0.434,10.632 1.44,15.842c5.039,10.126 13.603,15.696 23.608,19.891l-20.944,19.892l-10.58,4.994l-10.508,1.879c-7.627,-4.846 -14.681,-3.689 -22.381,-0.869l-2.736,3.04l-2.447,7.162l0.289,5.352l-3.529,14.467l2.233,6.945c1.079,1.808 2.158,4.774 3.743,5.931c4.894,4.919 9.858,6.873 14.681,9.911c3.312,3.328 4.605,6.945 4.605,11.429c0.29,2.967 3.312,6.294 6.549,8.753l-1.366,4.631c-3.453,0 -5.038,1.591 -7.916,3.326l-6.982,-14.251l-1.944,-2.747l-3.526,-0.219l0.504,-3.831l-2.95,-0.869l0,-0.506c-2.161,-1.158 -2.879,-2.242 -4.895,-0.291c-3.959,1.014 -9.139,7.379 -12.523,10.635c-7.052,6.076 -15.472,10.199 -22.526,16.13c-3.239,-2.46 -5.686,-5.207 -7.124,-8.97c-3.601,-5.785 -7.486,-12.73 -8.926,-19.458c-0.286,-1.881 -0.286,-9.332 -4.39,-7.306l-1.366,-5.207l-2.088,-0.869l-0.865,-4.341l0,-2.75l-3.236,-0.576c-10.222,24.16 -2.809,47.308 2.446,71.612l1.655,5.208c14.178,9.695 23.318,25.174 34.185,37.978c2.592,5.136 8.061,9.91 9.788,15.263c3.67,2.314 4.39,2.965 4.39,7.451c-2.302,2.605 -3.959,4.919 -5.758,7.957c-2.734,-4.195 -13.458,-14.251 -16.84,-12.515l-0.864,3.762l-3.454,-1.085c-1.655,1.23 -0.935,3.184 -0.792,5.138l-4.391,0l-1.079,2.241l3.023,5.425l2.447,10.417c-4.75,0 -8.203,3.544 -11.515,7.09l-0.503,0l-1.079,6.583l0.575,5.713l2.951,6.004l-2.447,3.834l1.079,9.333l4.101,7.015c-2.013,3.544 -1.799,7.597 0,11.286c0.65,5.642 8.998,12.37 14.395,11.935l5.973,-0.289l0.792,2.242l-6.982,1.085c-5.469,2.386 -3.309,6.727 -3.309,11.719c0.648,9.259 0.072,20.616 2.662,29.296c0.936,5.498 1.512,11.068 2.232,16.639l-4.318,8.172c-0.865,7.524 -0.504,9.115 5.18,13.095l1.872,0c3.167,3.326 7.844,7.379 9.715,11.501l23.391,24.596l-5.684,4.919l-5.4,6.582c-4.677,5.353 -5.973,10.632 -7.341,16.348l3.24,1.375c3.384,-0.724 9.212,-1.52 11.948,-3.329l1.365,0.291l-0.503,6.003l2.161,1.376c5.396,-0.509 10.866,-3.039 14.392,-7.091l0.289,0.506c7.413,-4.701 14.537,-9.693 21.447,-14.973c10.075,-8.318 7.197,-16.13 1.655,-25.174c-4.247,-6.004 -9.429,-12.659 -12.524,-19.313c-2.662,-3.69 -4.316,-8.536 -6.26,-12.586l0.576,-0.291c16.12,0.506 32.025,-1.375 48.074,-1.375c8.709,0.29 17.418,-1.953 26.127,-2.747l5.108,0.794c0.793,12.876 -7.341,25.464 -4.318,38.268l11.445,6.294l17.342,5.496l1.73,0.796l0,-100.549c-2.592,-1.448 -2.664,-1.303 -4.319,-2.46c-0.072,-0.433 -2.016,-0.939 -2.232,-1.374l-0.862,-1.158c-0.576,-2.096 -0.648,-2.892 -0.648,-4.701c2.733,0.072 5.397,0.506 8.061,0.939" style="fill:#231f20;fill-rule:nonzero;"/><path id="path14" d="M760.852,568.07c-4.894,0 -9.501,-2.169 -14.682,-5.497c1.366,-0.794 3.023,-0.794 4.894,-2.675l0.287,-2.172l-0.504,-1.663l-4.677,-6.004l-2.16,-0.578l-3.526,2.82l-2.161,0.797l-0.286,-0.797l0,-3.326l1.871,-2.462c13.099,-6.582 26.124,2.171 39.151,-1.879l1.872,-0.651l1.368,-0.506l3.309,-3.546c-4.677,2.459 -8.995,3.834 -13.603,3.834l-1.941,0c-8.926,-0.796 -17.849,-2.747 -26.847,-0.578l-2.446,1.012l-1.366,0.941l-1.871,1.085l-0.865,-0.579l-0.287,-1.663l-0.792,-1.014l-1.944,-1.663l0.287,-0.869l2.449,-3.254l3.023,-1.375l1.582,-0.218l0.865,-0.578l7.341,-1.373c8.131,1.373 16.336,5.423 24.469,3.832l1.296,-0.506l1.438,-0.288l1.871,-0.869l4.032,-4.05l0.575,-3.544l-0.575,-1.375l-0.217,-0.797l-1.655,-0.866l-0.575,-1.375l-0.793,-1.375l-8.42,-17.217l-0.575,-0.506l0.575,-1.085l2.448,-0.29l1.871,-1.59l1.438,1.011l1.584,2.46l1.079,4.919l1.368,0.218l0.504,-2.387l-0.504,-2.099l0.504,-6.871l1.368,0l1.655,7.885l3.525,8.173l1.655,3.544l0.288,1.666l6.766,10.632l0.576,0.579l3.453,1.663l0.29,-1.085l-1.944,-2.169l1.44,0l0.504,-0.363l3.238,-0.794l4.102,-1.303l5.469,-0.869l6.549,2.75l0.793,1.085l0.792,1.375l0.287,3.832l-1.655,2.46l-3.023,2.387l-1.295,0.29c-4.894,2.75 -9.213,1.954 -14.107,3.256l-3.309,0.867l-1.081,0.578l-0.79,0.218l-9.79,11.792l-5.397,5.135c-6.621,5.209 -13.097,5.497 -19.648,5.788l-0.79,-0.291" style="fill:#f89a83;fill-rule:nonzero;"/><path id="path16" d="M735.877,561.27l0,-1.157l4.318,-6.004l4.607,-1.59l1.079,0l1.655,1.373l1.871,4.34l-0.503,1.881l-13.027,1.157" style="fill:#a7a5a6;fill-rule:nonzero;"/><path id="path18" d="M728.249,550.854l0.503,-1.664l2.448,-3.253l0.575,-1.087l2.447,-0.216l-0.289,2.097l0.289,0.869l-0.792,2.748l-5.181,0.506" style="fill:#a7a5a6;fill-rule:nonzero;"/><path id="path20" d="M445.263,533.349l-0.862,0c0.359,-4.629 0.575,-8.97 3.309,-13.383l1.584,-2.459l1.152,-1.881l2.088,0.29c2.806,1.085 5.756,3.038 6.835,5.713l0.576,1.666l0.792,0.794l0.289,0.578l-0.865,1.375l-2.446,1.591l-10.364,5.498l-2.088,0.218" style="fill:#f89a83;fill-rule:nonzero;"/><path id="path22" d="M823.61,532.046l-0.792,-2.169l1.079,0l3.309,0.218l-2.517,1.663l-1.079,0.288" style="fill:#a7a5a6;fill-rule:nonzero;"/><path id="path24" d="M429.719,528.72l-0.216,-0.797c0.503,-5.207 2.663,-10.126 7.268,-15.335c3.598,-0.506 6.551,0.578 9.787,3.544l-3.742,9.044l-4.894,2.241l-8.203,1.303" style="fill:#f89a83;fill-rule:nonzero;"/><path id="path26" d="M710.328,526.258c-1.079,-1.082 -1.943,-2.169 -2.23,-3.542l-0.504,-1.881l-0.505,-1.881l-7.989,-35.3l-0.503,-1.881l19.288,0l0.287,4.628l-0.287,3.256l-0.502,18.808l-1.944,16.926l-1.079,0.651l-1.585,0.216l-2.447,0" style="fill:#7a7761;fill-rule:nonzero;"/><path id="path28" d="M463.184,523.004l-1.151,-1.084l-0.217,-0.869l-1.365,-1.085l-5.976,-5.715l-2.158,-0.579l1.583,-2.096l1.081,-1.23l0,-0.724l-0.792,-0.796l-1.079,0.29l-4.391,5.425c-2.663,-1.953 -5.397,-4.195 -8.133,-4.413l0.289,-1.808l5.973,-4.413l0.862,-0.579l0,-0.794c-7.341,-6.873 -13.673,-13.167 -20.438,-20.761l-0.506,-0.797l-4.891,-4.919l-5.975,-7.161l-0.863,-1.302l-0.216,-0.651l0,-0.797l3.239,-0.794l0.576,-0.218l0.503,-0.65l-8.995,0l-2.951,-2.097c-2.953,-4.919 -0.792,-9.55 1.941,-14.469l4.824,-6.365l0.863,-1.88c8.636,-9.043 6.262,-18.375 12.234,-27.562c18.208,0.578 35.842,9.548 53.833,17.505l0,0.797l-6.332,4.628l-16.555,13.382l-3.02,1.666l-0.506,0.288l-0.79,0.796l0.215,1.375l6.551,-3.037l-3.24,7.957l-0.864,2.169l1.654,-0.579l1.657,-1.084l4.822,8.751l6.334,11.213l3.742,4.629l4.102,6.006c3.239,4.628 5.469,9.042 5.756,13.67c0.506,5.425 -5.18,9.839 -10.146,13.673l-6.693,5.135l-4.102,2.532l-0.289,-0.579" style="fill:#fbcbbb;fill-rule:nonzero;"/><path id="path30" d="M589.78,513.672l-16.77,-9.26l2.375,-2.169l3.022,-1.375l2.447,-0.215l0.506,-0.364l1.438,-0.215l2.374,1.881l1.226,0.794l3.382,5.571l0.286,1.302l0.937,2.46l0,1.953l-1.223,-0.363" style="fill:#f89a83;fill-rule:nonzero;"/><path id="path32" d="M600.43,506.078l-10.65,-2.171l-3.24,-2.748l0.29,-1.881l3.526,-1.954l3.022,-0.579l0.576,-0.215l2.663,2.748l0.504,0.506l3.526,4.34l1.151,1.736l-1.368,0.218" style="fill:#f89a83;fill-rule:nonzero;"/><path id="path34" d="M679.021,504.124l-1.007,0l-2.232,-1.59l-1.079,-3.256l-4.894,-29.875l18.208,9.62l-4.318,24.595l-4.678,0.506" style="fill:#7a7761;fill-rule:nonzero;"/><path id="path36" d="M851.317,504.124l-1.368,-1.012c-0.791,-3.038 -1.296,-5.788 -1.079,-8.826l-1.294,-12.513l0,-1.375l-0.864,-4.92l0.286,-2.169l18.21,-3.037l-0.217,1.878l-6.262,30.093l-1.943,0.869l-5.469,1.012" style="fill:#7a7761;fill-rule:nonzero;"/><path id="path38" d="M778.843,503.618l-0.576,-0.506l-5.18,-6.582l-0.29,-0.581l1.872,-2.169l0.576,-0.579l1.943,0.869l0.503,1.013l0.289,1.953l0.863,6.582" style="fill:#a7a5a6;fill-rule:nonzero;"/><path id="path40" d="M569.699,503.112l-27.996,-10.707l-1.871,-2.46l-0.287,-1.372l-0.506,-1.375l0.217,-1.666c2.447,-12.223 4.607,-24.305 6.549,-36.53l2.16,0l1.296,-0.866c-2.95,-0.218 -5.904,-1.882 -8.637,-4.632l-1.368,-2.747l3.312,0.29l3.743,-1.374l-7.272,-0.797l-1.365,-0.797l-1.44,0c-5.973,-3.038 -11.66,-6.003 -17.346,-11.501l-0.575,-0.867l0,-1.014l10.363,-8.751l2.736,-1.956l3.237,-1.879l1.368,-1.159l1.081,-0.504l1.366,-0.796l6.261,-3.257l1.296,-0.578l1.944,-1.373l1.296,-0.29l1.437,-0.506l1.296,-1.157l1.368,-0.218l1.44,-1.084l0.504,-0.291l0.792,0l2.447,1.593l4.101,5.498l0.576,0.578l1.872,2.385l1.582,1.159l1.44,1.879l1.368,1.087l3.526,3.907l0,0.794l3.743,2.678l4.894,4.7l3.022,2.966l0.289,0.508l1.44,1.158l2.878,5.713l0.504,2.172l-2.664,5.785l-1.654,0.796l-2.159,0.289l-4.607,0l6.766,1.593l1.078,2.459c0.576,10.417 -7.844,20.543 -14.395,30.599l-0.286,1.663l2.158,2.46l2.736,1.881l5.397,2.747l0,0.579l9.068,3.762l-3.237,2.244l-3.023,2.459l-4.391,-3.04l-1.078,-1.663l-1.082,-0.216l-0.503,0.216l-0.648,0.579l0,0.796l2.447,2.532l-1.799,0l-2.736,1.881l-1.365,1.085l-3.023,2.169l-1.081,-0.216" style="fill:#fbcbbb;fill-rule:nonzero;"/><path id="path42" d="M765.529,501.738c-2.808,-0.87 -6.045,-3.039 -8.205,-6.295l-3.238,-4.919c-2.447,-7.088 -3.022,-13.961 -2.735,-21.121c-0.504,-12.226 7.846,-23.727 0.503,-35.446l-1.007,-1.663l-1.151,-1.664c-1.655,-2.677 -1.655,-5.715 0,-8.393l1.943,-1.951l0.576,-1.087l2.661,-1.663l11.156,4.701l1.082,1.881l0.214,0.797l-1.799,1.954l-5.542,3.544l-1.007,1.084l0,1.375l0.504,0.506l1.151,-0.506l3.743,-3.038l4.893,-3.544l1.368,-0.218l4.03,-2.747l4.174,-1.666l1.295,-1.085l3.816,-1.59l1.367,-1.157c1.871,-0.509 3.526,-1.881 5.469,-1.666l1.872,-1.59l2.158,-1.085l1.368,-0.29l1.368,-1.085l-3.239,0.797l-0.287,-1.087l3.743,-2.169l1.151,-1.375l0,-0.579l-1.151,-0.215l-2.664,1.372c-2.232,1.014 -3.815,3.402 -5.469,5.716l-0.793,0.506l-1.368,0.288l-5.973,3.256l-10.867,4.991l-0.792,-0.866l-1.368,-1.593l1.368,-2.532l11.443,-13.598l0.792,-1.087l2.447,-2.747c9.788,2.747 19.576,-1.664 29.291,0l7.413,1.302l5.686,4.123l0.287,2.675l-1.941,3.4l-1.368,0.797l-8.926,4.341l-0.862,0.288l-1.368,0.506l-4.318,1.953l-1.368,0.291l-1.872,0.794l-12.306,3.038l-0.791,0.506l-2.446,0.508l-2.664,1.445l-1.368,0.216l-10.65,6.006l-2.736,2.46l-1.296,1.663l0,0.578l1.079,1.594l0.506,1.374l2.734,6.076l2.735,3.472c2.447,3.832 6.262,6.873 9.788,9.33c4.102,2.75 8.42,4.052 11.946,8.465l1.079,2.46l1.081,1.3c0.79,2.75 1.655,5.571 1.655,8.248l-2.158,5.134l-1.368,-2.675l-1.44,-1.663l-0.79,-1.087l-5.903,2.46l-0.862,1.881l0.286,0.578l3.239,1.087l0.79,1.373c-2.158,1.087 -4.533,1.881 -6.765,0.869l-0.573,-4.413l-2.664,-4.919l-6.478,-6.873l-3.023,-4.556l-1.365,-1.157l-1.368,-2.966l-0.576,-1.375l-1.296,-1.663c-1.944,-4.122 -2.232,-7.596 -2.447,-11.719l-0.575,-0.796c-1.872,3.255 -0.289,6.509 0,10.056l0.575,1.951l1.296,2.462l1.151,1.3l0.79,1.447l5.4,7.668l1.079,1.592l6.262,7.667c2.23,4.052 2.446,8.175 -1.082,12.225l-1.582,1.663l-0.576,0.291l-0.575,0.29l-1.079,-0.581l-0.217,-1.373l-0.576,-1.592l-0.575,-0.579l0,-0.579l-0.793,-0.794l-1.582,-0.29l-2.447,1.375l-3.311,2.966l-1.08,1.662l1.08,0.87l1.654,0.796l1.657,1.663l-2.447,0.794l-5.183,1.087l-0.503,-0.217" style="fill:#f89a83;fill-rule:nonzero;"/><path id="path44" d="M822.242,497.615l-1.871,-1.375l-0.506,-6.004c-0.862,-4.919 -3.309,-9.838 -3.023,-14.975l10.87,-0.652l4.893,-0.215l-2.16,17.723l-1.078,2.966l-1.368,2.241l-1.08,0.579l-2.23,-0.288l-2.447,0" style="fill:#7a7761;fill-rule:nonzero;"/><path id="path46" d="M798.563,492.405l-0.504,-3.038l-0.503,-1.591l-1.079,-1.88l-1.657,-2.46l0.289,-0.579l1.368,-0.578l0.503,-0.218l1.079,0.506l0.504,2.965l0,6.873" style="fill:#a7a5a6;fill-rule:nonzero;"/><path id="path48" d="M705.938,479.819l-6.19,-0.506l-9.068,-1.375l-0.503,-1.085l-0.504,0l-1.15,0.216c-6.766,-4.267 -13.82,-5.931 -19.793,-11.935l-0.576,-1.953l-0.792,-1.085l-0.576,-3.544l-3.815,-20.473l0.576,-2.241l1.657,-0.506l2.158,-1.375l0.792,0.578l1.152,3.544l0.503,1.594l1.655,2.241l1.584,1.303l2.447,-0.219l0.576,-0.288l0.792,-0.796l5.973,2.748c10.074,11.14 20.151,6.8 30.443,7.886l6.261,-0.868l25.045,-4.051l1.585,5.713l1.079,1.375l0.287,0.797l2.952,2.748c0,6.076 -1.584,11.792 -0.792,17.795l-3.023,0.796l-6.478,1.375l-2.447,0l-31.81,1.591" style="fill:#648e86;fill-rule:nonzero;"/><path id="path50" d="M811.373,472.513l-7.628,-0.869l-2.088,-3.832l-2.446,-3.474l-4.678,-3.111l-1.656,-1.084l-3.455,-2.169l-5.468,-3.547l-4.102,-4.629l1.079,-5.136l0.862,-1.445c7.629,-1.303 14.971,-1.882 22.6,-1.882l15.185,-0.578l1.872,0l28.284,-2.169c8.42,-1.087 16.048,-0.291 24.18,-4.341l1.944,-1.159l0.217,6.366l0.575,6.222l-0.288,1.447l0,1.591l0.288,4.341c0.215,3.256 0.215,7.666 -2.23,10.126l-1.295,1.157l-1.368,1.014l-1.585,0.794c-7.124,2.46 -14.179,3.908 -21.302,4.992l-1.51,0c-11.732,1.375 -23.75,1.012 -35.412,1.664l-0.575,-0.289" style="fill:#648e86;fill-rule:nonzero;"/><path id="path52" d="M750.488,455.514l-1.081,-1.087l-2.375,-4.916l0.217,-9.838l2.734,-4.341c1.871,2.459 2.736,4.919 3.024,7.378l-2.519,12.804" style="fill:#f89a83;fill-rule:nonzero;"/><path id="path54" d="M463.184,455.008l-1.368,-0.291l1.657,-6.799l0.79,-2.46l8.998,-7.161l2.447,-1.302l1.296,-1.157l0.789,-0.288l2.447,-2.172l0.865,-0.29l1.582,-1.012l0.648,-0.579l1.296,0l14.971,8.176l1.871,-0.579l0.287,0.866l0.792,0l1.151,-2.747l3.526,-3.474l1.009,-0.867l3.598,-3.038l4.319,-2.965l5.18,4.41l3.239,2.46l3.526,2.099l8.998,5.209l4.605,5.207l1.368,1.375l-0.289,1.882l-1.366,0c-8.133,1.662 -16.266,3.544 -24.399,4.122l-2.23,0l-27.42,0.794l-3.528,0.29c-6.549,0.291 -13.025,0.797 -19.359,0.291l-1.296,0" style="fill:#648e86;fill-rule:nonzero;"/><path id="path56" d="M706.226,450.377l-4.031,-0.288l-4.894,0l-4.391,-0.291l-10.866,-7.884l-1.944,-1.157l-0.503,-0.506l1.657,-3.038l1.869,3.834l1.657,1.373l1.654,0l1.583,-0.867l3.814,-3.762l1.585,2.169l0.287,1.375l1.368,2.678l1.44,1.663l1.296,1.085l4.388,-0.218l2.447,-1.373l2.447,-2.46l2.664,1.303c2.446,0.866 4.894,0 7.34,-1.015l4.318,-3.038l0,0.509l2.734,3.035l1.657,0.509l2.158,-0.218l1.944,-0.578c2.088,-0.797 4.029,-2.748 4.821,-4.92l4.391,3.256l2.95,0.579l1.657,-0.218l1.079,-0.579l0,3.038l-2.16,0.797l-2.734,0.797c-8.923,2.169 -17.632,4.122 -26.341,4.41l-7.341,0" style="fill:#648e86;fill-rule:nonzero;"/><path id="path58" d="M777.405,445.458l-0.217,-1.085l-1.655,-3.326l-1.368,-3.834l1.08,-1.375l0.575,-0.288l1.079,0.866l0.506,1.375l0.862,1.663l-0.287,2.099l0.287,1.445l-0.862,2.46" style="fill:#f89a83;fill-rule:nonzero;"/><path id="path60" d="M698.31,444.662l-1.584,-1.664l-3.023,-9.041l-1.582,-0.579l-0.576,0.579l-0.865,0.578l0,1.015l-2.157,3.038l-0.506,0.506l-1.869,1.375l-2.449,-1.593l-0.863,-1.881l-0.503,-2.242l-1.368,-1.375l-0.576,0.361l-4.318,7.018l-0.576,0.29l-0.503,0.288l-1.152,0l-2.376,-1.881l-0.287,-0.866c-1.079,-2.172 -1.368,-4.053 -1.079,-6.294l-1.082,-1.015l-0.862,0l-1.368,1.303l-2.157,0.796l-2.736,-0.506c-7.845,-12.876 -6.549,-25.174 -5.398,-37.76l3.815,-15.769c0.79,-3.834 3.526,-7.669 3.813,-11.502l2.952,5.498l1.655,3.544l0.576,2.748l0.503,2.459l1.079,5.716l0.576,0.579l10.293,2.387l10.364,3.834l51.313,17.505l8.998,4.05l-0.578,0.869l-3.237,2.46c-1.585,2.459 -2.16,4.916 -2.447,7.379l1.079,4.41l1.368,1.593l-3.24,5.716l-3.022,0.866l-3.815,-1.663l-0.503,-0.796l-1.944,-2.748l-1.007,-0.869l-1.656,1.663l-1.942,4.413c-1.295,1.881 -3.528,2.46 -5.399,2.46l-2.734,-2.82l-0.289,-1.881l-0.503,-1.085l-1.44,-0.578l-1.294,0.866l-0.289,1.663l-3.815,3.835l-2.733,0.796l-1.872,-0.29l-3.239,-2.169l-0.287,-0.797c-1.368,1.881 -3.311,4.341 -5.686,4.919l-3.022,0.506l-0.576,-0.217" style="fill:#cfa550;fill-rule:nonzero;"/><path id="path62" d="M410.43,441.047l-1.079,-3.256l-0.792,-8.463l2.447,1.591l0.792,0.869l1.871,1.3l2.52,1.665l-5.759,6.294" style="fill:#7a7761;fill-rule:nonzero;"/><path id="path64" d="M782.586,440.469l-2.159,0l-1.368,-5.428c5.183,1.666 10.075,2.172 14.971,-1.084l0.79,-0.579l2.447,1.375l8.709,-0.506l2.447,-2.171l8.419,2.677l4.895,-1.014l0.505,-0.651l0.576,-0.216l0.792,-3.834c4.605,2.459 8.995,3.256 13.025,1.084l1.943,-1.084l0.793,-1.882c5.469,2.172 10.074,3.257 15.257,0.506l2.158,-1.372l1.368,-1.884l0,-1.372l6.476,-0.797l0.865,-0.578l1.871,1.375l7.054,6.294l-3.166,3.544c-23.678,5.716 -47.357,5.425 -71.037,6.582l-17.631,1.015" style="fill:#648e86;fill-rule:nonzero;"/><path id="path66" d="M498.737,435.838l-1.368,-0.797l-1.079,0c-22.24,-11.429 -44.262,-21.845 -66.284,-25.389l-9.285,-0.797l-0.503,-1.157l-2.95,-15.842l-1.944,-8.173l0.576,-1.593l0.792,-0.36l1.582,-1.302l0.865,-0.291l2.158,-3.038l3.311,-5.425c0.504,-4.05 0.793,-8.173 -1.654,-12.371l-1.079,-1.59l-1.657,-1.015l1.368,-7.16l-1.655,-6.292l-2.16,-2.171l1.368,-6.798c-1.079,-2.75 -2.736,-5.716 -5.973,-7.164l-8.422,-1.88l-0.79,-0.579l-2.447,-10.344l-1.151,-5.714l-0.793,-3.834l-1.871,-4.701l16.553,4.122c19.792,7.667 39.151,18.302 59.016,32.842l10.578,9.547l2.736,13.891l1.582,9.042l0,1.372l1.368,6.222l0.576,1.375l0.503,0.869l1.081,3.832l0.576,-2.242l-4.608,-25.389l-1.365,-6.8l0,-1.375l0.287,-2.82l1.871,-2.966l2.447,-2.387l13.889,-11.792l7.558,-6.221l8.419,-6.583l1.658,-1.086l2.157,-1.158l2.158,-1.59l2.233,-1.663l3.239,-1.591l5.973,-3.835l6.046,-3.834l1.295,-0.288l8.923,-4.413l0.576,-0.506l1.081,0l-1.296,14.249l-0.864,5.425l-0.287,1.084l-2.447,0.797l-2.953,1.953l-0.575,0.506l-2.447,1.881l-1.006,2.244l-2.807,2.676l-2.735,4.412l-1.583,9.333l1.366,4.05l0.217,0.579l2.735,1.88l2.159,1.085l-2.951,3.833l-1.368,4.63l0,4.919l0.865,1.375l1.295,2.169l3.599,3.039l-1.944,3.546c-1.079,4.123 -1.944,8.173 -1.368,12.296l0.576,1.375l1.296,1.59l1.44,1.087l1.296,0.651l8.706,-0.651l0.575,-0.218l1.082,0.506l0,3.835l1.079,4.34l-2.161,2.82l-1.151,1.085l-1.871,0.508l-1.872,1.157l-2.733,1.012l-1.944,1.591l-7.557,4.198l-1.366,0.794l-5.183,3.256l-2.95,1.953l-1.655,1.085l-8.133,6.294l-1.079,1.084l-1.943,2.169l-4.319,3.254l-3.815,2.75l-4.605,3.617l-1.153,1.302l-1.293,0.291l-0.362,-1.593l-4.029,-22.425l-1.872,-0.578l0.576,4.052l0.215,1.158l3.239,19.892" style="fill:#f46b78;fill-rule:nonzero;"/><path id="path68" d="M784.746,434.247l-4.319,-1.375c3.815,-2.459 7.341,-4.701 11.443,-5.5l1.582,-0.503l9.788,-2.751l8.133,-2.82l1.368,-0.724l1.655,-0.288l4.894,-2.171l1.368,-0.579l2.735,-1.375l1.079,-0.796l1.296,-1.085l3.237,-3.328l0.648,-2.097l-0.648,-3.038l-2.086,-2.532c-6.548,-4.268 -13.313,-4.05 -20.079,-4.268l-1.657,0c-5.972,0 -12.018,2.677 -17.991,0.218l11.371,-13.673l13.171,-13.888l1.582,-1.373l8.421,-6.294l1.873,-0.796l6.043,-4.05l0.506,-0.652l4.029,2.242l2.736,2.75l0.862,0.866l2.447,4.053l0.289,1.3l2.95,4.704l1.655,2.965l1.585,1.954l1.365,1.881l2.736,2.748l1.872,2.677l1.943,2.748l2.158,3.326l0.793,1.377l1.656,2.17l0.79,1.301l1.152,2.675l2.158,2.245l2.16,2.748l0.575,1.663l0.504,0.581l0.792,2.675l0.576,0.794c0.505,2.534 0.289,4.994 -1.655,7.379l-1.296,1.447l-4.101,1.087l-2.161,0l-1.726,-1.087l-1.01,-1.157l0,1.157l-1.078,1.52l1.298,1.158l-0.506,2.241c-1.079,1.014 -2.375,1.881 -3.526,2.172l-2.736,0.503c-3.239,-0.216 -6.765,0 -10.074,-3.76l-1.296,-0.578l-0.289,2.459l-0.287,0.797l-2.736,3.038c-3.239,1.085 -6.548,0.506 -9.787,-2.172l-0.504,-0.866l-1.295,-0.218l-0.935,0.218l-1.009,4.989c-1.943,1.809 -3.815,1.809 -6.045,1.593l-7.341,-4.122l-0.792,0l-1.366,3.326c-3.025,1.663 -5.686,1.663 -8.709,0.218l-0.503,-1.015l-0.289,-0.649l-1.655,-0.508l-0.503,0.291l-2.447,2.675l-1.657,0.869l-1.368,0.29l-3.812,0" style="fill:#cfa550;fill-rule:nonzero;"/><path id="path70" d="M416.692,432.872l-8.133,-7.379l-0.576,-1.087l-0.79,-1.372l-0.506,-1.375l-0.647,-7.669l0.361,-2.676l-0.865,-7.16l0.289,-1.663l-0.289,-6.512l4.104,4.052l1.079,1.158l1.871,3.255l5.684,5.425l0,0.867l0.865,0.797l2.158,0l2.736,0.578l-2.158,4.629l-1.154,6.006l-0.214,2.747l-1.657,4.341l-2.158,3.038" style="fill:#648e86;fill-rule:nonzero;"/><path id="path72" d="M589.276,432.872l-1.295,-1.375l-1.944,-2.459l-0.865,-13.092l-0.503,-1.158l-0.575,-0.798l-1.296,-0.794l-2.806,-2.46l0.359,-2.169l-0.648,-7.669l-0.504,-2.459l0.793,-2.748l15.257,-3.835l-0.575,7.669l0,4.629l-1.009,10.126l-1.439,13.673l0.576,1.085l-0.576,2.459l-0.792,1.591l-2.158,-0.216" style="fill:#7a7761;fill-rule:nonzero;"/><path id="path74" d="M584.383,427.156l-7.919,-7.378l4.39,-0.579l1.296,-0.578l1.153,-0.506l1.08,9.041" style="fill:#648e86;fill-rule:nonzero;"/><path id="path76" d="M760.852,418.331c-9.213,-6.074 -18.786,-8.173 -28.212,-12.223l-57.648,-19.677l-1.944,-1.087l-0.503,-1.951l-0.289,-1.663l-1.079,-2.099l-0.289,-1.663l-0.504,-2.75l-3.598,-7.088l-9.787,-22.715c3.022,-3.471 3.887,-6.8 3.887,-10.054l-1.655,-6.003c-0.792,-1.954 -3.025,-3.256 -4.679,-4.414l-3.74,-1.302l1.076,-1.953l1.081,-5.208c-1.368,-4.919 -7.341,-7.378 -11.155,-8.463l-8.926,-0.796l-1.583,-1.085l-2.518,-4.122l-3.023,-4.413l-0.217,-0.797l-1.438,-1.302l-2.663,-4.05l4.893,0l26.055,4.267l15.76,3.835l27.709,11.501l8.779,4.629l4.032,1.881l3.814,2.169l3.237,3.256l11.445,9.911l4.318,4.123l0,0.505l1.942,0.797l1.295,-1.302l0.361,-0.867l2.086,-3.041l0.576,-0.506l0.792,-1.084l10.077,-11.792l1.079,-0.506c4.102,-5.425 10.652,-10.344 15.833,-14.757l3.239,-3.039l6.477,-4.34l2.446,-1.59l2.447,-1.664l4.391,-2.75l18.424,-9.114l1.44,-0.288l2.662,-1.085c5.686,-2.171 11.372,-3.038 17.128,-3.038l-0.286,9.981l-0.287,5.498l0.287,1.881l-0.504,2.169l0.217,1.665c-9.214,9.26 -13.029,18.517 -13.029,28.14l0.578,2.46l0.789,1.302l2.736,3.326l1.872,1.085l-1.079,6.512l1.079,3.326l3.815,5.21l3.239,1.88l1.655,1.085l0.503,1.663l0.287,1.303l0.289,0.867l0.216,0.796l-5.686,4.413l-1.584,1.085l-2.448,2.171l-5.108,3.832l-2.808,3.835l-1.296,0.796l-8.706,9.33l-9.284,10.056l-2.953,3.544l-5.756,5.498l0,0.506l-8.42,9.478l-4.318,5.279l-0.865,0.795l-4.246,-7.883l-0.361,-1.375l-0.287,-0.506l-0.504,-0.578l-0.792,0l-0.503,0.578l3.454,8.463l0.289,1.591l-1.944,-0.29l-1.582,0" style="fill:#a7a5a6;fill-rule:nonzero;"/><path id="path78" d="M573.803,417.827l-4.104,-4.341l-5.398,-6.294l-3.309,-4.05l-0.506,-0.651l-2.23,-3.474l3.598,2.172l2.16,1.59l13.601,9.042l4.391,2.169l0.144,0.798l-0.503,1.736l-7.844,1.303" style="fill:#648e86;fill-rule:nonzero;"/><path id="path80" d="M494.707,406.395c-1.078,-5.497 -2.735,-11.283 -3.238,-16.998l0.216,-2.097l1.944,1.085l2.158,17.144l-1.08,0.866" style="fill:#231f20;fill-rule:nonzero;"/><path id="path82" d="M416.979,405.817l-1.942,-1.881l-1.079,-0.794l-5.399,-7.669l-0.862,-1.23l-1.01,-1.23l-0.286,-1.157l0.503,-1.881l1.655,-0.288l4.031,-1.302l1.942,0.506l1.657,7.666l1.582,9.551l-0.792,-0.291" style="fill:#648e86;fill-rule:nonzero;"/><path id="path84" d="M758.116,399.235l-1.079,-1.664l-0.289,-1.301l-0.79,-1.664l-9.285,-21.267l-4.031,-7.378l-0.576,-0.579l0.576,-1.666l1.943,1.158l0.504,1.592l1.368,1.664l10.867,24.593l0.792,6.512" style="fill:#231f20;fill-rule:nonzero;"/><path id="path86" d="M573.513,394.1l-14.105,-1.665l-0.576,-4.629l0,-3.038l3.239,-2.532l3.815,-3.978l2.23,-2.244c2.375,-5.137 3.239,-9.838 1.944,-14.972l-2.809,-3.545l1.368,-3.038l5.973,-0.869l1.872,0.361l9.573,0l5.397,0.291l1.655,0.796l2.447,19.096l2.447,11.719l0,0.796l-1.077,1.736l-2.449,1.012l-1.368,0.578l-3.813,1.087l-0.506,0.215l-2.733,0.579l-1.654,0.579l-7.344,1.808l-3.526,-0.143" style="fill:#648e86;fill-rule:nonzero;"/><path id="path88" d="M655.344,386.431l-1.009,-4.341l-0.287,-1.375l-0.792,-1.662l-0.503,-2.17l-1.152,-1.374l-2.447,-3.835c-2.736,-3.833 -4.607,-6.077 -8.133,-8.752l-1.943,-1.88l-0.287,-0.87c5.756,0.87 11.155,5.21 16.912,4.414l5.397,-2.75l1.368,2.531c-0.287,7.307 -4.894,14.686 -6.476,22.064l-0.648,0" style="fill:#cfa550;fill-rule:nonzero;"/><path id="path90" d="M548.757,385.562l-4.534,-2.675c-1.655,-4.919 -0.36,-9.548 2.591,-14.467l0.647,-0.796l8.637,-1.158l1.366,-0.29c3.022,-1.302 5.975,-4.05 8.205,-6.873c4.391,5.571 2.95,11.286 -0.359,17l-4.318,5.209l-1.368,0.724l-1.582,1.157l-6.262,2.169l-3.023,0" style="fill:#fbcbbb;fill-rule:nonzero;"/><path id="path92" d="M405.825,382.236c-3.022,0 -6.262,-2.605 -8.925,-5.353l-2.734,-5.497c-0.576,-2.172 -0.792,-4.631 -0.576,-6.8l1.079,-1.664l5.47,1.952l3.815,0.29l8.131,-2.242l2.447,-1.375l4.104,-3.255l2.95,3.255l0.503,1.375c1.368,4.702 0.865,9.042 -2.374,13.671l-5.47,4.122l-1.368,0.509l-0.792,0.506l-4.892,0.506l-1.368,0" style="fill:#fbcbbb;fill-rule:nonzero;"/><path id="path94" d="M612.378,367.841l-0.792,0l-3.309,-2.244l-1.082,-1.59l-0.286,-0.506l-0.217,-1.375l0,-4.919c1.871,-4.919 3.454,-7.958 7.63,-11.792l1.871,-1.3l1.223,-0.869l1.366,0l1.584,0.579l1.08,1.59c1.079,2.242 3.525,4.123 5.686,5.715c5.397,2.46 10.578,2.821 15.76,1.664l8.206,-3.256l1.296,-1.085l1.654,-1.084l0.504,-0.289l1.151,0.794l1.296,1.664l0.864,1.592l0,0.579l0.576,1.375l0.792,1.663l1.869,3.256l0.289,0.506l-0.864,1.446l-0.79,0l-1.296,1.087l-2.447,1.084c-7.127,1.085 -14.178,-4.919 -21.233,-4.919l-1.871,0.796l-0.862,0.506l-1.368,0.288l-6.262,3.835l-4.03,2.75l-2.95,1.59l-5.038,0.869" style="fill:#cfa550;fill-rule:nonzero;"/><path id="path96" d="M547.173,365.382c-1.655,0 -4.391,-1.881 -5.181,-4.125l0,-7.885l2.733,-5.207l1.08,-0.291l1.871,-1.59c5.686,0 11.948,-4.919 16.338,-11.213l3.527,3.256l0.286,0.578c1.296,5.21 0.792,10.344 -1.654,15.554c-3.527,6.583 -9.499,11.138 -14.682,10.923l-4.318,0" style="fill:#fbcbbb;fill-rule:nonzero;"/><path id="path98" d="M402.299,362.922l-4.104,-0.508c-3.022,-1.372 -5.469,-3.905 -6.765,-6.582l-0.575,-1.881l-1.079,-4.702l0,-3.834l1.654,-2.169l2.16,1.157c5.973,5.425 11.946,4.629 18.208,2.966l4.391,-3.544l1.079,0c1.871,2.169 2.447,6.294 1.871,8.969l-1.368,3.038l-3.813,4.123l-2.377,1.087l-1.437,0.215l-3.24,1.157l-4.605,0.508" style="fill:#fbcbbb;fill-rule:nonzero;"/><path id="path100" d="M740.771,359.161l-0.576,0l-2.661,-6.583l-0.576,-1.665l-1.081,-3.256l-3.527,-6.074l0.793,-1.303l1.943,0.506l4.319,11.502l0.503,1.663l1.079,2.099l0.576,1.663l-0.792,1.448" style="fill:#231f20;fill-rule:nonzero;"/><path id="path102" d="M867.655,358.003c-12.237,-5.425 -24.686,-11.431 -37.21,-2.75l-1.078,0.797l-1.152,-1.012l-0.216,-1.954l4.893,-1.085l2.736,-1.665l4.318,-3.544l0.79,-1.085l7.341,-9.838l1.657,-2.965l7.627,0.505l2.161,1.158l4.101,1.302c3.456,0.869 8.637,4.629 10.291,8.682l0.506,2.023l0.576,1.593c0,2.965 0,6.077 -3.239,9.042l-4.102,0.796" style="fill:#cfa550;fill-rule:nonzero;"/><path id="path104" d="M634.259,351.999c-3.314,-0.508 -6.552,-1.665 -10.15,-5.427l-4.246,-8.245l0,-5.716l2.086,-3.832l0.576,0c5.469,2.748 10.58,1.881 16.049,1.881l6.766,-2.968l2.736,-2.241l1.582,0.29c2.736,0.867 5.686,1.372 7.916,4.701l0.865,1.375l0.503,3.254l-2.95,8.754l-5.47,4.34l-6.765,2.748l-9.498,1.086" style="fill:#cfa550;fill-rule:nonzero;"/><path id="path106" d="M570.276,351.709l0,-13.888l-0.792,-1.663l-2.233,-2.172l-0.286,-0.869l-0.289,-1.3l1.44,-9.623l-0.575,-3.759l-1.368,-2.46l-0.287,-1.375l-1.081,-1.375l-2.159,-3.038l-5.469,-3.762l1.655,-14.467l-4.03,0l0.215,-2.75l-1.366,-1.373l-1.657,0.507l-0.503,-1.448l-1.079,-0.867l-1.368,0l-0.793,0.579l-1.078,1.229l-2.95,3.618l-1.655,2.675c-2.736,-1.664 -3.887,-4.341 -4.391,-6.583l0,-3.905l-0.503,-1.086l0.503,-7.449l-0.503,-1.303c-0.576,-3.256 -0.289,-6.873 -3.025,-10.129l-1.079,-1.88c-1.079,-1.952 -4.102,-3.905 -5.18,-4.702l-1.368,-0.794l0,-1.375l0.288,-5.497l0.504,-1.015l6.548,2.678l1.655,-0.218l0.576,-1.951l-3.023,-2.968l1.079,-14.755l-2.158,-2.172l-4.894,0l-8.133,-4.991l-3.023,-3.254l-1.365,-1.303c-1.296,-2.82 -4.391,-5.57 -7.341,-7.378l-4.032,0l-1.943,0.796l-5.686,6.798l-4.605,8.753c-4.678,-2.459 -8.996,-2.169 -13.315,-2.747l-4.893,-0.218l-1.441,0l-2.95,0.506l-1.943,-1.085l-3.743,-1.662l-5.469,-4.125l-1.368,-2.458l-0.215,-1.593l-0.576,-4.919c0.576,-3.544 4.605,-8.463 8.42,-9.041l2.158,0.578l0.289,0.578l0.287,0.506l-0.576,1.085l-1.293,0.579l-0.578,0.29l-0.79,1.591l1.582,0.581l25.046,0.506c10.293,0 20.367,-0.291 30.658,-2.172l4.102,-1.375l1.081,-0.794l1.368,-0.291l1.08,-1.084l1.367,-0.291c5.684,-3.544 9.788,-9.257 13.025,-14.754c3.529,-7.597 3.239,-14.758 5.183,-21.846l-1.368,-13.673l-1.368,-3.255l4.39,-1.374l0.504,-0.29l1.081,-1.663l1.151,-1.593l-4.104,2.387l-4.894,1.159l-1.078,-0.29l-6.549,-1.663l-1.368,-1.302l-0.503,0.288l-0.576,0.218l0,1.157l2.158,1.881l5.47,1.085l-2.447,4.919l-1.079,0.29l-1.151,1.3l-5.687,4.413l-1.365,0.508c-8.133,6.077 -15.763,9.621 -23.894,12.874c-14.971,5.21 -29.366,7.379 -44.047,1.376c-6.26,-2.169 -11.371,-4.92 -17.129,-9.333c-2.95,-2.675 -3.743,-4.917 -5.181,-7.088l-1.296,-3.762l0.504,-0.288c-1.368,-3.835 -0.792,-7.091 0.792,-10.996l1.438,0.867c1.081,1.954 2.953,3.256 4.894,4.341c-0.287,-2.097 -3.526,-3.762 -3.813,-6.004l-0.575,-1.665l0,-1.591c-1.296,-3.832 -0.289,-7.667 1.079,-11.428l3.815,-3.835c7.124,-3.038 13.889,-3.038 20.941,2.677l2.16,1.663l1.368,1.954l1.872,3.471l0.862,-0.215l0.503,-0.579l-4.605,-6.8l2.447,-0.869l7.341,-2.169c5.469,-2.387 10.867,-5.498 16.264,-10.417l3.815,-3.256l4.101,-4.556l0.865,-1.157l1.585,-1.593l4.388,-3.689l3.239,-2.387l-2.23,8.391l0.287,1.737l1.151,0c0.792,-7.741 4.894,-18.301 14.609,-22.932l1.658,-1.085l0.575,0l4.605,-1.084c3.815,0.794 7.054,1.881 10.653,5.423l3.453,7.09l0.792,1.375l1.441,0.869c0,-4.919 -3.598,-12.082 -9.574,-14.539c-4.894,-1.881 -9.499,-2.678 -14.106,0l-1.655,1.157l-6.476,0.794l1.583,-3.256l1.368,-0.576l4.101,-1.956l0.504,-0.504l0.575,-0.217l-0.575,-1.158l-0.504,-0.796l-12.81,1.084l1.079,-3.038l1.368,-1.012l0.792,-1.157l2.23,-1.592l1.368,-0.652l5.973,-1.012l1.872,0l0.288,0.506l5.684,1.448l2.233,-0.29l0,-1.373c-2.447,-3.329 -6.551,-6.295 -9.86,-7.957l-1.368,-1.375c9.284,0.29 18.28,1.375 27.492,7.957l7.341,6.294l0.792,2.169l-2.447,1.59c-4.822,3.835 -4.318,8.754 -5.183,13.31l1.944,14.758l6.262,7.741c3.239,1.085 6.476,0 9.86,-1.375l1.295,-1.375l12.449,2.75l3.816,0l17.993,-3.038l10.58,-5.137l0.359,-0.288l1.078,0l2.233,1.663l4.822,6.294l1.654,1.012l2.664,2.46l6.045,1.157l-9.787,8.754c-10.939,6.509 -21.592,10.344 -32.748,5.207c-4.893,-2.459 -8.923,-5.207 -13.314,-9.548l-6.478,-3.979l-2.445,-0.219l-0.792,0.87l0,0.869l1.871,0.506l4.608,2.459c-2.16,1.518 -3.818,1.3 -5.903,0.796l-1.152,0.722l2.159,1.23l6.189,-0.867l0.648,-0.363l7.268,5.858c3.023,4.126 1.658,9.332 2.161,13.891c0,8.463 -1.871,16.348 -4.318,24.305c-1.872,5.789 -4.608,10.708 -8.423,15.914l-1.079,0.507l-0.792,0.796l-1.654,1.375l-2.159,1.373l-3.814,3.546l1.582,-0.579l3.023,-2.099l1.081,-0.362l2.23,-1.591c0.217,4.413 -2.734,8.463 -6.548,12.876l1.365,0l1.296,-1.372l3.887,-4.992l1.799,4.123l0.865,4.122l3.022,3.257l-1.657,5.207c-5.972,32.262 -6.979,64.454 -14.968,96.498l1.151,0.867l11.37,7.669l3.023,1.085l-1.652,14.975l-3.242,21.844l-0.862,1.376l-1.583,-0.29" style="fill:#a4835b;fill-rule:nonzero;"/><path id="path108" d="M578.696,351.491l-3.887,0l1.154,-6.942l2.95,-23.366l0.576,-6.077l0.862,-1.302l5.686,0l-1.654,22.932l0,5.208l-0.793,9.547l-4.894,0" style="fill:#a9c2a9;fill-rule:nonzero;"/><path id="path110" d="M828.215,351.13c-2.664,0 -5.973,-1.592 -8.637,-4.846l-0.575,-0.869l-0.793,-1.3l0.217,-7.669l0.863,-1.375l3.887,-0.794l2.878,-1.666l4.39,-3.253l4.104,-4.125c3.526,-3.254 6.187,-6.798 8.42,-10.415l1.871,-0.508l2.158,1.084l1.655,3.256l0.792,4.125c-0.287,6.583 -2.733,12.586 -7.341,18.808l-2.374,2.966c-3.888,3.616 -7.125,5.57 -10.939,6.942l-0.576,-0.361" style="fill:#cfa550;fill-rule:nonzero;"/><path id="path112" d="M402.01,346.79l-1.871,-0.218c-5.183,-2.023 -9.501,-7.667 -10.867,-12.007l-0.289,-10.417l1.079,-1.663l2.664,-1.954l1.943,-1.59l3.815,-0.797l2.158,0.506l1.152,6.801l-2.734,0.651l-1.368,0.796l-1.079,1.085l0,0.796l1.296,-0.578l3.598,-0.509l7.627,0.509l6.479,3.326c1.366,2.241 1.366,4.123 1.655,6.294c-1.079,2.965 -2.447,5.425 -5.183,7.379c-3.309,1.59 -6.26,1.88 -9.499,1.88l-0.576,-0.29" style="fill:#fbcbbb;fill-rule:nonzero;"/><path id="path114" d="M543.863,344.115l-1.295,-0.29l-3.023,-2.75c-0.864,-4.629 0,-9.548 3.526,-14.177l2.447,-3.038l4.894,-4.341l1.368,-1.084l7.052,-0.869l0.576,-0.291l0.216,-1.881l-2.736,0l0,-5.713l4.39,2.46l1.08,1.084l1.943,4.05l0.793,1.375l0.575,3.835c0.217,6.294 -3.311,12.876 -9.86,18.59l-4.605,2.459l-7.341,0.581" style="fill:#fbcbbb;fill-rule:nonzero;"/><path id="path116" d="M483.839,342.74l-7.125,-6.004l7.413,0.506l1.872,-0.217l1.654,0l2.951,-0.867l-5.397,6.582l-1.368,0" style="fill:#fbcbbb;fill-rule:nonzero;"/><path id="path118" d="M754.876,342.74l-3.022,-4.125l0.361,-1.59l-1.151,-1.664l-1.081,-1.954l-0.576,0l-1.871,2.46l-1.655,2.748l-0.504,0.29l-0.792,0l-0.862,-0.796l-0.289,-0.579l2.736,-4.919l7.052,-8.969l2.23,-0.29l0.506,2.75l-0.792,0.217l-3.527,3.833l3.813,6.006l0.792,2.169l1.296,1.663l0.359,0.506l0,1.087l-1.151,1.372l-1.872,-0.215" style="fill:#231f20;fill-rule:nonzero;"/><path id="path120" d="M764.664,341.365l-0.79,-0.579l0.79,-1.59l14.395,-10.635l0.576,-0.578l5.973,-4.992l1.368,0l0.792,0.651l-5.686,5.137l-1.655,1.084l-0.792,0.289l-1.368,1.086l-1.368,1.664l-11.153,8.681l-1.082,-0.218" style="fill:#231f20;fill-rule:nonzero;"/><path id="path122" d="M763.585,336.158l-1.943,-4.341l-0.214,-1.375l-1.08,-2.241l-1.151,-1.303l-1.657,-3.256l-0.503,-0.867l1.368,-1.592l2.23,1.302l1.007,1.663l0.288,1.303l1.655,3.907l1.079,1.88l0.865,3.833l-0.359,1.375l-1.585,-0.288" style="fill:#231f20;fill-rule:nonzero;"/><path id="path124" d="M481.105,334.782l-5.687,-0.505l-1.654,-1.16l-0.503,0.29c-16.339,-9.259 -32.386,-20.688 -48.653,-27.27l-1.151,-1.087l0,-1.157l1.44,-2.169l0.79,-0.291l3.24,-5.425l0.792,1.085l0.862,1.881l1.01,1.087l0.358,-2.099l-1.654,-5.498l-0.576,-1.663l-0.503,-1.014c-2.161,-1.663 -3.815,-4.268 -4.608,-6.437l4.032,1.375l-0.792,-1.663l-3.815,-3.547l0,-1.084l-1.368,-0.867l-0.79,-2.099l-0.792,-3.038l2.157,-7.667l0.506,-0.506l0.573,-0.581l2.736,-1.372l1.296,-0.291l6.548,-1.375l0.576,-0.506l-0.286,-1.375l-4.608,0l-1.654,-0.215l1.079,-11.286l-0.287,-2.096l-0.792,-2.533l-0.576,-1.084l-1.296,-1.087l-1.151,-2.46l-2.447,-2.169c-1.368,-3.328 -3.526,-6.8 -3.742,-10.126c-0.287,-5.209 0.503,-10.129 2.374,-15.048l3.023,-5.425l3.528,6.004l1.079,1.375l0.287,0.506l2.735,2.459c6.19,2.46 11.66,3.545 17.705,8.464l1.296,1.953l0.575,0.797l1.079,1.375l1.079,2.241l0.289,1.303l0.792,3.038l0,0.794l0.791,0.29l0.864,-1.084l0,-1.663l2.95,3.038l0.576,0l0.289,-1.375l-1.081,-1.881c3.528,-3.617 6.765,-4.414 10.293,-4.919l8.42,0l11.659,2.459l-0.216,0.797l-0.863,1.084l0,1.084l1.366,0.289l7.916,-13.671l2.088,-2.169l1.944,-1.665l1.368,-0.579l1.079,-1.012l0.575,-0.29c3.815,0.29 5.973,4.053 8.996,7.306l0.506,0.869l1.365,1.084c2.447,3.544 5.47,4.919 8.42,6.583l5.975,1.302l1.655,1.085l0,0.581l-0.862,6.582l-0.793,2.965l0.217,4.629c-11.372,-5.207 -22.239,-12.513 -25.479,-24.305l-0.575,-1.591l-1.079,-1.084l-0.504,0l-0.361,1.084l0.865,2.169l-1.657,0l-0.79,1.375l0.79,1.085l1.44,1.666l3.743,4.05c4.677,6.582 10.652,10.922 16.912,14.466l-0.359,8.754l-2.447,-1.087l-1.583,0l-0.505,0.797l0,0.796l0.505,0.651l1.583,0.218l4.102,1.591l3.528,1.953l3.022,3.832l0.287,0.797l2.158,4.123c0.792,2.459 -0.287,4.63 -1.869,7.09l-0.289,1.373l1.368,0.29l0.79,-0.579l0.578,-0.29l1.007,0.579l0.359,1.954c-1.152,5.136 -6.046,10.198 -3.813,15.118l0.79,-0.579l1.871,-6.146l4.68,8.317l0.503,0.797l-2.447,3.905l-1.943,1.88l-7.052,4.341l-8.709,5.713l-3.24,2.462c-7.051,5.207 -14.178,10.633 -21.159,17.505l-2.734,0l-3.815,1.445l-3.526,0.509l-4.318,0.794l-0.576,-0.289" style="fill:#fbcbbb;fill-rule:nonzero;"/><path id="path126" d="M732.854,334.277l-2.95,-2.46l-0.576,-0.869l-4.605,-2.965l-0.578,-1.375l-3.237,-2.17l-1.368,-10.128l-0.862,-2.748l-0.506,-1.881l-3.525,-16.638c2.446,1.085 4.318,1.085 6.764,1.085l3.312,-1.085l1.079,0l0.79,2.677l0.578,2.242l0.576,1.593l-4.894,3.544l-0.289,1.663l0.792,0.506l0.504,-0.218l0.575,-0.578l0.792,-1.373l3.526,-1.881c1.944,-0.291 3.598,-1.157 5.47,-0.579l3.526,3.038c0.575,1.882 0.289,4.05 -1.079,6.004l-2.447,2.169l-2.23,1.087l-4.246,0.867l-2.52,0l-2.16,-0.29l0.793,1.086l7.341,0.218l1.654,6.365l2.447,9.259l-0.576,1.591l-1.871,2.244" style="fill:#f89a83;fill-rule:nonzero;"/><path id="path128" d="M817.059,332.611l-2.663,-1.663l-0.79,-1.085l-0.576,-1.302l-0.506,-3.328l1.585,-8.464c1.655,-5.207 4.318,-11.21 9.284,-15.842l6.476,-4.122l-0.502,-0.506l-2.448,0.506l0,-1.302l1.582,-2.242l0.504,0l0.648,-1.303l-1.941,0l-1.368,-0.29l0.216,-3.326l0,-1.736l3.599,-0.579l2.733,-0.508l5.686,0.869l4.606,3.399c4.893,8.681 1.153,17.144 -2.951,25.898l-2.95,4.05l-1.942,2.75c-3.166,3.256 -6.55,5.716 -10.076,8.463l-5.4,1.954l-1.079,-0.579l-1.727,0.288" style="fill:#cfa550;fill-rule:nonzero;"/><path id="path130" d="M634.473,329.358l-7.054,-0.579l-7.917,-5.427l-2.661,-3.617c-2.016,-4.05 -2.809,-8.39 -2.809,-12.513l0.504,-1.375l4.462,-4.629c1.872,-0.579 3.816,-1.663 5.687,-1.157l3.526,4.989l-2.447,0l-0.503,0.218l-0.576,1.663l4.605,0.291l-5.181,2.748l1.655,0.796c7.124,-2.46 13.603,-2.17 20.654,1.375l4.104,3.834c0.79,2.46 -0.289,4.556 -1.871,6.8l-3.023,2.966l-4.104,2.242l-7.051,1.375" style="fill:#cfa550;fill-rule:nonzero;"/><path id="path132" d="M618.998,328.779c-4.676,-7.09 -7.123,-14.179 -10.939,-21.557l-1.15,-3.835l-2.951,-13.382l1.293,-0.797l4.104,-3.399l0.791,-1.084l1.943,-0.579l0.793,-0.506l1.44,-1.086c4.46,-2.242 8.995,-4.99 13.672,-6.292l3.311,-1.157c5.614,-1.882 11.371,-3.763 17.057,-4.341l4.391,0l0.216,3.038l1.87,4.341l5.182,5.786l1.079,0.796c5.975,4.774 11.948,5.858 18.21,6.076l1.944,0.288l1.869,0l15.977,-2.386l1.944,-0.579l0.864,-0.579l3.526,-0.651l1.296,0l5.469,4.559l0,1.59l1.08,4.919l1.081,5.425l2.444,9.332l0.865,3.762l1.009,5.498l-8.636,-6.004c-14.179,-8.248 -27.709,-13.384 -41.888,-18.013l-10.866,-2.82l-2.449,-1.593l-10.292,-4.556l-2.733,-1.59l-6.549,-2.968l-4.32,-1.085l-3.526,-0.796l-0.574,0.217l-1.298,1.954l-3.022,-0.29l-0.863,2.459l0.287,0.651l0.576,1.663l-3.309,-0.215l-1.01,1.302l-0.286,1.158l2.95,3.183l2.23,3.544l-2.447,0.288l-1.655,0.506l-1.582,1.448l-4.534,3.761l-1.007,7.162l0.503,1.011l0.217,1.448l0.645,1.881l4.176,7.957l1.582,1.012l0.218,1.087l1.15,0.867l-0.864,2.171l-0.504,0" style="fill:#cfa550;fill-rule:nonzero;"/><path id="path134" d="M767.904,328.779l-3.023,-6.004l-0.217,-1.375l-0.575,-0.869l-0.791,-0.796l-0.216,-0.506l0.503,-2.46l2.161,-0.288l0.79,0.794c1.368,1.954 4.893,2.46 6.765,4.414l-1.872,-8.752l1.082,-1.592l1.944,-0.289l4.604,4.919l1.079,1.591l0.289,0.869l2.447,2.965l-0.575,1.375l-0.793,0l-2.447,-2.244l-2.95,-4.34l-0.289,-0.506l0.576,6.509l0.217,0.581l-1.368,2.169l-1.08,0l-7.629,-4.628l2.232,4.338l1.079,1.665l0.217,2.46l-2.16,0" style="fill:#231f20;fill-rule:nonzero;"/><path id="path136" d="M737.748,328.561l-0.79,-1.953l-3.312,-12.804l1.079,-0.29l1.152,-1.373l2.663,-1.375c1.368,-2.748 1.944,-4.919 1.079,-7.379c-2.085,-4.123 -5.686,-4.919 -8.634,-4.629l-0.792,-1.665l-0.648,-1.373l-0.506,-0.796l-0.503,-4.123l1.368,-0.796l0.503,-0.797l8.998,-7.521l1.366,-0.218l2.952,-1.157l9.284,2.242c5.398,2.171 10.578,2.459 15.761,1.881l2.661,-0.506l3.816,-1.158l1.654,-0.796c3.528,-1.881 7.343,-4.919 9.215,-8.752l0.573,-1.881l16.842,2.17l1.654,1.084l-8.706,8.175c-4.391,3.256 -10.363,5.353 -15.187,8.682l-4.391,3.183l-5.47,3.544l-2.661,1.881l-12.234,10.417l-0.576,0.288l-5.111,5.209l-1.943,1.3l-2.231,2.46l-4.318,4.125l-1.079,1.373l-3.528,3.328" style="fill:#cfa550;fill-rule:nonzero;"/><path id="path138" d="M784.746,318.941l-0.504,0l-0.288,-1.666l-0.576,-1.3l-1.585,-4.919l-1.655,-0.869l-0.503,-1.302l1.079,-1.663l1.585,-0.291l3.815,-3.254l0.862,-0.578l1.009,0.578l0.359,0.506l-1.657,3.039l-3.023,1.881l-0.286,0.867l0.286,0.508l1.082,0.288l2.446,-1.881l0.576,-0.579l1.654,-0.288l1.872,0.288l-3.309,3.256l-2.377,2.242l0.289,2.387l2.661,-1.591l4.104,-2.75l0.79,-0.505l1.081,0.505l0,0.869l-4.607,4.341l-1.941,1.375l-1.009,0.506l-2.23,0" style="fill:#231f20;fill-rule:nonzero;"/><path id="path140" d="M489.814,313.225c-6.262,-0.869 -12.524,-2.747 -19,-7.088c-5.973,-4.122 -11.156,-4.919 -16.625,-6.582l-8.926,-4.631l-1.655,-0.579l-2.733,-5.137l0,-0.505l-7.63,-4.268l-1.872,-1.881l-1.654,-1.952l0.576,-0.796c6.189,3.544 12.235,8.536 18.207,7.597l7.054,-0.509c-1.656,2.605 -4.318,2.893 -6.55,2.893l-5.398,-0.288c1.872,3.762 5.973,5.643 9.502,7.306l4.318,1.157c12.81,3.762 25.259,14.975 37.855,13.383c7.269,-1.375 18.497,-3.618 21.158,-12.877l0.289,-3.832l-1.654,-5.643c-1.296,-1.59 -3.24,-3.474 -5.183,-4.558c-7.845,-1.664 -15.186,-2.17 -22.526,1.592l-1.585,0.579l-3.598,2.097l-6.766,5.425l-0.286,3.834l1.368,2.46l2.445,3.471l-2.445,-0.216l-3.239,-3.038l-0.289,-0.578l-0.862,-2.968l0.286,-2.965l3.022,-4.92l13.603,-6.437l2.161,0l0.503,-0.796l5.684,-1.085l-4.029,-0.578l-8.42,2.75l-0.506,0.288l-0.862,0.796l-1.079,-0.506l0.862,-2.459l1.296,-0.579l1.368,-1.087l3.815,-1.084l-8.133,1.881l-0.793,-0.506l0,-0.506l1.585,-2.244l-0.576,-1.085l-0.505,-1.084l-0.504,-0.796l-4.388,4.63l-1.657,1.881l-1.079,0.288l-1.944,1.881l-2.374,1.158l-7.413,0.796l-2.664,-0.796l-1.941,-0.579l-2.664,-1.085l-9.788,-6.294l-5.182,-1.663l0.792,-1.663l2.447,0.361l0,-4.702l-0.217,-3.544l1.082,-7.09l4.318,-8.751l4.894,-4.053l5.973,-3.038c4.893,-1.375 10.074,-2.169 14.967,1.663l4.895,5.137l2.447,4.701c3.815,-5.498 9.212,-13.164 15.474,-12.876l1.078,-0.506l4.608,0.796l4.39,2.966l2.158,1.953l1.585,2.966l1.655,2.46l1.655,7.161l0.575,0.796l0.793,5.209l-0.287,4.339l-1.657,3.546l4.104,-0.291l-1.082,1.954c-3.309,1.663 -6.765,2.965 -9.499,6.8l4.391,1.663l2.086,1.085l2.446,2.169l1.658,2.823l5.397,-6.077l-6.765,-0.796l-0.792,-0.579l-0.287,-1.88l1.941,-0.867l1.584,1.157l8.131,0l0.578,-0.29l1.872,-0.579l0.862,1.881l-2.734,1.157l-1.368,0l-0.288,2.171l-7.053,8.028l0.576,3.256l-1.944,8.175c-1.654,2.46 -4.893,4.123 -7.051,5.786l-1.585,0.506l-3.309,1.375l-1.585,0.579l-2.447,1.011l-10.939,1.158l-0.503,-0.289" style="fill:#231f20;fill-rule:nonzero;"/><path id="path142" d="M582.15,312.141c-3.743,0.215 -8.637,-1.663 -11.874,-4.414l-1.657,-0.796l-3.814,-4.629c3.022,-15.696 5.255,-31.538 7.34,-47.38l4.104,-28.646l1.366,-9.91c0.289,-5.931 1.874,-11.647 5.688,-17.723l3.237,-1.881l1.944,-0.288c4.318,-1.375 8.637,-0.506 13.027,0.579l2.734,1.372c-3.815,12.225 -5.47,24.017 -6.045,35.736l-0.217,16.058l0,1.953c0.217,15.336 2.664,30.599 5.686,45.79l-3.742,8.969l-1.727,1.375l-1.294,0.797c-4.896,3.038 -9.286,2.459 -14.108,3.253l-0.648,-0.215" style="fill:#648e86;fill-rule:nonzero;"/><path id="path144" d="M411.006,300.422l-10.002,-2.82l0.214,-2.678l10.58,4.919l-0.792,0.579" style="fill:#fffccc;fill-rule:nonzero;"/><path id="path146" d="M415.324,299.843l-8.923,-4.919l0,-1.881l2.158,0l2.447,1.593l4.318,5.207" style="fill:#fffccc;fill-rule:nonzero;"/><path id="path148" d="M546.021,296.299l1.152,-1.375l1.871,-1.375l1.079,-1.085l1.657,-1.375l0.79,0l0.289,0.869l-0.289,1.303l-2.158,1.084l-1.368,1.158l-3.023,0.796" style="fill:#fffccc;fill-rule:nonzero;"/><path id="path150" d="M718.678,291.958c-4.318,-0.29 -8.636,-5.57 -13.027,-8.896l-6.551,-4.631l-6.19,-3.544c-5.469,-1.664 -10.866,-3.256 -16.264,-2.242l-1.151,0.578l-3.526,0.868l-1.871,0.505l-3.815,-4.05l-1.368,-0.29l-0.792,0.796c4.031,1.375 5.399,6.004 7.054,9.26l1.655,0.29l-1.08,-3.835l1.296,-0.796l4.391,-1.084c5.108,-1.664 9.788,0.218 14.896,2.169l11.155,7.09l-4.39,1.881l-0.79,0.579c-6.479,1.736 -12.741,2.602 -19.289,2.387c-6.189,-0.869 -12.235,-0.869 -17.921,-6.728l-4.605,-5.498l-0.792,-1.88c-1.151,-3.039 -1.151,-5.716 -1.151,-8.754c1.151,-3.832 3.022,-7.379 6.837,-9.836l1.079,-0.508l1.368,-0.506l8.133,-4.702l1.366,-1.156l0.865,-0.219l1.295,-1.084l1.368,-0.506l3.023,-3.329l1.582,-1.663l0.576,3.327l0.792,2.968l1.079,4.122l-1.871,-0.29l-1.079,0l-1.079,1.084l0.214,0.581l0.865,0.216l2.374,1.665l3.095,3.544l0.217,0.579l1.366,0.794l0.864,0.796l2.664,2.46c3.022,3.038 5.973,3.544 9.284,4.413l7.845,-2.965l4.605,-3.329l2.446,-2.748l2.447,-3.762l2.447,-5.86l0.504,1.447l0.864,3.256l0.865,2.966l0.79,1.157l1.081,1.084l0.287,1.375l1.582,1.954l0,0.796c1.944,2.169 4.608,3.254 6.838,4.629l8.422,1.085l2.733,-0.797l2.447,-1.157c4.607,-2.46 5.975,-6.8 9.212,-10.632l1.872,-2.46l-2.158,0.361l-0.289,-12.876c7.629,5.424 14.682,6.221 22.022,10.922l2.736,2.099l3.237,3.905l0.865,1.302l0.503,1.666c1.082,3.832 0.289,7.667 -1.871,11.501l-4.318,4.919l-0.863,0.289l-1.367,1.084c-9.788,4.631 -19.576,1.593 -29.364,-1.373l4.102,-3.256l1.368,-0.36l1.582,-0.509c5.469,-1.59 11.228,-1.951 16.625,-1.59l0.793,2.965l1.078,0l4.391,-7.957l0,-0.506l-1.943,-0.288l-1.08,1.663l-1.654,1.881c-6.765,-1.087 -12.741,0 -19.289,1.663l-1.583,0.579l-7.916,3.761l-1.368,0.797l-2.736,1.446l-0.503,0l-1.944,2.459l-4.318,4.05c-3.309,2.316 -5.684,3.98 -8.709,5.282l-5.467,1.157" style="fill:#fbc707;fill-rule:nonzero;"/><path id="path152" d="M546.814,291.453l0.862,-1.158l0.792,-1.087l1.441,0l-0.648,1.593l-1.01,0.867l-1.437,-0.215" style="fill:#fffccc;fill-rule:nonzero;"/><path id="path154" d="M631.45,289.787l-6.479,-0.794l-0.286,-1.448l6.62,1.663l1.224,0l-1.079,0.579" style="fill:#fffccc;fill-rule:nonzero;"/><path id="path156" d="M632.888,289.499l0.792,0.506l-0.792,-0.506" style="fill:#fff;fill-rule:nonzero;"/><path id="path158" d="M638.791,288.993l-10.004,-2.966l0,-0.508l10.794,3.184l-0.79,0.29" style="fill:#fffccc;fill-rule:nonzero;"/><path id="path160" d="M603.383,287.184c-1.872,-8.753 -2.448,-17.507 -3.456,-26.549l0,-1.881l-0.576,-10.126l0.217,-2.677l0,-9.621l0.575,-1.59l1.655,-1.087l2.447,-1.664l4.318,-1.88l1.583,-1.085l8.06,-3.544l5.111,-1.954l3.815,-1.662l1.368,-0.291l3.812,-1.591l4.319,-1.375l9.787,-2.747l3.815,-1.085c14.106,-3.328 27.996,-6.8 42.102,-8.465l-2.447,7.596l-5.397,7.667l-1.368,3.617l-1.079,3.546c0,5.135 -1.368,10.632 -4.894,15.77l-7.844,5.207l-7.125,3.328l-1.295,1.375l-0.865,0.216c-3.815,1.157 -5.973,6.582 -7.052,9.622l-0.216,2.675l-0.865,1.375l-11.732,1.952l-1.869,0.508l-6.982,2.242l-6.044,2.459l-13.962,6.51l-3.022,1.954l-4.894,3.255" style="fill:#a4835b;fill-rule:nonzero;"/><path id="path162" d="M826.56,284.725l1.439,-6.582l9.5,2.169l2.447,1.663l-0.864,2.46l-10.867,0.29l-1.655,0" style="fill:#cfa550;fill-rule:nonzero;"/><path id="path164" d="M462.033,282.554l-9.716,-3.544l-5.183,-3.905l-1.871,-7.091l0.217,-0.794l1.368,-0.291c4.894,3.327 9.284,2.46 13.889,3.327l10.077,-1.952l1.006,3.038l1.655,1.881l2.736,1.664c-3.239,4.628 -7.341,7.667 -11.37,7.667l-2.808,0" style="fill:#fff;fill-rule:nonzero;"/><path id="path166" d="M503.703,280.312l-1.151,-0.797l-5.183,-1.084c-3.454,-1.664 -6.476,-2.748 -9.716,-2.46l-2.23,-0.866l-1.584,-1.014l-2.158,-2.243l1.295,-7.594l1.151,-0.29c5.111,3.544 10.795,2.459 16.267,3.544l2.158,-0.288l0.864,1.373l0.287,0.796l1.079,1.375l3.239,3.327l1.368,0.217l-2.735,3.835l-2.951,2.169" style="fill:#fff;fill-rule:nonzero;"/><path id="path168" d="M840.233,279.01l-1.869,-0.289l-5.183,-1.954l-5.182,-1.662l-4.389,-0.218l0.573,-3.545l-1.654,-1.086l-2.447,0.508l-0.217,-2.75l-0.862,-1.591l-1.368,-0.29l-1.079,0.29l-1.872,1.591l-1.368,0.869l-1.582,1.373l-0.864,0.29l-2.231,1.593l-15.474,-2.462l-5.686,-0.506l0.506,-3.832l-1.009,-4.341l-1.944,-3.328c-7.052,-9.26 -16.049,-9.548 -23.894,-14.467l-5.972,-4.919l-0.29,-0.579l-0.286,-1.375c-1.871,-5.713 -3.526,-11.14 -7.558,-16.854l-1.943,-2.82l2.447,-3.256l1.368,-4.34l0.289,-2.46l0.214,-1.663c35.625,8.173 72.33,18.011 107.596,42.894c-2.375,8.466 -5.111,16.423 -10.797,24.596l-1.079,2.46l-1.655,2.169l-0.503,0.796l-0.865,1.448l-1.871,-0.29" style="fill:#a4835b;fill-rule:nonzero;"/><path id="path170" d="M419.931,277.852l-2.952,-3.544l-8.42,-10.85l-0.862,-1.448l-1.01,-1.012l-13.961,-17.289l-1.582,-1.085l-8.423,-8.971l-1.076,-0.576c1.652,-3.835 4.605,-7.597 8.417,-11.504c5.4,-7.667 12.524,-12.007 18.714,-17.432l1.943,-1.376l1.079,-0.506l4.102,-2.459l5.183,-3.616l12.451,-5.426l1.365,-0.29l4.895,-1.952l2.736,-0.796l3.526,0l2.663,2.169l1.151,1.954l0.863,1.375l0.72,1.375l2.232,4.628l0.504,3.038l0.286,0.506l1.371,1.664l-1.946,3.546l-0.504,6.582l0.289,0.506l0.504,1.593l0.575,0.576l0.217,1.375l3.02,4.123l1.657,1.087l0,1.373l0.503,1.086l1.872,1.882l-2.664,2.241l-0.79,0.506l-1.657,-0.506l-1.366,-1.954l-0.792,-1.375l-0.864,-1.59l-2.951,-3.907l-2.23,-1.591c-5.903,-4.413 -11.587,-2.459 -17.632,-8.535c-1.871,-2.678 -2.736,-5.353 -2.953,-7.813l-0.575,-0.869l0,-0.793l-1.872,-0.291l-0.79,1.084c-2.808,2.966 -3.6,5.716 -4.679,8.464c-1.944,4.631 -1.944,8.463 -2.447,12.804l0,4.125l2.16,4.701l2.734,4.846l2.736,3.329l1.079,1.373l0.575,1.302l0.217,1.663l-0.506,13.961l-0.286,1.302l-1.079,0.579c-3.312,1.375 -5.686,5.209 -6.262,7.957l0.792,7.306l0,1.375" style="fill:#a9c4d0;fill-rule:nonzero;"/><path id="path172" d="M806.84,276.477l3.454,-2.965l1.44,-0.867l2.662,-2.099l1.081,-1.157l0.575,-0.218l1.366,0.506l0.217,0.579l-0.576,1.883l-0.503,0.288l-2.16,0.579l-1.08,0.506l-0.792,0.579l-1.654,1.374l-4.03,1.012" style="fill:#fffccc;fill-rule:nonzero;"/><path id="path174" d="M813.606,275.971l4.604,-2.169l2.161,-0.579l1.079,0.868l0,0.796l-0.576,0.578l-7.268,0.506" style="fill:#fffccc;fill-rule:nonzero;"/><path id="path176" d="M476.5,272.427l-0.578,0l-1.654,-1.375l-1.007,-3.254l2.447,-1.665l2.085,-0.794l1.441,-1.085l1.368,-0.29l-0.865,6.004l-1.079,2.677l-2.158,-0.218" style="fill:#4f4c4c;fill-rule:nonzero;"/><path id="path178" d="M510.182,272.427l-0.506,0l-3.022,-2.171l-1.08,-1.952l-0.286,-1.881l1.941,-0.29l5.398,-2.675l-1.08,7.306l-1.365,1.663" style="fill:#4f4c4c;fill-rule:nonzero;"/><path id="path180" d="M738.54,268.304c-3.815,0 -8.636,-2.965 -11.586,-7.669l-1.152,-1.59c-2.16,-4.123 -2.736,-8.175 -3.239,-12.298l-0.793,-1.085l1.082,-9.838l0,-6.294l1.871,-6.291l5.684,0.794l3.815,-0.794l5.973,-2.75l1.657,-1.013l0.79,-0.869l4.031,4.123l3.598,7.669l0.217,1.303l0.359,0.578l0.504,1.373l1.871,8.393l0,1.663l0.289,9.332l-0.504,5.498l-5.471,7.015c-2.951,1.954 -5.47,2.75 -8.42,3.039l-0.576,-0.289" style="fill:#fff;fill-rule:nonzero;"/><path id="path182" d="M457.715,268.014l-5.398,-0.506l-5.759,-3.835l-0.789,0l0.789,-6.799l5.976,-9.043l5.756,-2.965l1.368,-0.579l6.262,-1.663l6.693,2.748l2.519,2.75l2.661,2.966l2.447,6.8l-0.214,1.953l-4.608,3.832l-6.261,2.75l-11.442,1.591" style="fill:#fbcbbb;fill-rule:nonzero;"/><path id="path184" d="M700.54,266.423l-1.943,0l-8.42,-5.788l-3.743,-6.003l-2.23,-10.345c-0.865,-2.459 -1.081,-4.919 -0.505,-7.378l0,-6.292l4.318,-10.344l5.182,-4.919l1.368,-1.087l1.583,-0.867l6.262,-1.302c4.318,0.506 8.708,2.169 12.235,6.8l1.943,2.169l0.214,0.506l1.081,1.666l0.793,1.662l0.287,1.591l0.575,1.666l0.576,3.038c1.007,8.751 0.217,17.214 -5.181,25.895c-2.16,3.329 -4.893,5.21 -7.629,7.379l-6.766,1.953" style="fill:#fff;fill-rule:nonzero;"/><path id="path186" d="M496.074,265.048c-4.102,-0.288 -8.421,-0.288 -12.739,-4.413c-0.862,-3.544 1.079,-6.219 2.664,-8.969l2.734,-4.05c0.792,-1.448 2.449,-2.459 4.103,-3.616l1.583,-0.509l1.368,-0.288l1.368,-0.796l1.871,0.505l1.944,0l4.821,3.039l3.598,4.919l1.079,2.171l0.217,1.591l1.151,3.907l0.287,0.794l-1.655,2.171l-2.733,1.954l-2.736,0.796l-8.925,0.794" style="fill:#fbcbbb;fill-rule:nonzero;"/><path id="path188" d="M441.45,252.463l-1.081,-0.507l0,-0.868l4.607,-7.597l2.95,-2.242l2.233,-0.506l3.237,0.291l-2.95,1.59l-1.44,1.085l-0.504,0c-3.022,2.242 -3.526,5.497 -5.18,7.957l-1.872,0.797" style="fill:#231f20;fill-rule:nonzero;"/><path id="path190" d="M857.865,245.662l-15.761,-10.128l-8.923,-4.123l-8.998,-4.628l-1.654,-0.291l-3.239,-1.808l-6.549,-2.82l-7.052,-2.75l-13.819,-4.557l-2.448,-0.869l-20.654,-5.713l-2.736,-0.869l-2.734,-0.215l-6.55,-2.462l-8.131,-2.17l-0.289,-2.747l-0.503,-1.375c-3.023,-3.835 -7.341,-4.413 -10.867,-5.788l-5.183,-3.833l-3.023,-4.558l-0.503,-1.447l-1.657,-2.966l-0.286,-1.663l-1.296,-2.387l-0.576,-1.375c-2.664,-4.486 -7.63,-5.786 -11.442,-5.786l-1.296,0.288l-2.736,0.797l-5.973,4.123l-3.525,4.701l-2.736,6.512l-0.863,5.425l0.287,5.425l0,1.735l1.151,2.966l0.217,1.084l-2.951,2.46c-4.101,1.087 -7.63,1.375 -11.444,1.881l-1.655,0l-14.106,3.329l-19.576,4.846l-1.368,0.361l-10.577,2.75l-2.736,1.012l-2.447,0.869l-3.813,1.591l-5.688,1.665l-2.375,0.794l-2.445,1.085l-2.591,1.447l-1.368,0.218l-1.584,1.085l-1.439,0.869l-2.16,0.506l-2.95,1.372l-1.296,1.087l-0.934,0.288l-2.447,0.506c0.359,-12.513 3.381,-25.101 7.341,-37.687l3.237,-8.463l6.191,-8.175l3.526,-2.748l0.503,-0.506l5.398,-4.413c5.541,-2.172 10.58,-0.797 16.05,2.459l4.101,4.701c4.897,8.463 5.397,16.927 5.397,25.393l0,1.662l0.793,2.966l0.864,-0.869l-0.575,-13.382l0.862,-1.085c0.289,-8.969 4.318,-20.688 14.106,-28.139l3.24,-0.795l4.101,2.748l1.368,1.881c3.815,8.754 3.526,17.217 4.605,25.968l0.578,1.882l1.079,-3.833c-0.865,-11.14 4.101,-22.063 13.53,-33.349l3.023,-2.387l6.548,-2.748l2.16,-0.29l5.181,3.038l0,0.578l2.447,2.46l2.663,7.306l0.793,1.663l1.151,0l0.287,-1.663l-0.287,-0.506l0,-1.665l4.894,-6.004c6.477,-3.544 13.025,-6.076 19.504,-1.084l2.446,2.459c5.181,8.463 2.734,16.929 5.181,25.392l0.865,-1.375l-0.287,-6.004l2.734,-7.378c2.733,-3.835 7.555,-7.379 11.155,-8.681c3.237,-1.446 6.476,-1.158 9.499,1.014c4.894,6.364 6.262,12.368 6.479,18.299l0.862,18.882l0.793,-14.178l0.575,-8.463l1.871,-4.919l2.734,-2.46c2.16,-1.448 4.031,-1.954 6.189,-2.244c2.736,-0.218 4.894,0 7.341,2.75c7.917,13.67 5.183,26.549 2.519,39.929l0,2.099l0.217,0.651l1.151,-1.157c0.793,-7.669 3.743,-15.554 3.527,-23.221c0.216,-4.631 5.399,-7.378 8.708,-8.681l5.397,-1.445l0,0.288c3.816,0 7.341,1.663 10.005,5.425l2.23,4.701c2.16,5.498 1.657,11.213 1.657,16.711l-4.104,20.471c4.393,-7.161 4.393,-14.54 6.262,-21.918l1.368,-2.675l5.397,-3.038c4.608,-1.375 9.215,-1.375 13.892,2.747l1.655,1.953l1.871,4.051l0.575,1.375c2.664,7.884 1.079,15.263 -0.864,23.22l-5.686,15.046l-0.576,-0.289" style="fill:#cd7f4b;fill-rule:nonzero;"/><path id="path192" d="M463.473,227.361l-0.862,-1.085l-0.578,-0.796l4.894,0.218l-0.217,0.794l-1.366,0.291l-1.871,0.578" style="fill:#a4835b;fill-rule:nonzero;"/><path id="path194" d="M382.721,226.492l-0.286,-3.762l0.286,-5.498l-0.79,-19.892l0,-3.326l1.079,-18.519l1.872,4.556l2.158,6.004l8.422,16.204l1.151,1.375l2.447,3.257l1.296,0.506l0.286,0.794c-5.973,4.413 -8.923,9.041 -14.392,14.539l-3.529,3.762" style="fill:#fffccc;fill-rule:nonzero;"/><path id="path196" d="M721.123,225.19l0,-0.289l-0.504,-1.662l-1.079,-1.375l-0.217,-0.797l3.743,1.087l-1.079,1.879l-0.864,1.157" style="fill:#f89a83;fill-rule:nonzero;"/><path id="path198" d="M380.274,224.033l-0.79,-7.667l0,-1.303c-1.153,-10.344 -2.232,-20.761 -2.232,-31.105l0.864,-9.041l0.793,-5.283l1.365,1.16l0.865,1.372l0.506,1.087c-2.161,12.008 -1.371,23.8 -0.865,35.516l-0.506,15.264" style="fill:#fffccc;fill-rule:nonzero;"/><path id="path200" d="M727.746,221.864c-8.423,-0.507 -14.971,-10.635 -16.915,-18.014l-0.503,-5.713l2.16,-9.042l-0.289,-0.579l-1.871,-0.217c-1.943,5.207 -2.734,10.126 -1.368,15.335l0.503,1.882l3.529,7.884c-5.398,-2.965 -10.58,-3.834 -15.691,-2.459l-1.943,0.506l-2.734,1.157l0.792,-2.46l1.438,-2.169l3.743,-4.703l1.368,-0.507l2.447,-0.287l2.23,0l0.506,-0.219l0,-0.869l-3.24,-1.372l-1.368,0.288l-1.078,-2.169c-1.944,-4.631 -1.944,-8.754 -0.865,-13.382l5.183,-9.042l3.814,-3.256l5.181,-1.881l7.844,1.881l0.792,1.375l1.944,2.169l1.368,3.256l0.287,1.445l0.503,1.303l2.447,4.919l3.815,4.919l13.027,6.003l1.368,1.666l0,1.372c1.079,4.847 1.655,9.26 -2.447,14.179c-4.894,4.629 -10.293,7.091 -15.474,7.091l-0.503,-0.29" style="fill:#f89a83;fill-rule:nonzero;"/><path id="path202" d="M377.613,221.357l-0.576,-2.459l-1.081,-4.123l-3.022,-13.672c-0.79,-4.919 -2.158,-9.839 -1.583,-14.686l-0.289,-1.662l0,-1.448l0.506,-5.931l0.79,-10.707l3.023,-6.294l1.081,2.244c1.654,10.416 -2.447,20.182 -0.217,30.599l1.582,23.799l-0.214,1.59l0,2.75" style="fill:#a9c4d0;fill-rule:nonzero;"/><path id="path204" d="M493.34,205.225l-23.318,-1.375l-1.439,-1.372l-0.505,-5.138l1.368,-1.735l4.318,1.157l-0.289,-0.578l-9.499,-7.089l-0.792,-1.665l-0.573,-1.591l-2.666,-10.126l9.212,2.748l7.343,0.578l19.287,-1.953c10.363,-2.966 20.368,-7.667 30.731,-13.961l1.582,-1.085l5.183,-2.748l7.628,-6.511l2.16,-1.882l1.368,0l1.366,12.731c-0.79,7.452 -1.08,14.613 -5.47,21.631c-1.871,4.919 -5.397,9.332 -10.074,13.164l-2.951,2.172c-8.422,4.122 -16.338,3.832 -24.758,4.34l-4.894,0l-4.318,0.288" style="fill:#fff;fill-rule:nonzero;"/><path id="path206" d="M495.283,196.474l-0.361,-0.29l10.652,-2.46l2.447,-0.797l7.844,-3.253l-8.636,5.425c-3.813,1.085 -7.627,1.663 -11.442,1.663l-0.504,-0.288" style="fill:#231f20;fill-rule:nonzero;"/><path id="path208" d="M438.139,186.924l1.943,-1.882l0.793,-0.287l1.941,-0.291l0,1.375l-4.677,1.085" style="fill:#fffccc;fill-rule:nonzero;"/><path id="path210" d="M432.741,186.417l1.655,-1.953l2.088,-1.953l0.863,-0.216l1.368,-0.797l1.367,0l-0.864,1.809l-1.079,0.869l-3.743,2.241l-1.655,0" style="fill:#fffccc;fill-rule:nonzero;"/><path id="path212" d="M536.017,137.517l-2.158,-0.288l-2.806,-1.157l-2.663,-1.014l-4.895,-5.498l-2.446,-5.713l-1.08,-3.545l-0.792,-3.255l0,-1.52l-0.576,-4.269c0.287,-4.991 0.863,-9.259 5.398,-14.176l1.943,-1.954l4.319,-1.881c3.885,-1.084 7.124,0 10.866,0.797l3.888,2.169l1.296,1.012l4.387,6.945l1.082,1.303l0.575,1.445c1.007,4.919 1.583,9.477 1.007,14.394l-1.007,8.827l1.872,0.217l2.95,1.954l-0.503,0.794c-4.894,-1.373 -9.501,-1.951 -14.395,1.375l-0.863,0.29l-1.584,2.46l-3.815,0.288" style="fill:#231f20;fill-rule:nonzero;"/><path id="path214" d="M534.938,135.058l-8.709,-5.498l-0.287,-0.867l-1.081,-1.305l-2.158,-4.628c-2.23,-7.667 -3.526,-15.046 1.296,-22.713l2.23,-2.171c5.4,-3.832 10.869,-3.544 16.339,-0.794l5.108,5.425c2.736,4.05 3.528,8.463 3.815,12.586c-0.287,4.919 0,8.969 -2.447,13.382l-0.793,2.096l-6.835,2.245c-1.871,1.663 -4.031,2.459 -5.975,2.459l-0.503,-0.217" style="fill:#fff;fill-rule:nonzero;"/><path id="path216" d="M562.933,109.595c-2.733,0 -5.469,-4.122 -6.835,-6.582c-1.657,-5.137 -2.16,-9.766 -2.16,-14.76l0.864,-6.219l3.454,-5.788l1.152,-0.216c2.95,-2.169 5.902,-1.663 8.997,-0.869l5.612,4.704l0.289,1.084l-7.055,-0.866l-3.237,0.866l-2.736,1.591l-0.792,1.158c-1.078,1.59 -2.444,3.761 -2.23,5.715l-0.214,2.965l0.503,2.244l0.576,0.794l1.079,3.835l1.871,2.169l1.655,1.087l2.16,2.966l4.174,1.662l-3.384,1.954l-3.743,0.506" style="fill:#cfa550;fill-rule:nonzero;"/><path id="path218" d="M588.484,109.089c-6.045,0.289 -12.235,-0.869 -18.424,-4.413l-7.989,-6.8l-0.503,-1.663l-0.576,-1.881l0,-8.173l1.941,-2.461l0.506,-0.289l5.684,-0.578l6.045,1.375l0.217,0.506l2.736,2.241l10.074,0.797l6.262,-0.797l1.871,-0.794l1.368,-1.087l4.319,-2.241c3.598,-2.172 7.916,-6.295 10.074,-9.766c6.693,-12.298 7.774,-23.872 2.736,-35.518l-0.503,-1.954c7.34,5.21 12.523,12.298 14.968,18.88l0.578,1.881l1.582,6.8c2.447,9.26 1.079,18.301 -4.318,27.634l-6.766,7.667l-6.044,3.544l-1.44,0.796l-8.134,3.472l-1.365,0.29l-14.899,2.532" style="fill:#d2cb54;fill-rule:nonzero;"/><path id="path220" d="M507.446,92.163l-7.628,-2.75c-9.717,-6.873 -16.842,-17.217 -15.187,-26.259c0.576,-4.992 2.16,-9.547 6.262,-13.382l0.289,1.953l1.654,7.307l0.215,1.447c4.893,6.51 11.731,10.126 17.417,10.632l-2.23,4.631l0,0.504l0.359,0.581l1.296,0.578l1.44,-0.29l2.447,-0.579l5.108,-0.506l1.081,-0.288l-1.081,1.373l-3.023,3.544l-0.789,1.375l-0.793,1.087l0.287,0.577l0.506,0.796l3.812,-0.579l-4.101,7.957l-2.951,0l-4.39,0.291" style="fill:#d2cb54;fill-rule:nonzero;"/><path id="path222" d="M584.958,85.288c-2.519,0 -4.966,0 -7.702,-1.879l-0.503,-1.663l1.151,-1.375l2.95,-0.796l15.763,3.256l-1.368,1.084l-1.295,0.291c-2.951,1.372 -5.47,0.866 -8.492,1.082l-0.504,0" style="fill:#a4835b;fill-rule:nonzero;"/><path id="path224" d="M546.886,120.663c-0.433,6.943 -6.406,12.298 -13.386,11.862c-6.982,-0.433 -12.307,-6.509 -11.876,-13.454c0.432,-6.946 6.476,-12.296 13.386,-11.862c6.982,0.433 12.307,6.436 11.876,13.454" style="fill:#231f20;fill-rule:nonzero;"/><path id="path226" d="M546.886,120.663c-0.433,6.943 -6.406,12.298 -13.386,11.862c-6.982,-0.433 -12.307,-6.509 -11.876,-13.454c0.432,-6.946 6.476,-12.296 13.386,-11.862c6.982,0.433 12.307,6.436 11.876,13.454Z" style="fill:none;stroke:#231f20;stroke-width:0.54px;"/><path id="path228" d="M534.793,123.556c-0.214,3.184 -2.661,5.643 -5.541,5.498c-2.806,-0.218 -4.966,-2.966 -4.75,-6.149c0.145,-3.183 2.664,-5.643 5.47,-5.498c2.878,0.146 5.038,2.966 4.821,6.149" style="fill:#fff;fill-rule:nonzero;"/><path id="path230" d="M534.793,123.556c-0.214,3.184 -2.661,5.643 -5.541,5.498c-2.806,-0.218 -4.966,-2.966 -4.75,-6.149c0.145,-3.183 2.664,-5.643 5.47,-5.498c2.878,0.146 5.038,2.966 4.821,6.149Z" style="fill:none;stroke:#231f20;stroke-width:0.54px;"/><path id="path232" d="M702.628,236.476c7.197,0 13.025,6.872 13.025,15.263c0,8.318 -5.828,15.19 -13.025,15.19c-7.198,0 -13.027,-6.872 -13.027,-15.19c0,-8.391 5.829,-15.263 13.027,-15.263" style="fill:#231f20;fill-rule:nonzero;"/><path id="path234" d="M702.628,236.476c7.197,0 13.025,6.872 13.025,15.263c0,8.318 -5.828,15.19 -13.025,15.19c-7.198,0 -13.027,-6.872 -13.027,-15.19c0,-8.391 5.829,-15.263 13.027,-15.263Z" style="fill:none;stroke:#231f20;stroke-width:0.54px;"/><path id="path236" d="M702.7,254.995c3.165,0 5.685,2.387 5.685,5.353c0,2.965 -2.52,5.424 -5.685,5.424c-3.094,0 -5.686,-2.459 -5.686,-5.424c0,-2.966 2.592,-5.353 5.686,-5.353" style="fill:#fff;fill-rule:nonzero;"/><path id="path238" d="M702.7,254.995c3.165,0 5.685,2.387 5.685,5.353c0,2.965 -2.52,5.424 -5.685,5.424c-3.094,0 -5.686,-2.459 -5.686,-5.424c0,-2.966 2.592,-5.353 5.686,-5.353Z" style="fill:none;stroke:#231f20;stroke-width:0.54px;"/><path id="path240" d="M738.468,237.272c7.485,0 13.603,7.088 13.603,15.842c0,8.751 -6.118,15.842 -13.603,15.842c-7.413,0 -13.53,-7.091 -13.53,-15.842c0,-8.754 6.117,-15.842 13.53,-15.842" style="fill:#231f20;fill-rule:nonzero;"/><path id="path242" d="M738.468,237.272c7.485,0 13.603,7.088 13.603,15.842c0,8.751 -6.118,15.842 -13.603,15.842c-7.413,0 -13.53,-7.091 -13.53,-15.842c0,-8.754 6.117,-15.842 13.53,-15.842Z" style="fill:none;stroke:#231f20;stroke-width:0.54px;"/><path id="path244" d="M739.116,255.861c3.311,0 5.973,2.533 5.973,5.643c0,3.039 -2.662,5.571 -5.973,5.571c-3.239,0 -5.901,-2.532 -5.901,-5.571c0,-3.11 2.662,-5.643 5.901,-5.643" style="fill:#fff;fill-rule:nonzero;"/><path id="path246" d="M739.116,255.861c3.311,0 5.973,2.533 5.973,5.643c0,3.039 -2.662,5.571 -5.973,5.571c-3.239,0 -5.901,-2.532 -5.901,-5.571c0,-3.11 2.662,-5.643 5.901,-5.643Z" style="fill:none;stroke:#231f20;stroke-width:0.54px;"/></g></svg>