<?xml version="1.0" encoding="UTF-8" standalone="no"?><!DOCTYPE svg PUBLIC "-//W3C//DTD SVG 1.1//EN" "http://www.w3.org/Graphics/SVG/1.1/DTD/svg11.dtd"><svg width="100%" height="100%" viewBox="0 0 1200 601" version="1.1" xmlns="http://www.w3.org/2000/svg" xmlns:xlink="http://www.w3.org/1999/xlink" xml:space="preserve" style="fill-rule:evenodd;clip-rule:evenodd;stroke-linecap:round;stroke-linejoin:round;"><rect id="Blog-mainSection-size" x="0" y="0.253" width="1200" height="600" style="fill:none;"/><g id="g8779"><path id="path490" d="M603.007,427.042c13.904,-29.849 10.815,-44.597 15.997,-77.084c3.225,-20.166 1.79,-35.646 0.075,-56.54c-2.007,-24.504 -18.938,-26.481 -39.356,-16.258c-29.399,14.726 -31.905,28.53 -29.072,62.62c2.881,34.702 8.789,56.094 -5.817,91.621c-1.806,4.405 -10.861,24.878 -13.089,29.095c-4.792,9.071 -7.27,50.086 -7.271,61.088c-0.005,15.596 -4.363,23.253 2.907,29.072c5.441,4.358 40.906,8.08 47.993,2.921c5.42,-3.958 2.574,-17.128 -8.908,-29.872c-3.902,-7.021 -0.446,-35.057 0.184,-38.472c5.238,-28.506 24.506,-32.723 36.357,-58.191" style="fill:#fcce7b;fill-rule:nonzero;"/><path id="path492" d="M602.175,417.171c0.144,0.896 0.342,1.79 0.626,2.663c9.017,-4.501 9.291,-20.167 10.788,-28.719c2.383,-13.664 3.23,-27.47 5.415,-41.157c3.225,-20.166 1.79,-35.646 0.075,-56.54c-2.007,-24.504 -18.938,-26.481 -39.356,-16.258c-29.394,14.726 -31.902,28.53 -29.073,62.62c1.389,16.727 4.326,33.596 3.562,50.416c-0.987,21.793 -8.587,41.676 -18.201,61.018c5.431,-6.762 10.343,-13.947 16.166,-20.378c4.615,-5.089 10.507,-15.197 16.647,-18.141c1.402,4.382 1.727,8.976 3.117,13.452c6.067,-6.054 10.467,-13.923 18.7,-17.976c0.182,2.427 2.043,5.348 2.915,7.303c2.468,-2.496 5.005,-5.158 7.266,-7.986c0.972,3.228 0.841,6.503 1.353,9.683" style="fill:#fabb64;fill-rule:nonzero;"/><path id="path494" d="M572.756,465.915c8.323,-12.864 21.907,-20.944 30.251,-38.873c13.904,-29.849 10.815,-44.597 15.997,-77.084c3.225,-20.166 1.79,-35.646 0.075,-56.54c-2.007,-24.504 -18.938,-26.481 -39.356,-16.258c-29.399,14.726 -31.905,28.53 -29.072,62.62c2.881,34.702 8.789,56.094 -5.817,91.621c-1.806,4.405 -10.861,24.878 -13.089,29.095c-4.792,9.071 -7.27,50.086 -7.271,61.088c-0.005,15.596 -4.363,23.253 2.907,29.072c5.441,4.358 40.906,8.08 47.993,2.921c5.42,-3.958 4.043,-16.326 -6.544,-26.905c-9.454,-9.447 -4.004,-32.676 -3.64,-36.138c0.861,-8.176 4.067,-19.225 7.566,-24.619Z" style="fill:none;stroke:#231f20;stroke-width:3.34px;"/><path id="path496" d="M549.197,531.762c5.816,7.279 4.362,15.689 4.362,24.006" style="fill:none;stroke:#231f20;stroke-width:3.34px;"/><path id="path498" d="M561.558,532.491c5.092,8.718 6.546,13.617 6.546,22.547" style="fill:none;stroke:#231f20;stroke-width:3.34px;"/><path id="path500" d="M536.11,531.762c4.551,4.57 4.359,15.454 4.359,21.815" style="fill:none;stroke:#231f20;stroke-width:3.34px;"/><path id="path502" d="M794.551,274.075c0.196,3.298 0.575,6.573 1.118,9.447c0.806,4.24 4.448,10.576 0.452,14.512c-1.349,-1.555 -2.58,-3.416 -3.851,-5.159c-1.697,3.085 0.651,9.658 0.794,13.382c0.239,6.101 0.028,12.272 -0.555,18.21c-0.537,5.489 -1.301,10.908 -2.281,16.349c-0.894,4.948 -0.007,9.755 -1.687,14.631c-2.105,6.078 -5.468,11.826 -7.781,17.857c-5.699,14.866 -6.789,28.177 -9.02,43.608c-3.662,25.349 -14.577,70.3 -14.577,96.663c0,14.393 3.636,15.996 12.364,29.825c9.658,15.289 7.998,29.802 -0.725,30.532c-9.833,0.824 -31.939,1.743 -39.268,-4.358c-8.728,-7.28 -11.636,-33.172 -11.636,-42.171c0,-25.279 4.666,-30.414 5.817,-55.269c0.763,-16.515 2.23,-32.982 2.961,-49.474c0.284,-6.407 2.625,-17.363 0.409,-23.394c-2.368,-6.454 -5.118,-4.193 -10.827,-4.381c-5.428,-0.19 -6.295,-1.508 -10.72,-4.099c-0.701,2.072 -1.957,3.038 -1.582,5.653c-0.264,-0.283 -8.882,-8.175 -7.289,-8.551c-7.369,7.656 -10.281,15.407 -12.255,26.598c-1.575,8.929 -3.428,22.286 -4.81,31.474c-3.287,21.792 -9.695,47.659 -9.697,69.805c0,15.149 5.819,14.536 13.091,27.635c7.869,14.158 12.088,10.696 10.179,26.174c-1.66,4.97 -13.789,8.622 -26.904,5.819c-9.896,-2.12 -21.264,-3.534 -23.997,-8.741c-9.924,-18.894 -7.726,-24.218 -10.18,-45.068c-2.908,-24.737 5.313,-67.072 6.373,-91.526c0.449,-10.366 2.514,-21.91 -0.314,-32.111c-2.203,-7.963 -7.088,-12.651 -7.766,-21.603c-5.818,2.898 -12.569,9.47 -19.893,9.753c0.638,-10.318 -6.427,-5.89 -13.091,-5.796c0.251,-1.343 0.033,-2.544 -0.66,-3.675c-9.419,-0.895 -11.824,6.691 -19.661,9.518c-0.326,-15.549 -4.341,-25.043 -20.399,-30.203c-0.025,3.793 -2.238,7.068 -1.923,10.955c-5.309,-3.51 -8.904,-10.459 -11.341,-15.689c-6.352,9.423 -9.64,34.184 -17.491,42.382c-7.503,7.868 -13.814,25.467 -25.452,34.184c-15.42,11.567 -23.017,28.836 -25.451,47.258c-2.489,18.871 -5.142,27.494 -2.907,46.553c1.577,13.429 16.816,26.315 1.453,37.082c-9.902,6.95 -38.822,-0.636 -45.811,-8.741c-10.14,-11.732 5.524,-42.194 6.174,-56.47c0.968,-21.25 2.5,-26.363 4.734,-47.495c2.69,-25.467 11.221,-27.564 21.815,-49.45c7.239,-14.96 7.908,-31.169 10.181,-49.45c2.532,-20.355 -0.994,-35.621 0,-53.808c0.539,-9.873 1.454,-33.455 20.361,-59.627c-7.694,10.647 -14.669,25.418 -25.505,33.217c-7.377,5.325 -21.452,17.692 -30.919,17.504c1.155,-11.896 -4.865,-9.469 -11.932,-4.428c-7.642,5.442 -15.396,10.081 -22.73,16.042c0.401,-1.766 -1.301,-3.18 -1.047,-4.994c-7.015,-0.376 -12.809,-0.188 -19.599,1.226c-3.26,0.683 -7.574,3.132 -10.913,3.157c-0.854,0.023 -3.172,0.4 -3.768,-0.188c-0.504,-0.497 -0.16,-1.886 -0.13,-2.522c0.135,-2.78 1.8,-6.455 0.893,-9.117c-3.373,-0.189 -6.617,-0.779 -10.037,-0.636c-3.318,0.164 -6.619,0.658 -9.939,0.731c7.372,-16.634 21.261,-30.039 36.206,-39.415c12.847,-8.08 30.972,-10.107 44.902,-16.798c11.459,-5.466 37.866,-10.743 50.698,-12.039c36.358,-3.626 52.898,-12.603 89.987,-12.721c23.673,-0.071 55.516,-2.969 77.26,-14.535c16.659,-8.859 41.57,-32.19 50.296,-55.458c3.719,-9.928 9.039,-15.758 8.61,-25.563c-0.608,-13.696 3.765,-16.876 2.906,-30.54c-1.125,-17.832 4.141,-40.365 20.902,-49.941c10.179,-5.817 5.493,-2.849 14,-6.777c18.908,-8.728 50.901,-4.365 63.266,12.36c17.037,1.386 19.069,25.586 25.451,45.084c3.775,11.551 16.408,46.446 -1.628,51.14c-6.113,1.59 -15.226,-1.592 -20.322,3.15c-8.635,8.04 -0.13,17.742 -2.938,26.611c-2.55,8.057 -12.639,6.349 -15.108,13.565c-1.866,5.461 4.144,15.992 6.269,20.727c-1.525,-0.237 -3.677,0.565 -5.227,0.329c-0.158,4.548 3.73,7.751 5.194,11.521c-1.486,-0.307 -3.699,0.494 -5.241,0.283c-0.925,5.511 3.669,9.258 5.274,14.252c-1.633,-0.681 -4.275,-0.422 -6.121,-1.319c5.021,2.404 8.5,14.653 9.108,19.624c1.371,11.214 2.875,27.753 2.255,39.109c-2.09,-1.414 -4.217,-4.948 -6.666,-5.443c-0.163,2.969 -0.357,0.259 -0.181,3.252" style="fill:#fcd688;fill-rule:nonzero;"/><path id="path504" d="M484.133,239.183c0.867,-0.635 1.747,-1.27 2.635,-1.883c3.122,6.643 -15.751,25.583 -21.248,29.542c-7.377,5.325 -21.452,17.692 -30.919,17.504c1.155,-11.896 -4.865,-9.469 -11.932,-4.428c-7.642,5.442 -16.135,11.237 -23.47,17.197c0.401,-1.791 -4.962,-6.289 -4.708,-8.105c-0.104,0.731 -11.815,1.816 -29.087,7.256c-3.87,-11.355 16.066,-22.449 23.179,-25.983c0.48,1.437 0.876,3.413 0.592,4.97c9.158,-1.627 16.397,-13.146 22.786,-19.555c1.505,2.451 2.772,5.513 3.574,8.6c14.835,0.941 18.151,-19.177 32.492,-17.906c0.186,4.523 -0.603,9.306 1.16,13.382c6.193,-1.082 8.851,-9.517 14.247,-13.216c-0.293,2.946 1.313,3.933 1.961,6.219c6.896,-3.461 12.571,-8.952 18.738,-13.594" style="fill:#fbca75;fill-rule:nonzero;"/><path id="path506" d="M799.12,249.29c0.615,8.364 0.733,15.455 0.103,16.633c-6.44,-6.079 -11.014,-17.574 -19.38,-21.367c-3.394,4.051 -4.217,11.237 -8.866,13.427c-5.086,-4.357 -5.114,-11.614 -8.565,-16.938c-1.952,1.085 -23.032,14.748 -21.053,15.926c-11.355,-6.809 -14.786,-15.173 -14.296,-28.46c-3.778,0.566 -8.163,1.296 -12.147,0.684c-0.095,-4.735 3.401,-12.275 2.768,-16.138c-1.484,-9.117 -8.394,-8.22 -15.487,-12.415c6.865,-3.464 12.945,-8.459 16.54,-16.326c-3.916,-2.381 -10.175,-0.778 -11.494,-5.561c10.208,1.249 20.292,-3.292 29.849,-5.57c15.218,-3.622 29.462,-4.622 44.635,-9.186c6.043,-1.818 -0.463,-12.184 4.975,-6.804c6.448,6.377 5.001,29.404 12.27,37.273c-0.191,-0.612 -8.123,-1.625 -9.037,-1.695c1.333,5.111 5.199,8.67 7.301,13.239c2.361,5.161 2.338,9.024 3.557,14.512c-2.495,-1.366 -4.655,-0.54 -7.184,-1.743c-0.613,4.735 3.718,8.223 4.757,12.651c1.274,5.418 0.352,12.323 0.754,17.858" style="fill:#fbca75;fill-rule:nonzero;"/><path id="path508" d="M696.071,392.01c-7.743,-0.023 -10.915,14.984 -14.155,23.347c-3.469,8.929 -3.183,38.189 -11.855,41.676c0.65,-6.361 -1.937,-15.219 -3.04,-21.58c-5.176,1.673 -7.409,9.636 -12.437,12.862c-1.949,-6.219 -0.814,-12.556 -4.634,-18.328c-6.247,0.424 -7.852,6.479 -9.861,11.521c-0.957,-14.866 0.424,-29.803 -2.245,-44.574c-0.807,-4.476 -2.09,-15.289 -7.4,-17.245c-1.256,-0.471 -19.942,6.879 -19.95,6.408c0.638,-10.318 -6.427,-5.89 -13.091,-5.796c0.251,-1.343 0.033,-2.544 -0.66,-3.675c-9.419,-0.895 -11.824,6.691 -19.661,9.518c-0.326,-15.549 -4.341,-25.043 -20.399,-30.203c-0.025,3.793 -2.238,7.068 -1.923,10.955c-0.132,-1.649 -7.324,-11.638 -8.749,-13.004c-5.675,-5.442 -3.644,-4.853 -7.067,1.084c-4.014,6.973 -5.217,16.986 -7.846,24.596c-2.456,7.114 -6.826,20.071 -13.715,23.864c0.629,-7.162 -0.75,-16.49 -4.057,-22.828c-8.057,5.607 -11.541,18.117 -20.178,22.828c-0.3,-5.842 -0.061,-11.968 -0.399,-17.739c-2.951,4.546 -7.215,8.623 -12.933,7.939c0.075,-2.426 -0.869,-5.843 -0.394,-8.198c-8.417,9.022 -13.568,25.655 -28.483,28.836c6.758,-7.351 11.602,-26.292 14.37,-36.069c3.974,-14.064 4.632,-28.977 6.064,-43.443c0.963,-9.73 -0.762,-18.493 -1.245,-28.412c-0.439,-9.069 0.314,-17.433 2.136,-26.292c1.276,-6.219 1.252,-16.798 5.715,-21.555c0.786,13.287 -3.001,29.472 1.202,42.171c2.394,-0.756 5.4,-0.048 7.898,-1.628c-1.922,1.226 -0.761,17.836 -0.645,19.885c8.867,-3.393 14.777,-15.148 23.339,-18.943c0.73,8.083 0.756,16.185 1.222,24.291c5.009,-5.185 8.956,-13.805 14.24,-19.742c7.143,-8.01 16.221,-9.235 25.397,-13.618c-0.95,0.449 0.447,13.57 0.725,14.937c3.188,-0.588 6.455,-1.862 9.319,-3.605c-8.673,5.255 14.933,19.508 17.934,20.262c11.283,2.851 21.179,-4.406 28.438,-13.36c0.445,7.987 1.336,16.278 1.163,24.267c8.768,-0.425 9.426,-14.655 16.492,-15.195c4.917,-0.379 6.279,8.645 8.092,12.438c6.601,-0.071 5.915,-10.343 10.996,-14.276c4.496,3.722 10.971,16.49 16.316,14.511c6.957,-2.567 8.685,-17.668 11.29,-23.746c3.318,-7.751 7.065,-20.968 15.861,-24.22c2.009,4.995 -0.08,11.403 1.914,16.868c6.284,-1.791 8.851,-11.19 15.077,-12.486c-2.742,0.566 6.963,37.507 8.105,41.441c3.067,-2.52 5.385,-5.795 8.179,-8.786c2.559,7.891 4.028,14.581 8.753,20.707c0.494,-1.437 2.994,-4.241 3.606,-6.126c3.547,2.333 5.704,7.586 8.515,11.002c8.163,-5.983 6.824,-16.703 11.815,-24.383c2.268,5.254 4.345,11.85 7.309,15.619c3.662,-5.419 4.44,-12.509 6.03,-18.045c-1.067,3.722 2.567,13.499 3.572,17.221c2.981,-2.403 20.143,-28.436 15.165,-31.663c13.237,8.575 7.872,41.628 3.677,53.785c-2.953,8.528 -8.519,19.436 -10.908,28.176c-6.829,24.996 -10.461,45.728 -14.846,71.43c0.532,-6.172 -2.045,-11.968 -3.841,-17.74c-3.039,2.922 -5.196,6.809 -8.07,9.542c-1.464,-6.998 -3.78,-14.606 -8.693,-20.025c-4.149,5.018 -4.651,13.57 -6.294,19.978c-2.582,-3.511 -3.848,-9.141 -7.336,-13.005c-1.198,1.579 -4.436,4.524 -4.544,4.83c-0.017,-15.196 11.87,-45.657 -8.208,-46.387c-3.845,-0.142 -7.392,-1.65 -10.529,-3.77c-0.359,1.295 -2.125,3.062 -2.464,4.476c-2.765,-2.52 -5.126,-3.581 -7.171,-3.581" style="fill:#fbca75;fill-rule:nonzero;"/><path id="path510" d="M743.592,27.287c-0.281,0.121 -0.57,0.261 -0.872,0.425c-4.473,2.381 -3.669,5.982 -10.285,3.775c-1.055,-0.354 -7.874,-2.52 -5.859,-4.597c9.83,-10.117 36.132,-12.395 43.768,-11.596c5.596,0.588 14.522,2.936 19.54,5.784c3.976,2.258 6.694,3.308 9.987,6.45c3.481,3.326 7.377,4.654 11.368,7.179c5.272,3.335 9.323,6.103 8.833,13.156c-4.026,-1.128 -5.36,-6.033 -8.223,-8.625c-0.867,-0.786 -2.823,-2.53 -4.144,-2.331c-0.987,0.146 -2.821,2.461 -1.728,3.406c-1.633,-1.409 -10.273,-7.071 -10.549,-8.764c0.198,1.214 -0.417,2.876 -0.196,4.069c-8.713,-2.135 -9.823,-18.159 -19.287,-7.135c-4.222,-3.788 -9.753,-11.155 -9.798,-0.138c-5.167,-2.304 -11.042,-8.337 -11.971,0.622c-4.33,-1.858 -6.59,-3.456 -10.584,-1.68" style="fill:#fde29b;fill-rule:nonzero;"/><path id="path512" d="M658.813,206.58c0.126,2.803 0.757,5.628 2.09,8.434c-2.848,-2.286 -7.859,-8.012 -11.948,-6.787c-6.071,1.814 -5.33,18.376 -5.593,23.253c-3.6,-6.809 -0.181,-20.166 -9.622,-18.893c-8.922,1.201 -17.675,20.049 -21.849,26.833c-1.284,-4.76 -1.899,-10.366 -3.954,-14.631c-5.194,3.559 -15.265,25.584 -9.112,30.487c-3.839,-3.065 -5.964,-7.186 -8.914,-11.215c-5.718,-7.846 -4.398,-6.997 -11.654,-2.451c-0.259,-3.203 -0.06,-6.596 -0.316,-9.801c-5.302,4.524 -6.887,16.21 -13.338,18.943c-0.553,-10.461 0.484,-21.251 -0.322,-31.687c-2.238,1.344 -16.13,23.087 -15.617,24.147c-3.76,-7.773 -2.162,-16.773 -5.041,-24.782c-3.245,1.743 -6.9,2.567 -10.148,4.169c-0.113,-4.287 3.018,-7.728 3.452,-12.086c-0.309,3.087 -15.4,10.742 -17.845,13.194c-5.66,5.676 -9.324,13.545 -15.312,18.87c-2.906,-7.304 -1.852,-15.598 -5.793,-22.57c-6.951,2.333 -13.869,6.972 -20.566,8.035c-0.152,-2.359 -1.596,-4.597 -1.3,-7.164c-8.859,3.065 -13.683,10.225 -21.496,15.078c-0.073,-3.109 -0.063,-6.455 -0.291,-9.564c-9.683,3.323 -16.637,13.969 -25.112,19.789c-0.106,-5.347 1.44,-11.074 3.363,-16.115c-15.113,2.263 -30.149,6.573 -44.122,12.674c19.678,-8.575 37.402,-15.854 57.848,-22.826c12.353,-4.194 28.044,-4.549 40.902,-6.362c20.032,-2.826 37.631,-8.834 57.884,-9.66c26.145,-1.035 54.496,1.886 79.319,-7.186c7.415,-2.685 15.284,-5.44 22.357,-8.504c7.492,-3.25 15.773,-17.193 22.931,-16.979c-2.615,11.232 -11.413,23.293 -10.881,35.357" style="fill:#fde29b;fill-rule:nonzero;"/><path id="path514" d="M694.032,150.025c-2.037,-3.288 -3.775,-7.176 -3.348,-10.431c0.779,-5.963 6.741,-11.722 8.776,-17.811c4.086,-12.219 6.497,-24.423 11.352,-36.449c3.552,-8.801 5.24,-39.832 19.853,-37.984c1.127,0.138 -3.801,40.539 -3.801,45.313c0,10.504 0.844,19.561 2.12,29.989c0.949,7.767 2.534,15.136 2.03,23.236c-1.701,-0.432 -3.853,-0.613 -5.257,-1.645c-0.603,3.405 0.949,6.269 1.03,9.539c-4.022,-1.123 -10.15,-5.656 -14.31,-3.401c-2.438,1.319 -3.707,6.975 -4.505,9.444c-4.333,0.093 -6.272,-6.668 -8.392,-9.703c-1.007,1.477 -2.198,2.075 -2.559,4.157c-0.927,-1.178 -1.994,-2.647 -2.989,-4.254" style="fill:#efb35f;fill-rule:nonzero;"/><path id="path516" d="M472.966,255.346c0.886,0.517 1.369,1.648 1.153,3.697c-3.927,5.491 -18.956,16.916 -24.45,20.214c-4.04,2.426 -10.513,5.536 -14.408,6.196c-2.846,-1.861 0.019,-9.187 -2.737,-11.071c-2.848,1.979 -6.08,4.358 -8.562,6.784c-1.18,1.155 -24.253,16.728 -24.017,14.206c0.292,-3.157 -2.642,-2.027 -4.032,-4.853c-3.764,-0.143 -5.911,-0.143 -10.189,1.249c9.759,-3.205 12.053,-13.852 20.426,-17.198c-0.355,3.391 0.47,6.925 2.863,9.54c-4.002,-4.358 25.999,-21.083 28.923,-22.286c0.676,3.556 2.012,6.997 3.067,10.672c2.376,-0.661 5.083,-1.507 7.164,-3.627c6.634,7.09 11.101,-6.267 15.211,-9.896c2.638,-2.331 7.374,-4.923 9.588,-3.627" style="fill:#fabb64;fill-rule:nonzero;"/><path id="path518" d="M714.484,398.537c-0.869,-0.873 -7.796,-8.223 -8.738,-6.903c-2.951,4.122 -8.183,0.635 -11.604,-2.875c4.848,-9.706 7.297,-15.124 13.285,-22.31c-0.282,4.405 0.266,9.093 0.751,13.429c6.864,-3.888 11.217,-11.05 17.486,-15.785c-1.038,4.029 -2.042,8.764 -1.246,12.981c2.898,-4.971 5.905,-11.521 10.207,-16.067c0.475,1.343 1.909,2.544 2.346,4.311c-0.731,-2.992 17.936,-10.248 21.402,-10.271c-1.876,0 -11.493,14.205 -13.688,15.949c-2.831,2.261 -8.826,2.686 -10.971,4.546c-4.521,3.888 -3.117,11.357 -6.943,15.361c-3.858,4.052 -9.931,2.121 -12.287,7.634" style="fill:#efb35f;fill-rule:nonzero;"/><path id="path520" d="M628.508,373.823c-1.176,7.468 -18.057,12.91 -18.014,12.274c0.638,-10.318 -6.427,-5.89 -13.091,-5.796c0.251,-1.343 0.033,-2.544 -0.66,-3.675c-9.419,-0.895 -11.824,6.691 -19.661,9.518c-5.101,-14.842 -13.827,-21.627 -20.379,-30.203c2.113,1.344 -3.122,10.084 -4.055,11.073c-3.937,-5.418 -3.937,-10.248 -8.779,-16.09c2.435,-7.304 5.943,-14.607 14.966,-13.546c-0.927,3.745 -1.302,7.562 -1.486,11.496c2.402,-1.437 5.607,-3.439 8.82,-3.369c-0.298,4.382 0.367,8.906 2.771,12.486c4.488,-1.743 7.545,-6.196 11.561,-8.599c0.074,6.008 3.082,10.484 6.666,15.172c4.601,-4.641 8.85,-10.059 12.72,-15.242c-0.482,0.636 9.168,19.412 10.338,20.991c5.79,-4.807 6.634,-10.696 7.244,-17.858c5.877,4.9 12.31,13.122 11.039,21.368" style="fill:#efb35f;fill-rule:nonzero;"/><path id="path522" d="M780.227,199.323c-1.911,2.05 -2.949,3.911 -2.311,4.783c-4.289,-5.89 -5.967,-13.548 -10.523,-18.66c-5.049,2.261 -10.11,7.161 -16.123,6.478c0.337,-2.615 -0.756,-5.89 -0.314,-8.432c-5.45,4.71 -10.242,3.321 -16.974,2.59c3.846,-2.59 7.741,-4.074 11.645,-7.256c7.419,-6.048 9.549,-8.163 18.892,-10.105c5.31,-1.1 12.566,2.236 17.861,0.638c6.038,-1.821 -1.116,-17.544 4.322,-12.164c6.448,6.377 5.001,29.404 12.27,37.273c-2.303,-7.396 -13.639,-0.612 -18.745,4.855" style="fill:#fabb64;fill-rule:nonzero;"/><path id="path524" d="M826.798,128.198c-12.156,-2.911 -8.695,-17.526 -8.695,-25.815c0,-13.646 3.8,-27.686 -2.632,-40.533c-3.444,-6.879 -9.442,-11.458 -7.724,-19.935c3.657,9.439 18.783,31.238 17.08,37.323c0.447,-1.612 2.524,-4.546 2.87,-6.495c2.309,9.703 23.103,58.145 0.078,55.626c-0.339,-0.04 -0.663,-0.098 -0.977,-0.171" style="fill:#fabe6f;fill-rule:nonzero;"/><path id="path526" d="M796.975,298.692c-0.693,-1.13 -2.547,-6.972 -6.181,-9.682c3.634,15.431 4.393,32.536 3.634,42.713c-1.555,20.802 -6.46,27.635 -13.633,46.364c-5.699,14.866 -6.824,23.394 -9.055,38.825c-3.662,25.349 -14.577,75.388 -14.577,101.751c0,5.936 3.496,13.099 7.273,18.918c5.385,8.292 10.609,15.289 11.637,23.252c1.843,14.371 -2.911,13.099 -17.454,13.099c-9.866,0 -21.756,1.743 -29.085,-4.358c-8.728,-7.28 -11.636,-33.172 -11.636,-42.171c0,-25.279 4.666,-30.414 5.817,-55.269c0.63,-13.57 0.738,-27.163 1.451,-40.756c0.473,-9.047 2.05,-18.188 2.05,-27.235c-0.005,-4.712 0.623,-7.704 -3.875,-10.366c-4.285,-2.544 -9.15,2.144 -8.304,2.45c-3.461,-1.224 -7.344,-3.486 -10.082,-6.196c-0.372,2.663 -0.15,5.301 0.475,7.892c-3.823,-2.497 -7.804,-6.219 -10.338,-9.941c-9.19,17.245 -14.083,43.654 -16.459,59.439c-3.288,21.791 -8.726,46.198 -8.728,68.344c0,15.149 2.502,17.033 13.091,27.635c7.268,7.256 12.088,10.696 10.179,26.174c-1.66,4.97 -9.124,6.549 -22.542,6.549c-10.18,0 -23.996,-3.652 -28.359,-9.471c-12.804,-17.057 -7.726,-24.218 -10.18,-45.068c-2.908,-24.737 5.313,-67.072 6.373,-91.526c0.57,-13.146 0.379,-26.174 -3.155,-38.943c-1.6,-5.771 -1.814,-9.635 -4.672,-14.96c-5.91,4.123 -12.362,7.257 -20.106,12.886c0.498,-2.897 -0.901,-6.855 -0.507,-9.799c-4.164,1.107 -8.959,3.298 -12.9,5.89c0.213,-1.014 -0.791,-6.527 -0.196,-8.812c-7.924,-0.965 -14.285,0.848 -19.849,9.8c-6.797,-17.245 -12.616,-20.873 -20.399,-30.179c-0.025,3.793 -2.238,7.068 -1.923,10.955c-5.309,-3.51 -8.904,-10.459 -11.341,-15.689c-6.352,9.423 -11.729,32.605 -17.491,42.382c-7.273,12.368 -13.814,24.737 -24.723,34.184c-14.569,12.627 -23.746,28.836 -26.18,47.258c-2.489,18.871 -5.87,28.224 -3.635,47.283c1.576,13.405 17.453,26.905 5.091,34.161c-5.801,3.416 -15.748,5.159 -26.177,3.652c-8.317,-1.226 -19.444,-5.866 -22.544,-9.471c-4.64,-5.372 -2.108,-17.763 0.729,-28.342c3.358,-12.556 5.464,-24.996 5.818,-32.723c0.968,-21.273 2.127,-22.499 4.361,-43.631c2.69,-25.467 11.221,-27.564 21.815,-49.45c7.239,-14.96 7.908,-31.169 10.181,-49.45c2.532,-20.355 -0.994,-35.621 0,-53.808c0.539,-9.873 1.454,-33.455 20.361,-59.627c-7.698,9.635 -12.989,22.947 -22.455,31.002c-4.854,4.124 -9.774,8.647 -15.255,11.922c-5.914,3.534 -8.832,6.101 -18.649,9.658c-1.332,-4.594 -1.106,-9.281 -1.026,-14.158c-9.78,8.552 -21.505,20.779 -34.486,24.006c1.52,-12.604 -29.321,-0.731 -35.537,0.141c0.499,-4.24 2.495,-8.173 2.56,-12.508c-6.733,-0.355 -13.7,-0.284 -20.474,-0.026c2.433,-9.21 8.874,-18.021 17.396,-25.465c7.789,-6.809 16.769,-12.629 25.942,-17.363c17.571,-9.095 26.9,-10.085 42.717,-16.374c15.392,-6.126 51.089,-10.461 63.627,-11.802c17.935,-1.957 42.182,-8.954 71.807,-10.014c25.45,-0.894 51.879,-1.153 73.625,-12.722c16.655,-8.858 49.264,-34.181 53.627,-61.814c1.653,-10.471 9.343,-11.215 8.914,-21.02c-0.608,-13.696 3.765,-16.876 2.906,-30.54c-1.125,-17.832 3.599,-41.324 20.359,-50.901c10.18,-5.817 18.343,-8.228 27.633,-9.449c21.541,-2.846 45.218,4.986 50.176,15.992c18.817,1.808 21.108,31.815 25.506,45.521c3.644,11.358 11.124,31.052 4.428,43.49c-9.908,18.403 -15.721,0.379 -26.433,10.363c-10.139,9.454 -2.077,19.438 -7.748,30.78c-5.091,10.177 -9.695,19.403 -1.213,32.124c-0.432,0 -7.797,-2.474 -8.178,-2.732c5.756,10.601 10.604,23.348 10.604,30.604c-3.637,-3.629 -5.641,-3.604 -7.274,-4.242c6.669,9.708 8.236,51.429 7.879,60.006c-2.396,-2.544 -3.93,-6.646 -6.668,-7.894c1.215,12.134 2.963,21.229 1.64,28.482l0,0Z" style="fill:none;stroke:#231f20;stroke-width:3.34px;"/><path id="path528" d="M721.535,87.457c-0.405,14.876 3.039,29.775 1.68,44.657c-0.432,4.734 -1.346,6.947 -4.26,10.25c-0.949,1.075 -9.753,6.181 -9.748,6.136c0.279,-2.7 -0.841,-4.036 -1.667,-6.43c-2.336,1.442 -4.401,3.876 -5.642,6.392c-1.047,-0.756 -9.338,-8.853 -8.723,-10.104c-0.816,1.665 -4.074,4.337 -3.639,7.271c-4.252,-0.289 -7.47,-7.301 -10.778,-8.63c0.058,1.957 -0.507,4.247 -0.09,6.229c-5.729,-8.658 -13.216,-15.083 -14.226,-26.021c-0.708,-7.686 1.992,-16.283 4.104,-23.552c4.493,-15.456 12.631,-32.689 21.899,-46.162c8.012,-11.651 31.522,-30.833 47.224,-17.433c3.384,2.888 -6.507,15.045 -9.639,21.101c-5.267,10.192 -6.189,25.016 -6.495,36.296" style="fill:#fcd688;fill-rule:nonzero;"/><path id="path530" d="M726.485,41.044c-4.433,3.775 -7.68,7.532 -6.769,9.102c-0.897,-1.547 -2.519,-3.132 -3.24,-4.353c-3.323,4.026 -6.304,9.494 -9.959,11.654c-0.376,-5.581 -0.135,-11.438 -0.472,-17.034c-4.872,0.789 -6.897,-0.914 -10.865,2.534c12.897,-15.735 38.37,-26.199 48.045,-8.765c-0.833,-2.941 -9.597,0.776 -16.74,6.862" style="fill:#fde29b;fill-rule:nonzero;"/><path id="path532.-9" d="M720.5,91.448c1.019,17.998 3.014,37.411 2.715,40.666c-0.432,4.734 -1.346,6.947 -4.26,10.25c-0.949,1.075 -9.753,6.181 -9.748,6.136c0.279,-2.7 -0.841,-4.036 -1.667,-6.43c-2.336,1.442 -4.401,3.876 -5.642,6.392c-1.047,-0.756 -6.555,-8.499 -5.94,-9.753c-0.813,1.668 -4.071,7.367 -3.634,10.306c-4.255,-0.286 -10.258,-10.687 -13.566,-12.016c0.058,1.957 -0.507,4.247 -0.09,6.229c-5.729,-8.658 -13.216,-15.083 -14.226,-26.021c-0.708,-7.686 1.992,-16.283 4.104,-23.557c3.165,-10.88 9.115,-22.919 15.361,-33.756c0.545,4.98 0.435,10.011 0.839,15.052c1.274,-1.618 4.094,-3.097 5.594,-5.156c0.03,3.162 1.562,4.86 1.632,8.032c1.171,-1.007 5.157,-2.185 6.654,-3.959c0.761,5.252 3.172,10.959 8.843,11.157c2.492,-7.593 7.274,-12.661 14.575,-19.88c-0.03,6.31 -2.257,13.689 -1.544,26.308" style="fill:#fabe6f;fill-rule:nonzero;"/><path id="path534" d="M736.077,38.733c-9.818,6.681 -14.158,34.5 -14.542,48.724c-0.405,14.876 3.039,29.775 1.68,44.657c-0.432,4.734 -1.346,6.947 -4.26,10.25c-0.949,1.075 -9.753,6.181 -9.748,6.136c0.279,-2.7 -0.841,-4.036 -1.667,-6.43c-2.336,1.442 -4.401,3.876 -5.642,6.392c-1.047,-0.756 -5.274,-1.821 -6.545,-9.753c-0.816,1.668 -3.029,7.274 -3.634,10.306c-4.258,-0.286 -9.653,-10.687 -12.961,-12.016c0.058,1.957 -0.507,4.247 -0.09,6.229c-5.729,-8.658 -13.216,-15.083 -14.226,-26.021c-0.708,-7.686 1.992,-16.283 4.104,-23.552c4.496,-15.461 11.868,-33.814 22.263,-46.445c10.18,-12.36 24.592,-23.628 38.677,-22.565" style="fill:none;stroke:#231f20;stroke-width:3.34px;"/><path id="path536" d="M806.62,43.701c6.379,12.121 9.172,13.643 11.483,28.065c2.941,18.378 -3.828,33.169 6.377,42.736" style="fill:none;stroke:#231f20;stroke-width:3.34px;"/><path id="path538" d="M810.975,99.819c13.088,10.18 19.254,15.045 30.539,20.357c16.841,14.294 13.207,34.289 -1.454,37.816c-10.177,22.554 -29.326,20.623 -40.237,18.42c-15.115,-3.024 -31.323,-7.399 -52.524,-12.794c-13.924,-14.475 -12.332,-49.362 4.087,-60.936c18.212,-12.834 43.223,-10.006 59.589,-2.863" style="fill:#fcd688;fill-rule:nonzero;"/><path id="path540" d="M811.244,97.659c3.229,3.971 7.301,8.833 9.996,10.908c6.907,5.307 19.817,9.092 20.131,19.588c0.286,9.517 -6.601,13.782 -14.523,14.799c-8.32,1.065 -15.223,-3.762 -22.421,-7.276c-1.304,-0.631 -13.905,-4.109 -15.065,-2.547c0.321,-0.432 4.174,-4.694 4.762,-5.327c-0.686,-0.947 -18.855,-4.22 -18.84,-4.242c1.582,-2.072 3.901,-3.007 5.581,-4.848c-0.64,-0.565 -11.448,-4.496 -11.546,-4.37c1.57,-2.075 3.968,-3.14 6.55,-3.627c-0.404,-2.11 -1.981,-11.001 -2.828,-11.933c1.572,1.723 3.371,3.474 5.845,3.476c0.319,-5.842 1.612,-11.237 2.097,-17.041c1.567,2.685 2.914,6 5.285,8.13c2.19,-2.7 2.845,-6.686 5.435,-9.258c2.381,2.336 5.184,4.662 6.812,7.794c1.484,-2.532 2.35,-5.75 2.383,-8.839c3.17,7.857 6.907,10.391 10.346,14.613" style="fill:#fde29b;fill-rule:nonzero;"/><path id="path542" d="M810.445,95.368c6.379,10.843 12.164,13.176 31.069,24.808c19.264,11.265 10.18,37.09 -1.454,37.816c-10.177,27.643 -35.392,20.364 -43.143,17.448c-10.833,-4.059 -26.739,-7.033 -36.223,-6.4" style="fill:none;stroke:#231f20;stroke-width:3.34px;"/><path id="path544" d="M764.167,75.554c6.734,0.037 7.272,10.18 1.648,11.162c-7.51,1.311 -6.362,-11.19 -1.648,-11.162" style="fill:#231f20;fill-rule:nonzero;"/><path id="path546" d="M805.982,72.404c5.784,-0.964 7.017,10.843 1.278,10.843c-4.425,0 -5.641,-10.112 -1.278,-10.843" style="fill:#231f20;fill-rule:nonzero;"/><path id="path548" d="M757.163,133.267c4.488,18.553 14.545,20.362 30.541,26.176c14.543,4.363 37.816,8.726 46.539,-7.999c2.908,5.822 5.091,6.548 7.271,6.548" style="fill:none;stroke:#231f20;stroke-width:3.34px;"/><path id="path550" d="M834.243,152.175c1.607,-6.488 -0.05,-14.686 0,-21.819" style="fill:#fff;fill-rule:nonzero;"/><path id="path552" d="M834.243,152.175c1.607,-6.488 -0.05,-14.686 0,-21.819" style="fill:none;stroke:#231f20;stroke-width:3.34px;"/><path id="path554" d="M816.066,125.993c4.358,-10.177 30.386,-8.414 34.415,-0.613c3.873,7.505 -3.876,19.523 -14.058,19.523c-11.631,0 -24.835,-8.464 -20.357,-18.91" style="fill:#5a5758;fill-rule:nonzero;"/><path id="path556" d="M816.066,125.993c4.358,-10.177 30.386,-8.414 34.415,-0.613c3.873,7.505 -3.876,19.523 -14.058,19.523c-11.631,0 -24.835,-8.464 -20.357,-18.91l0,0Z" style="fill:none;stroke:#231f20;stroke-width:3.34px;"/><path id="path558" d="M623.366,359.664c3.878,7.751 7.161,14.512 8.728,20.119" style="fill:none;stroke:#231f20;stroke-width:3.34px;"/><path id="path560" d="M709.657,363.551c-2.713,3.393 -14.299,23.748 -16.482,28.106" style="fill:none;stroke:#231f20;stroke-width:3.34px;"/><path id="path562" d="M542.145,352.808c1.604,-3.792 5.174,-12.132 8.506,-14.465" style="fill:none;stroke:#231f20;stroke-width:3.34px;"/><path id="path564" d="M727.352,398.678c0.203,-9.094 3.993,-24.219 11.104,-30.274c-0.038,2.05 1.424,4.076 1.981,5.655c-0.457,-1.296 17.936,-12.958 23.997,-28.695" style="fill:none;stroke:#231f20;stroke-width:3.34px;"/><path id="path566" d="M733.169,548.488c7.778,4.877 10.305,15.691 10.305,24.336" style="fill:none;stroke:#231f20;stroke-width:3.34px;"/><path id="path568" d="M759.348,547.758c5.658,6.195 8.7,17.575 8.723,25.444" style="fill:none;stroke:#231f20;stroke-width:3.34px;"/><path id="path570" d="M651.725,552.117c7.634,2.285 10.213,15.501 9.454,22.545" style="fill:none;stroke:#231f20;stroke-width:3.34px;"/><path id="path572" d="M678.633,549.925c6.952,8.529 9.275,14.042 7.997,24.737" style="fill:none;stroke:#231f20;stroke-width:3.34px;"/><path id="path574" d="M669.179,552.847c4.446,7.044 6.839,14.701 5.405,22.828" style="fill:none;stroke:#231f20;stroke-width:3.34px;"/><path id="path576" d="M749.168,549.925c5.023,6.291 5.814,10.908 6.54,22.546" style="fill:none;stroke:#231f20;stroke-width:3.34px;"/><path id="path578" d="M436.487,533.929c7.102,2.992 5.817,16.515 5.817,23.276" style="fill:none;stroke:#231f20;stroke-width:3.34px;"/><path id="path580" d="M453.937,537.581c3.639,6.549 4.366,13.922 4.366,21.815" style="fill:none;stroke:#231f20;stroke-width:3.34px;"/><path id="path582" d="M464.846,533.929c6.626,4.971 7.217,16.279 7.272,24.007" style="fill:none;stroke:#231f20;stroke-width:3.34px;"/></g></svg>