<?xml version="1.0" encoding="UTF-8" standalone="no"?><!DOCTYPE svg PUBLIC "-//W3C//DTD SVG 1.1//EN" "http://www.w3.org/Graphics/SVG/1.1/DTD/svg11.dtd"><svg width="100%" height="100%" viewBox="0 0 1200 601" version="1.1" xmlns="http://www.w3.org/2000/svg" xmlns:xlink="http://www.w3.org/1999/xlink" xml:space="preserve" style="fill-rule:evenodd;clip-rule:evenodd;stroke-linecap:round;stroke-miterlimit:10;"><rect id="Blog-mainSection-size" x="0" y="0.021" width="1200" height="600" style="fill:#f8d463;"/><path d="M142.015,152.628c0.945,-0.42 7.665,-3.78 7.665,-14.385c0,-9.87 -7.35,-19.005 -24.465,-19.005l-29.4,0c-2.415,0 -3.045,1.155 -3.045,3.045l0,63.105c0,1.89 0.63,3.045 3.045,3.045l30.87,0c14.595,0 24.99,-6.825 24.99,-20.16c0,-11.34 -8.82,-15.33 -9.66,-15.645Zm-15.12,20.895l-17.64,0l0,-39.48l15.96,0c5.46,0 8.715,1.155 8.715,5.88c0,4.095 -2.625,6.3 -8.715,6.3l-1.365,0c-2.415,0 -3.045,1.155 -3.045,3.045l0,7.98c0,1.89 0.63,3.045 3.045,3.045l2.415,0c5.04,0 8.715,1.47 8.715,6.405c0,4.725 -2.94,6.825 -8.085,6.825Z" style="fill:#fff;fill-rule:nonzero;"/><path d="M220.765,185.493l-23.205,-62.895c-0.945,-2.205 -1.995,-3.255 -4.305,-3.255l-10.08,0c-2.31,0 -3.465,1.05 -4.305,3.255l-23.31,62.895c-0.525,1.26 -0.525,2.94 1.785,2.94l11.025,0c2.31,0 3.15,-0.63 3.99,-3.15l2.94,-8.295l25.725,0l2.94,8.295c0.84,2.52 1.68,3.15 3.99,3.15l11.025,0c2.31,0 2.31,-1.68 1.785,-2.94Zm-40.425,-23.205l7.875,-23.205l7.875,23.205l-15.75,0Z" style="fill:#fff;fill-rule:nonzero;"/><path d="M279.565,119.343l-10.08,0c-1.89,0 -3.045,0.63 -3.045,3.045l0,36.435l-22.26,-35.91c-1.365,-2.1 -2.1,-3.57 -4.725,-3.57l-9.87,0c-2.415,0 -3.045,1.155 -3.045,3.045l0,63c0,2.415 1.155,3.045 3.045,3.045l10.395,0c1.89,0 3.045,-0.63 3.045,-3.045l0,-36.54l22.26,36.015c1.365,2.1 2.1,3.57 4.725,3.57l9.555,0c2.415,0 3.045,-1.155 3.045,-3.045l0,-63c0,-2.415 -1.155,-3.045 -3.045,-3.045Z" style="fill:#fff;fill-rule:nonzero;"/><path d="M349.075,183.498l-3.99,-4.515c2.73,-3.465 3.675,-7.245 3.675,-12.6l0,-24.78c0,-16.59 -15.75,-23.73 -28.245,-23.73c-12.495,0 -28.035,7.14 -28.035,23.73l0,24.78c0,16.59 15.54,23.73 28.035,23.73c4.515,0 8.925,-0.42 13.335,-2.31l5.04,5.145c1.365,1.365 3.045,1.155 4.725,-0.525l5.04,-4.095c1.785,-1.785 1.785,-3.57 0.42,-4.83Zm-16.695,-18.69c0,6.72 -4.83,10.605 -11.76,10.605c-6.825,0 -11.655,-3.885 -11.655,-10.605l0,-21.84c0,-6.72 4.83,-10.605 11.655,-10.605c6.93,0 11.76,3.885 11.76,10.605l0,21.84Z" style="fill:#fff;fill-rule:nonzero;"/><path d="M410.5,119.343l-10.395,0c-1.89,0 -3.045,0.63 -3.045,3.045l0,42.63c0,6.615 -4.41,10.395 -11.34,10.395c-6.93,0 -11.235,-3.78 -11.235,-10.395l0,-42.63c0,-2.415 -1.155,-3.045 -3.045,-3.045l-10.395,0c-1.89,0 -3.045,0.63 -3.045,3.045l0,44.94c0,16.485 15.225,22.68 27.72,22.68c12.495,0 27.825,-6.195 27.825,-22.68l0,-44.94c0,-2.415 -1.155,-3.045 -3.045,-3.045Z" style="fill:#fff;fill-rule:nonzero;"/><path d="M474.76,173.733l-33.495,0l0,-13.86l28.14,0c2.415,0 3.045,-1.155 3.045,-3.045l0,-8.19c0,-1.89 -0.63,-3.045 -3.045,-3.045l-28.14,0l0,-11.445l31.71,0c2.415,0 3.045,-1.155 3.045,-3.045l0,-8.715c0,-1.89 -0.63,-3.045 -3.045,-3.045l-45.255,0c-2.415,0 -3.045,1.155 -3.045,3.045l0,63c0,1.89 0.63,3.045 3.045,3.045l47.04,0c2.415,0 3.045,-1.155 3.045,-3.045l0,-8.61c0,-1.89 -0.63,-3.045 -3.045,-3.045Z" style="fill:#fff;fill-rule:nonzero;"/><path d="M520.54,148.323c-4.2,-1.68 -19.635,-3.99 -19.635,-10.395c0,-4.725 5.775,-6.09 9.24,-6.09c3.15,0 6.93,0.945 8.925,2.835c1.26,1.26 1.785,2.1 2.205,3.15c0.525,1.365 0.84,2.835 2.835,2.835l10.29,0c2.415,0 3.045,-0.42 3.045,-2.94c0,-13.86 -14.595,-19.95 -27.93,-19.95c-13.125,0.525 -25.515,7.245 -25.515,20.895c0,13.335 9.765,17.535 20.37,20.895c8.925,2.835 18.27,2.94 18.27,8.82c0,5.88 -4.62,7.14 -10.29,7.14c-3.885,0 -8.19,-0.945 -10.29,-3.465c-1.365,-1.575 -1.89,-2.94 -1.995,-4.305c-0.21,-2.625 -1.365,-2.94 -3.78,-2.94l-10.185,0c-2.415,0 -3.045,0.525 -3.045,2.94c0,14.7 15.12,22.26 28.245,22.26c16.17,0 27.93,-7.14 27.93,-22.05c0,-14.28 -11.13,-17.325 -18.69,-19.635Z" style="fill:#fff;fill-rule:nonzero;"/><path d="M599.395,119.343l-23.52,0c-2.415,0 -3.045,1.155 -3.045,3.045l0,63c0,1.89 0.63,3.045 3.045,3.045l23.52,0c12.495,0 28.245,-7.14 28.245,-23.625l0,-21.84c0,-16.38 -15.75,-23.625 -28.245,-23.625Zm11.76,43.995c0,6.72 -4.83,10.5 -11.76,10.5l-10.08,0l0,-39.9l10.08,0c6.93,0 11.76,3.885 11.76,10.5l0,18.9Z" style="fill:#fff;fill-rule:nonzero;"/><path d="M646.015,119.343l-7.35,0c-2.31,0 -2.94,1.155 -2.94,3.045l0,23.73c0,1.89 0.63,3.045 2.94,3.045l7.35,0c2.31,0 2.94,-1.155 2.94,-3.045l0,-23.73c0,-1.89 -0.63,-3.045 -2.94,-3.045Z" style="fill:#fff;fill-rule:nonzero;"/><path d="M689.275,174.048l-6.615,0l0,-40.11l6.3,0c2.415,0 3.045,-1.155 3.045,-3.045l0,-8.505c0,-1.89 -0.63,-3.045 -3.045,-3.045l-29.19,0c-2.415,0 -3.045,1.155 -3.045,3.045l0,8.505c0,1.89 0.63,3.045 3.045,3.045l6.405,0l0,40.11l-6.615,0c-2.415,0 -3.045,1.155 -3.045,3.045l0,8.295c0,1.89 0.63,3.045 3.045,3.045l29.715,0c2.415,0 3.045,-1.155 3.045,-3.045l0,-8.295c0,-1.89 -0.63,-3.045 -3.045,-3.045Z" style="fill:#fff;fill-rule:nonzero;"/><path d="M764.245,119.238l-10.08,0c-3.465,0 -3.99,2.31 -4.725,3.57l-14.49,25.83l-14.385,-25.83c-0.84,-1.26 -1.26,-3.57 -4.83,-3.57l-10.395,0c-2.415,0 -3.045,1.155 -3.045,3.045l0,63.105c0,2.415 1.155,3.045 3.045,3.045l10.395,0c1.89,0 3.045,-0.63 3.045,-3.045l0,-35.595l10.605,18.375c0.525,0.84 1.365,2.205 2.94,2.205l5.25,0c1.575,0 2.52,-1.365 3.045,-2.205l10.5,-18.375l0,35.595c0,2.415 1.155,3.045 3.045,3.045l10.08,0c1.89,0 3.045,-0.63 3.045,-3.045l0,-63.105c0,-1.89 -0.63,-3.045 -3.045,-3.045Z" style="fill:#fff;fill-rule:nonzero;"/><path d="M838.69,185.493l-23.205,-62.895c-0.945,-2.205 -1.995,-3.255 -4.305,-3.255l-10.08,0c-2.31,0 -3.465,1.05 -4.305,3.255l-23.31,62.895c-0.525,1.26 -0.525,2.94 1.785,2.94l11.025,0c2.31,0 3.15,-0.63 3.99,-3.15l2.94,-8.295l25.725,0l2.94,8.295c0.84,2.52 1.68,3.15 3.99,3.15l11.025,0c2.31,0 2.31,-1.68 1.785,-2.94Zm-40.425,-23.205l7.875,-23.205l7.875,23.205l-15.75,0Z" style="fill:#fff;fill-rule:nonzero;"/><path d="M895.81,149.898l-22.995,0c-2.415,0 -3.045,1.155 -3.045,3.045l0,8.19c0,1.89 0.63,3.045 3.045,3.045l9.45,0c0,8.085 -4.83,11.235 -11.655,11.235c-6.93,0 -11.55,-3.885 -11.55,-10.605l0,-21.105c0,-6.72 4.62,-11.34 11.55,-11.34c7.035,0 10.815,3.15 11.97,6.405c0.525,1.47 0.105,3.57 3.045,3.57l10.185,0c2.415,0 3.045,-0.42 3.045,-2.94c0,-14.07 -15.12,-21.63 -28.245,-21.63c-12.39,0 -28.245,7.035 -28.245,23.625l0,25.83c0,16.485 15.855,22.785 28.245,22.785c11.97,0 27.3,-6.72 28.245,-21.84l0,-15.225c0,-1.89 -0.63,-3.045 -3.045,-3.045Z" style="fill:#fff;fill-rule:nonzero;"/><path d="M958.81,173.733l-33.495,0l0,-13.86l28.14,0c2.415,0 3.045,-1.155 3.045,-3.045l0,-8.19c0,-1.89 -0.63,-3.045 -3.045,-3.045l-28.14,0l0,-11.445l31.71,0c2.415,0 3.045,-1.155 3.045,-3.045l0,-8.715c0,-1.89 -0.63,-3.045 -3.045,-3.045l-45.255,0c-2.415,0 -3.045,1.155 -3.045,3.045l0,63c0,1.89 0.63,3.045 3.045,3.045l47.04,0c2.415,0 3.045,-1.155 3.045,-3.045l0,-8.61c0,-1.89 -0.63,-3.045 -3.045,-3.045Z" style="fill:#fff;fill-rule:nonzero;"/><path d="M1004.59,148.323c-4.2,-1.68 -19.635,-3.99 -19.635,-10.395c0,-4.725 5.775,-6.09 9.24,-6.09c3.15,0 6.93,0.945 8.925,2.835c1.26,1.26 1.785,2.1 2.205,3.15c0.525,1.365 0.84,2.835 2.835,2.835l10.29,0c2.415,0 3.045,-0.42 3.045,-2.94c0,-13.86 -14.595,-19.95 -27.93,-19.95c-13.125,0.525 -25.515,7.245 -25.515,20.895c0,13.335 9.765,17.535 20.37,20.895c8.925,2.835 18.27,2.94 18.27,8.82c0,5.88 -4.62,7.14 -10.29,7.14c-3.885,0 -8.19,-0.945 -10.29,-3.465c-1.365,-1.575 -1.89,-2.94 -1.995,-4.305c-0.21,-2.625 -1.365,-2.94 -3.78,-2.94l-10.185,0c-2.415,0 -3.045,0.525 -3.045,2.94c0,14.7 15.12,22.26 28.245,22.26c16.17,0 27.93,-7.14 27.93,-22.05c0,-14.28 -11.13,-17.325 -18.69,-19.635Z" style="fill:#fff;fill-rule:nonzero;"/><g transform="matrix(1,0,0,1,-2207,-2093.43)"><path d="M2332.54,2367.02l-15.768,0c-1.656,0 -2.088,0.792 -2.088,2.088l0,5.616c0,1.296 0.432,2.088 2.088,2.088l6.48,0c0,5.544 -3.312,7.704 -7.992,7.704c-4.752,0 -7.92,-2.664 -7.92,-7.272l0,-14.472c0,-4.608 3.168,-7.776 7.92,-7.776c4.824,0 7.416,2.16 8.208,4.392c0.36,1.008 0.072,2.448 2.088,2.448l6.984,0c1.656,0 2.088,-0.288 2.088,-2.016c0,-9.648 -10.368,-14.832 -19.368,-14.832c-8.496,0 -19.368,4.824 -19.368,16.2l0,17.712c0,11.304 10.872,15.624 19.368,15.624c8.208,0 18.72,-4.608 19.368,-14.976l0,-10.44c0,-1.296 -0.432,-2.088 -2.088,-2.088Z" style="fill:#d35b5b;fill-rule:nonzero;"/><path d="M2382.65,2391.14l-10.152,-14.76c4.464,-1.512 10.008,-6.768 10.008,-14.328c0,-4.608 -1.512,-8.712 -4.176,-11.304c-3.024,-3.024 -6.48,-4.608 -14.328,-4.608l-18.144,0c-1.656,0 -2.016,0.792 -2.016,2.088l0,43.128c0,1.656 0.72,2.088 2.016,2.088l7.128,0c1.296,0 2.088,-0.432 2.088,-2.088l0,-35.136l9.576,0c3.744,0 6.624,2.376 6.624,6.12c0,3.384 -3.312,5.832 -6.84,5.832l-1.44,0c-1.656,0 -2.088,0.792 -2.088,2.088l0,5.76c0,2.016 0.144,2.808 0.792,3.672l7.776,11.592c1.008,1.512 1.872,2.16 3.6,2.16l8.496,0c1.368,0 1.728,-1.296 1.08,-2.304Z" style="fill:#d35b5b;fill-rule:nonzero;"/><path d="M2432.54,2391.43l-15.912,-43.128c-0.648,-1.512 -1.368,-2.232 -2.952,-2.232l-6.912,0c-1.584,0 -2.376,0.72 -2.952,2.232l-15.984,43.128c-0.36,0.864 -0.36,2.016 1.224,2.016l7.56,0c1.584,0 2.16,-0.432 2.736,-2.16l2.016,-5.688l17.64,0l2.016,5.688c0.576,1.728 1.152,2.16 2.736,2.16l7.56,0c1.584,0 1.584,-1.152 1.224,-2.016Zm-27.72,-15.912l5.4,-15.912l5.4,15.912l-10.8,0Z" style="fill:#d35b5b;fill-rule:nonzero;"/><path d="M2467.97,2346.07l-33.408,0c-1.656,0 -2.088,0.792 -2.088,2.088l0,5.976c0,1.296 0.432,2.088 2.088,2.088l11.088,0l0,35.136c0,1.656 0.792,2.088 2.088,2.088l7.128,0c1.296,0 2.088,-0.432 2.088,-2.088l0,-35.136l11.016,0c1.656,0 2.088,-0.792 2.088,-2.088l0,-5.976c0,-1.296 -0.432,-2.088 -2.088,-2.088Z" style="fill:#d35b5b;fill-rule:nonzero;"/><path d="M2512.68,2346.07l-7.128,0c-1.296,0 -2.088,0.432 -2.088,2.088l0,29.232c0,4.536 -3.024,7.128 -7.776,7.128c-4.752,0 -7.704,-2.592 -7.704,-7.128l0,-29.232c0,-1.656 -0.792,-2.088 -2.088,-2.088l-7.128,0c-1.296,0 -2.088,0.432 -2.088,2.088l0,30.816c0,11.304 10.44,15.552 19.008,15.552c8.568,0 19.08,-4.248 19.08,-15.552l0,-30.816c0,-1.656 -0.792,-2.088 -2.088,-2.088Z" style="fill:#d35b5b;fill-rule:nonzero;"/><path d="M2545.44,2383.58l-4.536,0l0,-27.504l4.32,0c1.656,0 2.088,-0.792 2.088,-2.088l0,-5.832c0,-1.296 -0.432,-2.088 -2.088,-2.088l-20.016,0c-1.656,0 -2.088,0.792 -2.088,2.088l0,5.832c0,1.296 0.432,2.088 2.088,2.088l4.392,0l0,27.504l-4.536,0c-1.656,0 -2.088,0.792 -2.088,2.088l0,5.688c0,1.296 0.432,2.088 2.088,2.088l20.376,0c1.656,0 2.088,-0.792 2.088,-2.088l0,-5.688c0,-1.296 -0.432,-2.088 -2.088,-2.088Z" style="fill:#d35b5b;fill-rule:nonzero;"/><path d="M2588.86,2346.07l-33.408,0c-1.656,0 -2.088,0.792 -2.088,2.088l0,5.976c0,1.296 0.432,2.088 2.088,2.088l11.088,0l0,35.136c0,1.656 0.792,2.088 2.088,2.088l7.128,0c1.296,0 2.088,-0.432 2.088,-2.088l0,-35.136l11.016,0c1.656,0 2.088,-0.792 2.088,-2.088l0,-5.976c0,-1.296 -0.432,-2.088 -2.088,-2.088Z" style="fill:#d35b5b;fill-rule:nonzero;"/><path d="M2632.49,2383.37l-22.968,0l0,-9.504l19.296,0c1.656,0 2.088,-0.792 2.088,-2.088l0,-5.616c0,-1.296 -0.432,-2.088 -2.088,-2.088l-19.296,0l0,-7.848l21.744,0c1.656,0 2.088,-0.792 2.088,-2.088l0,-5.976c0,-1.296 -0.432,-2.088 -2.088,-2.088l-31.032,0c-1.656,0 -2.088,0.792 -2.088,2.088l0,43.2c0,1.296 0.432,2.088 2.088,2.088l32.256,0c1.656,0 2.088,-0.792 2.088,-2.088l0,-5.904c0,-1.296 -0.432,-2.088 -2.088,-2.088Z" style="fill:#d35b5b;fill-rule:nonzero;"/><path d="M2666.33,2365.94c-2.88,-1.152 -13.464,-2.736 -13.464,-7.128c0,-3.24 3.96,-4.176 6.336,-4.176c2.16,0 4.752,0.648 6.12,1.944c0.864,0.864 1.224,1.44 1.512,2.16c0.36,0.936 0.576,1.944 1.944,1.944l7.056,0c1.656,0 2.088,-0.288 2.088,-2.016c0,-9.504 -10.008,-13.68 -19.152,-13.68c-9,0.36 -17.496,4.968 -17.496,14.328c0,9.144 6.696,12.024 13.968,14.328c6.12,1.944 12.528,2.016 12.528,6.048c0,4.032 -3.168,4.896 -7.056,4.896c-2.664,0 -5.616,-0.648 -7.056,-2.376c-0.936,-1.08 -1.296,-2.016 -1.368,-2.952c-0.144,-1.8 -0.936,-2.016 -2.592,-2.016l-6.984,0c-1.656,0 -2.088,0.36 -2.088,2.016c0,10.08 10.368,15.264 19.368,15.264c11.088,0 19.152,-4.896 19.152,-15.12c0,-9.792 -7.632,-11.88 -12.816,-13.464Z" style="fill:#d35b5b;fill-rule:nonzero;"/><path d="M2741.42,2383.37l-22.968,0l0,-9.504l19.296,0c1.656,0 2.088,-0.792 2.088,-2.088l0,-5.616c0,-1.296 -0.432,-2.088 -2.088,-2.088l-19.296,0l0,-7.848l21.744,0c1.656,0 2.088,-0.792 2.088,-2.088l0,-5.976c0,-1.296 -0.432,-2.088 -2.088,-2.088l-31.032,0c-1.656,0 -2.088,0.792 -2.088,2.088l0,43.2c0,1.296 0.432,2.088 2.088,2.088l32.256,0c1.656,0 2.088,-0.792 2.088,-2.088l0,-5.904c0,-1.296 -0.432,-2.088 -2.088,-2.088Z" style="fill:#d35b5b;fill-rule:nonzero;"/><path d="M2784.26,2346.07l-33.408,0c-1.656,0 -2.088,0.792 -2.088,2.088l0,5.976c0,1.296 0.432,2.088 2.088,2.088l11.088,0l0,35.136c0,1.656 0.792,2.088 2.088,2.088l7.128,0c1.296,0 2.088,-0.432 2.088,-2.088l0,-35.136l11.016,0c1.656,0 2.088,-0.792 2.088,-2.088l0,-5.976c0,-1.296 -0.432,-2.088 -2.088,-2.088Z" style="fill:#d35b5b;fill-rule:nonzero;"/><path d="M2329.37,2467.37l-20.736,0l0,-35.208c0,-1.656 -0.792,-2.088 -2.088,-2.088l-7.128,0c-1.296,0 -2.088,0.432 -2.088,2.088l0,43.2c0,1.296 0.432,2.088 2.088,2.088l29.952,0c1.656,0 2.088,-0.792 2.088,-2.088l0,-5.904c0,-1.296 -0.432,-2.088 -2.088,-2.088Z" style="fill:#d35b5b;fill-rule:nonzero;"/><path d="M2359.82,2467.58l-4.536,0l0,-27.504l4.32,0c1.656,0 2.088,-0.792 2.088,-2.088l0,-5.832c0,-1.296 -0.432,-2.088 -2.088,-2.088l-20.016,0c-1.656,0 -2.088,0.792 -2.088,2.088l0,5.832c0,1.296 0.432,2.088 2.088,2.088l4.392,0l0,27.504l-4.536,0c-1.656,0 -2.088,0.792 -2.088,2.088l0,5.688c0,1.296 0.432,2.088 2.088,2.088l20.376,0c1.656,0 2.088,-0.792 2.088,-2.088l0,-5.688c0,-1.296 -0.432,-2.088 -2.088,-2.088Z" style="fill:#d35b5b;fill-rule:nonzero;"/><path d="M2404.97,2452.9c0.648,-0.288 5.256,-2.592 5.256,-9.864c0,-6.768 -5.04,-13.032 -16.776,-13.032l-20.16,0c-1.656,0 -2.088,0.792 -2.088,2.088l0,43.272c0,1.296 0.432,2.088 2.088,2.088l21.168,0c10.008,0 17.136,-4.68 17.136,-13.824c0,-7.776 -6.048,-10.512 -6.624,-10.728Zm-10.368,14.328l-12.096,0l0,-27.072l10.944,0c3.744,0 5.976,0.792 5.976,4.032c0,2.808 -1.8,4.32 -5.976,4.32l-0.936,0c-1.656,0 -2.088,0.792 -2.088,2.088l0,5.472c0,1.296 0.432,2.088 2.088,2.088l1.656,0c3.456,0 5.976,1.008 5.976,4.392c0,3.24 -2.016,4.68 -5.544,4.68Z" style="fill:#d35b5b;fill-rule:nonzero;"/><path d="M2459.47,2475.14l-10.152,-14.76c4.464,-1.512 10.008,-6.768 10.008,-14.328c0,-4.608 -1.512,-8.712 -4.176,-11.304c-3.024,-3.024 -6.48,-4.608 -14.328,-4.608l-18.144,0c-1.656,0 -2.016,0.792 -2.016,2.088l0,43.128c0,1.656 0.72,2.088 2.016,2.088l7.128,0c1.296,0 2.088,-0.432 2.088,-2.088l0,-35.136l9.576,0c3.744,0 6.624,2.376 6.624,6.12c0,3.384 -3.312,5.832 -6.84,5.832l-1.44,0c-1.656,0 -2.088,0.792 -2.088,2.088l0,5.76c0,2.016 0.144,2.808 0.792,3.672l7.776,11.592c1.008,1.512 1.872,2.16 3.6,2.16l8.496,0c1.368,0 1.728,-1.296 1.08,-2.304Z" style="fill:#d35b5b;fill-rule:nonzero;"/><path d="M2502.96,2467.37l-22.968,0l0,-9.504l19.296,0c1.656,0 2.088,-0.792 2.088,-2.088l0,-5.616c0,-1.296 -0.432,-2.088 -2.088,-2.088l-19.296,0l0,-7.848l21.744,0c1.656,0 2.088,-0.792 2.088,-2.088l0,-5.976c0,-1.296 -0.432,-2.088 -2.088,-2.088l-31.032,0c-1.656,0 -2.088,0.792 -2.088,2.088l0,43.2c0,1.296 0.432,2.088 2.088,2.088l32.256,0c1.656,0 2.088,-0.792 2.088,-2.088l0,-5.904c0,-1.296 -0.432,-2.088 -2.088,-2.088Z" style="fill:#d35b5b;fill-rule:nonzero;"/><path d="M2536.8,2449.94c-2.88,-1.152 -13.464,-2.736 -13.464,-7.128c0,-3.24 3.96,-4.176 6.336,-4.176c2.16,0 4.752,0.648 6.12,1.944c0.864,0.864 1.224,1.44 1.512,2.16c0.36,0.936 0.576,1.944 1.944,1.944l7.056,0c1.656,0 2.088,-0.288 2.088,-2.016c0,-9.504 -10.008,-13.68 -19.152,-13.68c-9,0.36 -17.496,4.968 -17.496,14.328c0,9.144 6.696,12.024 13.968,14.328c6.12,1.944 12.528,2.016 12.528,6.048c0,4.032 -3.168,4.896 -7.056,4.896c-2.664,0 -5.616,-0.648 -7.056,-2.376c-0.936,-1.08 -1.296,-2.016 -1.368,-2.952c-0.144,-1.8 -0.936,-2.016 -2.592,-2.016l-6.984,0c-1.656,0 -2.088,0.36 -2.088,2.016c0,10.08 10.368,15.264 19.368,15.264c11.088,0 19.152,-4.896 19.152,-15.12c0,-9.792 -7.632,-11.88 -12.816,-13.464Z" style="fill:#d35b5b;fill-rule:nonzero;"/><path d="M2315.54,2514.07l-16.128,0c-1.656,0 -2.088,0.792 -2.088,2.088l0,43.2c0,1.296 0.432,2.088 2.088,2.088l16.128,0c8.568,0 19.368,-4.896 19.368,-16.2l0,-14.976c0,-11.232 -10.8,-16.2 -19.368,-16.2Zm8.064,30.168c0,4.608 -3.312,7.2 -8.064,7.2l-6.912,0l0,-27.36l6.912,0c4.752,0 8.064,2.664 8.064,7.2l0,12.96Z" style="fill:#d35b5b;fill-rule:nonzero;"/><path d="M2378.47,2551.37l-22.968,0l0,-9.504l19.296,0c1.656,0 2.088,-0.792 2.088,-2.088l0,-5.616c0,-1.296 -0.432,-2.088 -2.088,-2.088l-19.296,0l0,-7.848l21.744,0c1.656,0 2.088,-0.792 2.088,-2.088l0,-5.976c0,-1.296 -0.432,-2.088 -2.088,-2.088l-31.032,0c-1.656,0 -2.088,0.792 -2.088,2.088l0,43.2c0,1.296 0.432,2.088 2.088,2.088l32.256,0c1.656,0 2.088,-0.792 2.088,-2.088l0,-5.904c0,-1.296 -0.432,-2.088 -2.088,-2.088Z" style="fill:#d35b5b;fill-rule:nonzero;"/><path d="M2427,2514.07l-16.128,0c-1.656,0 -2.088,0.792 -2.088,2.088l0,43.2c0,1.296 0.432,2.088 2.088,2.088l16.128,0c8.568,0 19.368,-4.896 19.368,-16.2l0,-14.976c0,-11.232 -10.8,-16.2 -19.368,-16.2Zm8.064,30.168c0,4.608 -3.312,7.2 -8.064,7.2l-6.912,0l0,-27.36l6.912,0c4.752,0 8.064,2.664 8.064,7.2l0,12.96Z" style="fill:#d35b5b;fill-rule:nonzero;"/><path d="M2494.39,2559.14l-10.152,-14.76c4.464,-1.512 10.008,-6.768 10.008,-14.328c0,-4.608 -1.512,-8.712 -4.176,-11.304c-3.024,-3.024 -6.48,-4.608 -14.328,-4.608l-18.144,0c-1.656,0 -2.016,0.792 -2.016,2.088l0,43.128c0,1.656 0.72,2.088 2.016,2.088l7.128,0c1.296,0 2.088,-0.432 2.088,-2.088l0,-35.136l9.576,0c3.744,0 6.624,2.376 6.624,6.12c0,3.384 -3.312,5.832 -6.84,5.832l-1.44,0c-1.656,0 -2.088,0.792 -2.088,2.088l0,5.76c0,2.016 0.144,2.808 0.792,3.672l7.776,11.592c1.008,1.512 1.872,2.16 3.6,2.16l8.496,0c1.368,0 1.728,-1.296 1.08,-2.304Z" style="fill:#d35b5b;fill-rule:nonzero;"/><path d="M2540.76,2529.26c0,-11.376 -10.8,-16.272 -19.368,-16.272c-8.568,0 -19.224,4.896 -19.224,16.272l0,16.992c0,11.376 10.656,16.272 19.224,16.272c8.568,0 19.368,-4.896 19.368,-16.272l0,-16.992Zm-11.304,15.984c0,4.608 -3.312,7.272 -8.064,7.272c-4.68,0 -7.992,-2.664 -7.992,-7.272l0,-14.976c0,-4.608 3.312,-7.272 7.992,-7.272c4.752,0 8.064,2.664 8.064,7.272l0,14.976Z" style="fill:#d35b5b;fill-rule:nonzero;"/><path d="M2570.57,2551.58l-4.536,0l0,-27.504l4.32,0c1.656,0 2.088,-0.792 2.088,-2.088l0,-5.832c0,-1.296 -0.432,-2.088 -2.088,-2.088l-20.016,0c-1.656,0 -2.088,0.792 -2.088,2.088l0,5.832c0,1.296 0.432,2.088 2.088,2.088l4.392,0l0,27.504l-4.536,0c-1.656,0 -2.088,0.792 -2.088,2.088l0,5.688c0,1.296 0.432,2.088 2.088,2.088l20.376,0c1.656,0 2.088,-0.792 2.088,-2.088l0,-5.688c0,-1.296 -0.432,-2.088 -2.088,-2.088Z" style="fill:#d35b5b;fill-rule:nonzero;"/><path d="M2613.98,2514.07l-33.408,0c-1.656,0 -2.088,0.792 -2.088,2.088l0,5.976c0,1.296 0.432,2.088 2.088,2.088l11.088,0l0,35.136c0,1.656 0.792,2.088 2.088,2.088l7.128,0c1.296,0 2.088,-0.432 2.088,-2.088l0,-35.136l11.016,0c1.656,0 2.088,-0.792 2.088,-2.088l0,-5.976c0,-1.296 -0.432,-2.088 -2.088,-2.088Z" style="fill:#d35b5b;fill-rule:nonzero;"/><path d="M2645.59,2533.94c-2.88,-1.152 -13.464,-2.736 -13.464,-7.128c0,-3.24 3.96,-4.176 6.336,-4.176c2.16,0 4.752,0.648 6.12,1.944c0.864,0.864 1.224,1.44 1.512,2.16c0.36,0.936 0.576,1.944 1.944,1.944l7.056,0c1.656,0 2.088,-0.288 2.088,-2.016c0,-9.504 -10.008,-13.68 -19.152,-13.68c-9,0.36 -17.496,4.968 -17.496,14.328c0,9.144 6.696,12.024 13.968,14.328c6.12,1.944 12.528,2.016 12.528,6.048c0,4.032 -3.168,4.896 -7.056,4.896c-2.664,0 -5.616,-0.648 -7.056,-2.376c-0.936,-1.08 -1.296,-2.016 -1.368,-2.952c-0.144,-1.8 -0.936,-2.016 -2.592,-2.016l-6.984,0c-1.656,0 -2.088,0.36 -2.088,2.016c0,10.08 10.368,15.264 19.368,15.264c11.088,0 19.152,-4.896 19.152,-15.12c0,-9.792 -7.632,-11.88 -12.816,-13.464Z" style="fill:#d35b5b;fill-rule:nonzero;"/></g><path d="M1063.98,531.841c10.596,-25.235 16.471,-52.919 16.471,-81.964c0,-117.701 -96.081,-213.111 -214.601,-213.111c-118.52,0 -214.6,95.41 -214.6,213.111c0,29.045 5.874,56.729 16.477,81.964l396.253,0Z" style="fill:#def8fc;fill-rule:nonzero;"/><path d="M1022.88,531.841c12.99,-24.498 20.427,-52.356 20.427,-81.964c0,-97.328 -79.449,-176.227 -177.454,-176.227c-98.005,0 -177.461,78.899 -177.461,176.227c0,29.608 7.437,57.466 20.434,81.964l314.054,0Z" style="fill:#c1f3f8;fill-rule:nonzero;"/><path d="M691.49,531.841l-13.412,0" style="fill:none;stroke:#504b46;stroke-width:1px;"/><path d="M1053.63,531.841l-13.412,0" style="fill:none;stroke:#504b46;stroke-width:1px;"/><path d="M704.903,531.841l321.9,0" style="fill:none;stroke:#504b46;stroke-width:1px;"/><path d="M979.873,541.901c-0.798,0 -1.61,-0.074 -2.421,-0.215l-29.722,-5.439c-0.624,-0.114 -1.234,-0.275 -1.838,-0.469c-19.797,-6.593 -33.095,-25.048 -33.095,-45.931l0,-18.362c0,-7.397 6.015,-13.413 13.412,-13.413c7.391,0 13.413,6.016 13.413,13.413l0,18.362c0,9.06 5.713,17.215 14.224,20.299l28.421,5.144c3.534,0.651 6.592,2.629 8.624,5.573c2.039,2.951 2.803,6.512 2.166,10.033c-1.173,6.384 -6.713,11.005 -13.184,11.005" style="fill:#b78b7c;fill-rule:nonzero;"/><path d="M979.873,541.901c-0.798,0 -1.61,-0.074 -2.421,-0.215l-29.722,-5.439c-0.624,-0.114 -1.234,-0.275 -1.838,-0.469c-19.797,-6.593 -33.095,-25.048 -33.095,-45.931l0,-18.362c0,-7.397 6.015,-13.413 13.412,-13.413c7.391,0 13.413,6.016 13.413,13.413l0,18.362c0,9.06 5.713,17.215 14.224,20.299l28.421,5.144c3.534,0.651 6.592,2.629 8.624,5.573c2.039,2.951 2.803,6.512 2.166,10.033c-1.173,6.384 -6.713,11.005 -13.184,11.005Z" style="fill:none;stroke:#504a45;stroke-width:1px;stroke-linecap:butt;"/><path d="M805.497,484.897l0,46.944l107.3,0l0,-46.944l33.531,0l0,-3.353c0,-37.038 -30.024,-67.062 -67.063,-67.062l-40.237,0c-37.039,0 -67.063,30.024 -67.063,67.062l0,3.353l33.532,0Z" style="fill:#99d56a;fill-rule:nonzero;"/><path d="M946.328,481.544c0,-37.038 -30.024,-67.062 -67.063,-67.062l-40.237,0c-37.039,0 -67.063,30.024 -67.063,67.062l0,6.706c0,-37.038 30.024,-46.943 67.063,-46.943l40.237,0c37.039,0 67.063,9.905 67.063,46.943l0,-6.706Z" style="fill:#b3e090;fill-rule:nonzero;"/><path d="M859.147,454.719c18.516,0 33.531,-15.015 33.531,-33.531l0,-5.358c-4.332,-0.879 -8.819,-1.348 -13.413,-1.348l-40.237,0c-4.594,0 -9.08,0.469 -13.413,1.348l0,5.358c0,18.516 15.016,33.531 33.532,33.531" style="fill:#ffe086;fill-rule:nonzero;"/><path d="M892.678,417.835l0,3.353c0,18.516 -15.015,33.531 -33.531,33.531c-18.516,0 -33.532,-15.015 -33.532,-33.531l0,-3.353" style="fill:none;stroke:#504b46;stroke-width:1px;stroke-linejoin:round;"/><path d="M912.797,468.132l0,-3.353" style="fill:none;stroke:#504b46;stroke-width:1px;stroke-linejoin:round;"/><path d="M805.497,478.191l0,53.65l107.3,0l0,-53.65" style="fill:none;stroke:#504b46;stroke-width:1px;stroke-linejoin:round;"/><path d="M912.797,484.897l33.531,0l0,-3.353c0,-37.038 -30.024,-67.062 -67.063,-67.062l-40.237,0c-37.039,0 -67.063,30.024 -67.063,67.062l0,3.353l33.532,0" style="fill:none;stroke:#504b46;stroke-width:1px;stroke-linejoin:round;"/><path d="M805.497,491.604l0,-6.707" style="fill:#edf2f4;fill-rule:nonzero;stroke:#504b46;stroke-width:1px;stroke-linejoin:round;"/><path d="M879.265,420.48c0,6.726 -3.359,13.01 -8.959,16.739c-6.76,4.506 -15.559,4.506 -22.319,0c-5.599,-3.729 -8.959,-10.013 -8.959,-16.739l0,-29.468l40.237,0l0,29.468Z" style="fill:#b78b7c;fill-rule:nonzero;stroke:#504b46;stroke-width:1px;stroke-linejoin:round;"/><path d="M839.028,413.763c0.509,0.228 0.986,0.483 1.515,0.69c11.267,4.507 25.94,4.507 37.2,0c0.537,-0.207 1.013,-0.462 1.522,-0.69l0,-22.755l-40.237,0l0,22.755Z" style="fill:#a56f5b;fill-rule:nonzero;"/><path d="M879.265,420.48c0,6.726 -3.359,13.01 -8.959,16.739c-6.76,4.506 -15.559,4.506 -22.319,0c-5.599,-3.729 -8.959,-10.013 -8.959,-16.739l0,-29.468l40.237,0l0,29.468Z" style="fill:none;stroke:#504b46;stroke-width:1px;stroke-linejoin:round;"/><path d="M805.497,468.132l0,-3.353" style="fill:none;stroke:#504b46;stroke-width:1px;stroke-linejoin:round;"/><rect x="778.671" y="484.897" width="26.825" height="46.944" style="fill:#b78b7c;fill-rule:nonzero;stroke:#504b46;stroke-width:1px;stroke-linejoin:round;"/><path d="M1006.68,541.901c0,3.701 -3.004,6.706 -6.706,6.706l-26.825,0c-3.702,0 -6.706,-3.005 -6.706,-6.706l0,-60.357c0,-3.702 3.004,-6.706 6.706,-6.706l26.825,0c3.702,0 6.706,3.004 6.706,6.706l0,60.357Z" style="fill:#e3ecf0;fill-rule:nonzero;stroke:#504b46;stroke-width:1px;stroke-linejoin:round;"/><path d="M983.212,488.25c0,1.851 -1.502,3.354 -3.353,3.354c-1.851,0 -3.353,-1.503 -3.353,-3.354c0,-1.85 1.502,-3.353 3.353,-3.353c1.851,0 3.353,1.503 3.353,3.353" style="fill:#504b46;fill-rule:nonzero;"/><path d="M1012.87,538.547l-20.267,0c-8.892,0 -16.095,-7.209 -16.095,-16.095l0,-8.047c0,-8.893 7.203,-16.095 16.095,-16.095l20.267,0c5.163,12.916 5.163,27.321 0,40.237" style="fill:#b78b7c;fill-rule:nonzero;"/><path d="M983.212,532.512l0,-8.048c0,-8.886 7.203,-16.095 16.095,-16.095l16.484,0c-0.643,-3.413 -1.616,-6.786 -2.923,-10.059l-20.267,0c-8.892,0 -16.095,7.209 -16.095,16.095l0,8.047c0,5.526 2.79,10.395 7.035,13.292c-0.215,-1.046 -0.329,-2.126 -0.329,-3.232" style="fill:#cca196;fill-rule:nonzero;"/><path d="M1014.54,533.734c-0.839,2.851 -3.461,4.815 -6.432,4.815l-15.504,0c-8.886,0 -16.095,-7.209 -16.095,-16.095l0,-8.047c0,-8.893 7.209,-16.095 16.095,-16.095l15.504,0c2.978,0 5.593,1.958 6.432,4.808c2.944,9.993 2.944,20.622 0,30.614Z" style="fill:none;stroke:#504b46;stroke-width:1px;stroke-linejoin:round;"/><path d="M1130.75,396.223c0,8.571 -6.947,15.518 -15.518,15.518l-52.309,0l-42.685,38.803l0.006,-38.803l-34.926,0c-8.57,0 -15.518,-6.947 -15.518,-15.518l0,-100.346c0,-8.57 6.948,-15.518 15.518,-15.518l129.914,0c8.571,0 15.518,6.948 15.518,15.518l0,100.346Z" style="fill:#fff;fill-rule:nonzero;stroke:#504b46;stroke-width:1px;stroke-linecap:butt;stroke-linejoin:round;"/><path d="M1052.42,390.763c0,0 45.422,-20.689 45.422,-53.952c0,-33.276 -40.298,-35.838 -45.422,-2.562c-5.124,-33.283 -45.421,-30.721 -45.421,5.117c0,35.832 45.421,51.397 45.421,51.397" style="fill:#e05c4a;fill-rule:nonzero;"/><path d="M1038.92,327.639c4.822,0 9.369,1.093 13.5,2.951c-8.343,-27.61 -44.201,-23.459 -44.201,10.361c0,2.233 0.181,4.392 0.509,6.465c5.097,-11.629 16.679,-19.777 30.192,-19.777" style="fill:#e88074;fill-rule:nonzero;"/><path d="M1065.92,327.639c-4.821,0 -9.368,1.093 -13.499,2.951c8.342,-27.61 44.201,-23.459 44.201,10.361c0,2.233 -0.181,4.392 -0.51,6.465c-5.097,-11.629 -16.678,-19.777 -30.192,-19.777" style="fill:#e88074;fill-rule:nonzero;"/><path d="M1052.42,390.763c0,0 45.422,-20.689 45.422,-53.952c0,-33.276 -40.298,-35.838 -45.422,-2.562c-5.124,-33.283 -45.421,-30.721 -45.421,5.117c0,35.832 45.421,51.397 45.421,51.397Z" style="fill:none;stroke:#504b46;stroke-width:1px;stroke-linecap:butt;stroke-linejoin:round;"/><path d="M922.856,337.368c0,-6.244 -4.285,-11.441 -10.059,-12.937l0,-3.829c0,-29.628 -24.022,-53.65 -53.65,-53.65c-29.629,0 -53.65,24.022 -53.65,53.65l0,3.829c-5.775,1.496 -10.06,6.693 -10.06,12.937c0,6.297 4.352,11.541 10.207,12.983c1.529,28.26 24.86,50.726 53.503,50.726c28.642,0 51.973,-22.466 53.502,-50.726c5.848,-1.442 10.207,-6.686 10.207,-12.983" style="fill:#b78b7c;fill-rule:nonzero;"/><path d="M922.856,337.368c0,-6.244 -4.285,-11.441 -10.059,-12.937l0,-3.829c0,-29.628 -24.022,-53.65 -53.65,-53.65c-29.629,0 -53.65,24.022 -53.65,53.65l0,3.829c-5.775,1.496 -10.06,6.693 -10.06,12.937c0,6.297 4.352,11.541 10.207,12.983c1.529,28.26 24.86,50.726 53.503,50.726c28.642,0 51.973,-22.466 53.502,-50.726c5.848,-1.442 10.207,-6.686 10.207,-12.983Z" style="fill:none;stroke:#504b46;stroke-width:1px;stroke-linejoin:round;"/><path d="M891.672,288.525l0,9.054c0,7.497 6.921,13.58 14.418,13.58l0,13.58c0,5.003 4.051,9.054 9.054,9.054l11.065,0l0,-39.52c0,-15.002 -10.676,-28.381 -25.678,-28.381l0,1.026c0,-7.391 -5.989,-13.386 -13.386,-13.386l-61.677,0c-10.938,0 -19.804,8.866 -19.804,19.804l0,2.83c-7.497,0 -13.58,6.082 -13.58,13.58l0,44.047l13.58,0c4.996,0 9.892,-4.051 9.892,-9.054l0,-13.58c27.16,9.053 76.116,-4.527 76.116,-22.634" style="fill:#775750;fill-rule:nonzero;"/><path d="M892.678,287.063c-0.644,6.706 -4.238,24.095 13.412,24.095l0,13.58c0,5.003 4.051,9.054 9.054,9.054l11.065,0l0,-40.023c0,-15.002 -10.676,-27.878 -25.678,-27.878c0,6.706 1.918,-12.36 -13.386,-12.36l-61.677,0c-9.718,0 -19.804,6.371 -19.804,23.472c-7.497,0 -13.58,5.245 -13.58,12.742l0,44.047l13.58,0c4.996,0 9.892,-4.051 9.892,-9.054l0,-13.58c27.16,9.054 77.122,-5.988 77.122,-24.095Z" style="fill:none;stroke:#504b46;stroke-width:1px;stroke-linecap:butt;stroke-linejoin:round;"/><path d="M849.087,340.721c-2.072,-3.937 -5.707,-6.707 -10.059,-6.707c-4.353,0 -7.987,2.77 -10.06,6.707" style="fill:none;stroke:#504b46;stroke-width:1px;stroke-linejoin:round;"/><path d="M889.325,340.721c-2.072,-3.937 -5.707,-6.707 -10.06,-6.707c-4.352,0 -7.987,2.77 -10.059,6.707" style="fill:none;stroke:#504b46;stroke-width:1px;stroke-linejoin:round;"/><path d="M838.525,370.899c4.138,3.937 11.421,6.706 20.119,6.706c8.698,0 15.981,-2.769 20.118,-6.706" style="fill:none;stroke:#504b46;stroke-width:1px;stroke-linejoin:round;"/><path d="M832.322,360.84c0,3.701 -3.005,6.706 -6.707,6.706c-3.702,0 -6.706,-3.005 -6.706,-6.706c0,-3.702 3.004,-6.707 6.706,-6.707c3.702,0 6.707,3.005 6.707,6.707" style="fill:#a56f5b;fill-rule:nonzero;"/><path d="M899.384,360.84c0,3.701 -3.004,6.706 -6.706,6.706c-3.702,0 -6.706,-3.005 -6.706,-6.706c0,-3.702 3.004,-6.707 6.706,-6.707c3.702,0 6.706,3.005 6.706,6.707" style="fill:#a56f5b;fill-rule:nonzero;"/><path d="M857.47,273.658c28.783,0 54.066,8.477 68.739,21.279l0,-1.167c0,-15.002 -10.676,-27.878 -25.678,-27.878c0,0.168 0.007,0.248 0.007,0.383c-0.349,-3.179 -2.535,-12.742 -13.393,-12.742l-61.677,0c-9.718,0 -19.804,6.364 -19.804,23.472c-7.497,0 -13.58,5.237 -13.58,12.741l0,2.522c15.002,-11.287 38.668,-18.61 65.386,-18.61" style="fill:#87625d;fill-rule:nonzero;"/><path d="M892.678,287.063c-0.644,6.706 -4.238,24.095 13.412,24.095l0,13.58c0,5.003 4.051,9.054 9.054,9.054l11.065,0l0,-40.023c0,-15.002 -10.676,-27.878 -25.678,-27.878c0,6.706 1.918,-12.36 -13.386,-12.36l-61.677,0c-9.718,0 -19.804,6.371 -19.804,23.472c-7.497,0 -13.58,5.245 -13.58,12.742l0,44.047l13.58,0c4.996,0 9.892,-4.051 9.892,-9.054l0,-13.58c27.16,9.054 77.122,-5.988 77.122,-24.095Z" style="fill:none;stroke:#504b46;stroke-width:1px;stroke-linecap:butt;stroke-linejoin:round;"/></svg>