<?xml version="1.0" encoding="UTF-8" standalone="no"?><!DOCTYPE svg PUBLIC "-//W3C//DTD SVG 1.1//EN" "http://www.w3.org/Graphics/SVG/1.1/DTD/svg11.dtd"><svg width="100%" height="100%" viewBox="0 0 1500 416" version="1.1" xmlns="http://www.w3.org/2000/svg" xmlns:xlink="http://www.w3.org/1999/xlink" xml:space="preserve" style="fill-rule:evenodd;clip-rule:evenodd;stroke-linecap:round;stroke-miterlimit:10;"><rect id="Images-gratuites-et-libres-de-droit" x="0" y="0" width="1500" height="416" style="fill:none;"/><clipPath id="_clip1"><rect x="0" y="0" width="1500" height="416"/></clipPath><g clip-path="url(#_clip1)"><rect x="0" y="0.224" width="1500" height="416" style="fill:#f8d463;"/><path d="M1363.24,347.379c10.596,-25.236 16.471,-52.919 16.471,-81.964c0,-117.701 -96.081,-213.111 -214.601,-213.111c-118.519,0 -214.6,95.41 -214.6,213.111c0,29.045 5.875,56.728 16.477,81.964l396.253,0Z" style="fill:#def8fc;fill-rule:nonzero;"/><path d="M1322.14,347.379c12.99,-24.498 20.428,-52.356 20.428,-81.964c0,-97.328 -79.45,-176.227 -177.455,-176.227c-98.005,0 -177.461,78.899 -177.461,176.227c0,29.608 7.437,57.466 20.434,81.964l314.054,0Z" style="fill:#c1f3f8;fill-rule:nonzero;"/><path d="M990.752,347.379l-13.412,0" style="fill:none;stroke:#504b46;stroke-width:1px;"/><path d="M1352.89,347.379l-13.412,0" style="fill:none;stroke:#504b46;stroke-width:1px;"/><path d="M1004.17,347.379l321.9,0" style="fill:none;stroke:#504b46;stroke-width:1px;"/><path d="M1279.13,357.438c-0.798,0 -1.61,-0.073 -2.421,-0.214l-29.722,-5.439c-0.624,-0.114 -1.234,-0.275 -1.838,-0.469c-19.797,-6.593 -33.095,-25.048 -33.095,-45.932l0,-18.361c0,-7.397 6.015,-13.413 13.412,-13.413c7.391,0 13.413,6.016 13.413,13.413l0,18.361c0,9.061 5.714,17.215 14.224,20.3l28.421,5.144c3.534,0.65 6.592,2.629 8.624,5.573c2.039,2.951 2.804,6.512 2.167,10.032c-1.174,6.385 -6.713,11.005 -13.185,11.005" style="fill:#b78b7c;fill-rule:nonzero;"/><path d="M1279.13,357.438c-0.798,0 -1.61,-0.073 -2.421,-0.214l-29.722,-5.439c-0.624,-0.114 -1.234,-0.275 -1.838,-0.469c-19.797,-6.593 -33.095,-25.048 -33.095,-45.932l0,-18.361c0,-7.397 6.015,-13.413 13.412,-13.413c7.391,0 13.413,6.016 13.413,13.413l0,18.361c0,9.061 5.714,17.215 14.224,20.3l28.421,5.144c3.534,0.65 6.592,2.629 8.624,5.573c2.039,2.951 2.804,6.512 2.167,10.032c-1.174,6.385 -6.713,11.005 -13.185,11.005Z" style="fill:none;stroke:#504a45;stroke-width:1px;stroke-linecap:butt;"/><path d="M1104.76,300.435l0,46.944l107.3,0l0,-46.944l33.531,0l0,-3.353c0,-37.039 -30.024,-67.063 -67.062,-67.063l-40.238,0c-37.039,0 -67.063,30.024 -67.063,67.063l0,3.353l33.532,0Z" style="fill:#99d56a;fill-rule:nonzero;"/><path d="M1245.59,297.082c0,-37.039 -30.024,-67.063 -67.062,-67.063l-40.238,0c-37.039,0 -67.063,30.024 -67.063,67.063l0,6.706c0,-37.038 30.024,-46.944 67.063,-46.944l40.238,0c37.038,0 67.062,9.906 67.062,46.944l0,-6.706Z" style="fill:#b3e090;fill-rule:nonzero;"/><path d="M1158.41,270.257c18.516,0 33.531,-15.015 33.531,-33.531l0,-5.359c-4.332,-0.878 -8.819,-1.348 -13.412,-1.348l-40.238,0c-4.594,0 -9.08,0.47 -13.412,1.348l0,5.359c0,18.516 15.015,33.531 33.531,33.531" style="fill:#ffe086;fill-rule:nonzero;"/><path d="M1191.94,233.373l0,3.353c0,18.516 -15.015,33.531 -33.531,33.531c-18.516,0 -33.531,-15.015 -33.531,-33.531l0,-3.353" style="fill:none;stroke:#504b46;stroke-width:1px;stroke-linejoin:round;"/><path d="M1212.06,283.67l0,-3.354" style="fill:none;stroke:#504b46;stroke-width:1px;stroke-linejoin:round;"/><path d="M1104.76,293.729l0,53.65l107.3,0l0,-53.65" style="fill:none;stroke:#504b46;stroke-width:1px;stroke-linejoin:round;"/><path d="M1212.06,300.435l33.531,0l0,-3.353c0,-37.039 -30.024,-67.063 -67.062,-67.063l-40.238,0c-37.039,0 -67.063,30.024 -67.063,67.063l0,3.353l33.532,0" style="fill:none;stroke:#504b46;stroke-width:1px;stroke-linejoin:round;"/><path d="M1104.76,307.141l0,-6.706" style="fill:#edf2f4;fill-rule:nonzero;stroke:#504b46;stroke-width:1px;stroke-linejoin:round;"/><path d="M1178.53,236.018c0,6.726 -3.36,13.01 -8.96,16.738c-6.76,4.507 -15.558,4.507 -22.318,0c-5.6,-3.728 -8.96,-10.012 -8.96,-16.738l0,-29.468l40.238,0l0,29.468Z" style="fill:#b78b7c;fill-rule:nonzero;stroke:#504b46;stroke-width:1px;stroke-linejoin:round;"/><path d="M1138.29,229.301c0.51,0.228 0.986,0.482 1.516,0.69c11.266,4.507 25.94,4.507 37.199,0c0.537,-0.208 1.013,-0.462 1.523,-0.69l0,-22.755l-40.238,0l0,22.755Z" style="fill:#a56f5b;fill-rule:nonzero;"/><path d="M1178.53,236.018c0,6.726 -3.36,13.01 -8.96,16.738c-6.76,4.507 -15.558,4.507 -22.318,0c-5.6,-3.728 -8.96,-10.012 -8.96,-16.738l0,-29.468l40.238,0l0,29.468Z" style="fill:none;stroke:#504b46;stroke-width:1px;stroke-linejoin:round;"/><path d="M1104.76,283.67l0,-3.354" style="fill:none;stroke:#504b46;stroke-width:1px;stroke-linejoin:round;"/><rect x="1077.93" y="300.435" width="26.825" height="46.944" style="fill:#b78b7c;fill-rule:nonzero;stroke:#504b46;stroke-width:1px;stroke-linejoin:round;"/><path d="M1305.95,357.438c0,3.702 -3.005,6.707 -6.707,6.707l-26.825,0c-3.702,0 -6.706,-3.005 -6.706,-6.707l0,-60.356c0,-3.702 3.004,-6.706 6.706,-6.706l26.825,0c3.702,0 6.707,3.004 6.707,6.706l0,60.356Z" style="fill:#e3ecf0;fill-rule:nonzero;stroke:#504b46;stroke-width:1px;stroke-linejoin:round;"/><path d="M1282.48,303.788c0,1.851 -1.502,3.353 -3.353,3.353c-1.851,0 -3.354,-1.502 -3.354,-3.353c0,-1.851 1.503,-3.353 3.354,-3.353c1.851,0 3.353,1.502 3.353,3.353" style="fill:#504b46;fill-rule:nonzero;"/><path d="M1312.13,354.085l-20.267,0c-8.892,0 -16.095,-7.209 -16.095,-16.095l0,-8.047c0,-8.893 7.203,-16.095 16.095,-16.095l20.267,0c5.164,12.916 5.164,27.321 0,40.237" style="fill:#b78b7c;fill-rule:nonzero;"/><path d="M1282.48,348.05l0,-8.048c0,-8.886 7.202,-16.095 16.095,-16.095l16.484,0c-0.644,-3.413 -1.616,-6.787 -2.924,-10.059l-20.267,0c-8.892,0 -16.095,7.209 -16.095,16.095l0,8.047c0,5.526 2.79,10.395 7.035,13.292c-0.214,-1.046 -0.328,-2.126 -0.328,-3.232" style="fill:#cca196;fill-rule:nonzero;"/><path d="M1313.8,349.272c-0.838,2.85 -3.46,4.815 -6.431,4.815l-15.505,0c-8.886,0 -16.095,-7.209 -16.095,-16.095l0,-8.047c0,-8.893 7.209,-16.095 16.095,-16.095l15.505,0c2.977,0 5.593,1.958 6.431,4.808c2.944,9.992 2.944,20.622 0,30.614Z" style="fill:none;stroke:#504b46;stroke-width:1px;stroke-linejoin:round;"/><path d="M1430.01,211.761c0,8.571 -6.947,15.518 -15.518,15.518l-52.309,0l-42.685,38.803l0.007,-38.803l-34.927,0c-8.57,0 -15.518,-6.947 -15.518,-15.518l0,-100.346c0,-8.57 6.948,-15.518 15.518,-15.518l129.914,0c8.571,0 15.518,6.948 15.518,15.518l0,100.346Z" style="fill:#fff;fill-rule:nonzero;stroke:#504b46;stroke-width:1px;stroke-linecap:butt;stroke-linejoin:round;"/><path d="M1351.68,206.301c0,0 45.422,-20.689 45.422,-53.952c0,-33.277 -40.298,-35.838 -45.422,-2.562c-5.123,-33.283 -45.421,-30.721 -45.421,5.117c0,35.832 45.421,51.397 45.421,51.397" style="fill:#e05c4a;fill-rule:nonzero;"/><path d="M1338.18,143.177c4.822,0 9.369,1.093 13.5,2.95c-8.343,-27.609 -44.201,-23.458 -44.201,10.362c0,2.233 0.181,4.392 0.51,6.464c5.096,-11.628 16.678,-19.776 30.191,-19.776" style="fill:#e88074;fill-rule:nonzero;"/><path d="M1365.18,143.177c-4.822,0 -9.369,1.093 -13.5,2.95c8.343,-27.609 44.201,-23.458 44.201,10.362c0,2.233 -0.181,4.392 -0.51,6.464c-5.096,-11.628 -16.678,-19.776 -30.191,-19.776" style="fill:#e88074;fill-rule:nonzero;"/><path d="M1351.68,206.301c0,0 45.422,-20.689 45.422,-53.952c0,-33.277 -40.298,-35.838 -45.422,-2.562c-5.123,-33.283 -45.421,-30.721 -45.421,5.117c0,35.832 45.421,51.397 45.421,51.397Z" style="fill:none;stroke:#504b46;stroke-width:1px;stroke-linecap:butt;stroke-linejoin:round;"/><path d="M1222.12,152.905c0,-6.243 -4.285,-11.44 -10.059,-12.936l0,-3.829c0,-29.628 -24.022,-53.65 -53.65,-53.65c-29.628,0 -53.65,24.022 -53.65,53.65l0,3.829c-5.774,1.496 -10.06,6.693 -10.06,12.936c0,6.298 4.353,11.542 10.207,12.984c1.529,28.26 24.86,50.726 53.503,50.726c28.642,0 51.973,-22.466 53.502,-50.726c5.848,-1.442 10.207,-6.686 10.207,-12.984" style="fill:#b78b7c;fill-rule:nonzero;"/><path d="M1222.12,152.905c0,-6.243 -4.285,-11.44 -10.059,-12.936l0,-3.829c0,-29.628 -24.022,-53.65 -53.65,-53.65c-29.628,0 -53.65,24.022 -53.65,53.65l0,3.829c-5.774,1.496 -10.06,6.693 -10.06,12.936c0,6.298 4.353,11.542 10.207,12.984c1.529,28.26 24.86,50.726 53.503,50.726c28.642,0 51.973,-22.466 53.502,-50.726c5.848,-1.442 10.207,-6.686 10.207,-12.984Z" style="fill:none;stroke:#504b46;stroke-width:1px;stroke-linejoin:round;"/><path d="M1190.93,104.063l0,9.054c0,7.497 6.921,13.58 14.419,13.58l0,13.58c0,5.003 4.05,9.053 9.053,9.053l11.065,0l0,-39.52c0,-15.002 -10.676,-28.381 -25.678,-28.381l0,1.027c0,-7.391 -5.988,-13.386 -13.385,-13.386l-61.678,0c-10.938,0 -19.804,8.866 -19.804,19.803l0,2.83c-7.497,0 -13.58,6.083 -13.58,13.581l0,44.046l13.58,0c4.997,0 9.892,-4.05 9.892,-9.053l0,-13.58c27.161,9.053 76.116,-4.527 76.116,-22.634" style="fill:#775750;fill-rule:nonzero;"/><path d="M1191.94,102.6c-0.644,6.707 -4.238,24.096 13.413,24.096l0,13.58c0,5.003 4.05,9.054 9.053,9.054l11.065,0l0,-40.023c0,-15.002 -10.676,-27.878 -25.678,-27.878c0,6.706 1.918,-12.36 -13.385,-12.36l-61.678,0c-9.717,0 -19.804,6.371 -19.804,23.472c-7.497,0 -13.58,5.244 -13.58,12.742l0,44.047l13.58,0c4.997,0 9.892,-4.051 9.892,-9.054l0,-13.58c27.161,9.054 77.122,-5.989 77.122,-24.096Z" style="fill:none;stroke:#504b46;stroke-width:1px;stroke-linecap:butt;stroke-linejoin:round;"/><path d="M1148.35,156.259c-2.072,-3.937 -5.707,-6.707 -10.059,-6.707c-4.352,0 -7.987,2.77 -10.059,6.707" style="fill:none;stroke:#504b46;stroke-width:1px;stroke-linejoin:round;"/><path d="M1188.59,156.259c-2.072,-3.937 -5.707,-6.707 -10.059,-6.707c-4.353,0 -7.988,2.77 -10.06,6.707" style="fill:none;stroke:#504b46;stroke-width:1px;stroke-linejoin:round;"/><path d="M1137.79,186.437c4.138,3.936 11.421,6.706 20.119,6.706c8.698,0 15.981,-2.77 20.119,-6.706" style="fill:none;stroke:#504b46;stroke-width:1px;stroke-linejoin:round;"/><path d="M1131.58,176.377c0,3.702 -3.005,6.707 -6.706,6.707c-3.702,0 -6.707,-3.005 -6.707,-6.707c0,-3.701 3.005,-6.706 6.707,-6.706c3.701,0 6.706,3.005 6.706,6.706" style="fill:#a56f5b;fill-rule:nonzero;"/><path d="M1198.65,176.377c0,3.702 -3.004,6.707 -6.706,6.707c-3.702,0 -6.706,-3.005 -6.706,-6.707c0,-3.701 3.004,-6.706 6.706,-6.706c3.702,0 6.706,3.005 6.706,6.706" style="fill:#a56f5b;fill-rule:nonzero;"/><path d="M1156.73,89.196c28.784,0 54.066,8.477 68.739,21.279l0,-1.167c0,-15.002 -10.676,-27.878 -25.678,-27.878c0,0.168 0.007,0.248 0.007,0.382c-0.349,-3.178 -2.535,-12.741 -13.392,-12.741l-61.678,0c-9.717,0 -19.804,6.364 -19.804,23.471c-7.497,0 -13.58,5.238 -13.58,12.742l0,2.522c15.002,-11.287 38.669,-18.61 65.386,-18.61" style="fill:#87625d;fill-rule:nonzero;"/><path d="M1191.94,102.6c-0.644,6.707 -4.238,24.096 13.413,24.096l0,13.58c0,5.003 4.05,9.054 9.053,9.054l11.065,0l0,-40.023c0,-15.002 -10.676,-27.878 -25.678,-27.878c0,6.706 1.918,-12.36 -13.385,-12.36l-61.678,0c-9.717,0 -19.804,6.371 -19.804,23.472c-7.497,0 -13.58,5.244 -13.58,12.742l0,44.047l13.58,0c4.997,0 9.892,-4.051 9.892,-9.054l0,-13.58c27.161,9.054 77.122,-5.989 77.122,-24.096Z" style="fill:none;stroke:#504b46;stroke-width:1px;stroke-linecap:butt;stroke-linejoin:round;"/><path d="M103.636,129.251c0.864,-0.384 7.008,-3.456 7.008,-13.152c0,-9.024 -6.72,-17.376 -22.368,-17.376l-26.88,0c-2.208,0 -2.784,1.056 -2.784,2.784l0,57.696c0,1.728 0.576,2.784 2.784,2.784l28.224,0c13.344,0 22.848,-6.24 22.848,-18.432c0,-10.368 -8.064,-14.016 -8.832,-14.304Zm-13.824,19.104l-16.128,0l0,-36.096l14.592,0c4.992,0 7.968,1.056 7.968,5.376c0,3.744 -2.4,5.76 -7.968,5.76l-1.248,0c-2.208,0 -2.784,1.056 -2.784,2.784l0,7.296c0,1.728 0.576,2.784 2.784,2.784l2.208,0c4.608,0 7.968,1.344 7.968,5.856c0,4.32 -2.688,6.24 -7.392,6.24Z" style="fill:#fff;fill-rule:nonzero;"/><path d="M175.636,159.299l-21.216,-57.504c-0.864,-2.016 -1.824,-2.976 -3.936,-2.976l-9.216,0c-2.112,0 -3.168,0.96 -3.936,2.976l-21.312,57.504c-0.48,1.152 -0.48,2.688 1.632,2.688l10.08,0c2.112,0 2.88,-0.576 3.648,-2.88l2.688,-7.584l23.52,0l2.688,7.584c0.768,2.304 1.536,2.88 3.648,2.88l10.08,0c2.112,0 2.112,-1.536 1.632,-2.688Zm-36.96,-21.216l7.2,-21.216l7.2,21.216l-14.4,0Z" style="fill:#fff;fill-rule:nonzero;"/><path d="M229.396,98.819l-9.216,0c-1.728,0 -2.784,0.576 -2.784,2.784l0,33.312l-20.352,-32.832c-1.248,-1.92 -1.92,-3.264 -4.32,-3.264l-9.024,0c-2.208,0 -2.784,1.056 -2.784,2.784l0,57.6c0,2.208 1.056,2.784 2.784,2.784l9.504,0c1.728,0 2.784,-0.576 2.784,-2.784l0,-33.408l20.352,32.928c1.248,1.92 1.92,3.264 4.32,3.264l8.736,0c2.208,0 2.784,-1.056 2.784,-2.784l0,-57.6c0,-2.208 -1.056,-2.784 -2.784,-2.784Z" style="fill:#fff;fill-rule:nonzero;"/><path d="M292.948,157.475l-3.648,-4.128c2.496,-3.168 3.36,-6.624 3.36,-11.52l0,-22.656c0,-15.168 -14.4,-21.696 -25.824,-21.696c-11.424,0 -25.632,6.528 -25.632,21.696l0,22.656c0,15.168 14.208,21.696 25.632,21.696c4.128,0 8.16,-0.384 12.192,-2.112l4.608,4.704c1.248,1.248 2.784,1.056 4.32,-0.48l4.608,-3.744c1.632,-1.632 1.632,-3.264 0.384,-4.416Zm-15.264,-17.088c0,6.144 -4.416,9.696 -10.752,9.696c-6.24,0 -10.656,-3.552 -10.656,-9.696l0,-19.968c0,-6.144 4.416,-9.696 10.656,-9.696c6.336,0 10.752,3.552 10.752,9.696l0,19.968Z" style="fill:#fff;fill-rule:nonzero;"/><path d="M349.108,98.819l-9.504,0c-1.728,0 -2.784,0.576 -2.784,2.784l0,38.976c0,6.048 -4.032,9.504 -10.368,9.504c-6.336,0 -10.272,-3.456 -10.272,-9.504l0,-38.976c0,-2.208 -1.056,-2.784 -2.784,-2.784l-9.504,0c-1.728,0 -2.784,0.576 -2.784,2.784l0,41.088c0,15.072 13.92,20.736 25.344,20.736c11.424,0 25.44,-5.664 25.44,-20.736l0,-41.088c0,-2.208 -1.056,-2.784 -2.784,-2.784Z" style="fill:#fff;fill-rule:nonzero;"/><path d="M407.86,148.547l-30.624,0l0,-12.672l25.728,0c2.208,0 2.784,-1.056 2.784,-2.784l0,-7.488c0,-1.728 -0.576,-2.784 -2.784,-2.784l-25.728,0l0,-10.464l28.992,0c2.208,0 2.784,-1.056 2.784,-2.784l0,-7.968c0,-1.728 -0.576,-2.784 -2.784,-2.784l-41.376,0c-2.208,0 -2.784,1.056 -2.784,2.784l0,57.6c0,1.728 0.576,2.784 2.784,2.784l43.008,0c2.208,0 2.784,-1.056 2.784,-2.784l0,-7.872c0,-1.728 -0.576,-2.784 -2.784,-2.784Z" style="fill:#fff;fill-rule:nonzero;"/><path d="M449.716,125.315c-3.84,-1.536 -17.952,-3.648 -17.952,-9.504c0,-4.32 5.28,-5.568 8.448,-5.568c2.88,0 6.336,0.864 8.16,2.592c1.152,1.152 1.632,1.92 2.016,2.88c0.48,1.248 0.768,2.592 2.592,2.592l9.408,0c2.208,0 2.784,-0.384 2.784,-2.688c0,-12.672 -13.344,-18.24 -25.536,-18.24c-12,0.48 -23.328,6.624 -23.328,19.104c0,12.192 8.928,16.032 18.624,19.104c8.16,2.592 16.704,2.688 16.704,8.064c0,5.376 -4.224,6.528 -9.408,6.528c-3.552,0 -7.488,-0.864 -9.408,-3.168c-1.248,-1.44 -1.728,-2.688 -1.824,-3.936c-0.192,-2.4 -1.248,-2.688 -3.456,-2.688l-9.312,0c-2.208,0 -2.784,0.48 -2.784,2.688c0,13.44 13.824,20.352 25.824,20.352c14.784,0 25.536,-6.528 25.536,-20.16c0,-13.056 -10.176,-15.84 -17.088,-17.952Z" style="fill:#fff;fill-rule:nonzero;"/><path d="M521.812,98.819l-21.504,0c-2.208,0 -2.784,1.056 -2.784,2.784l0,57.6c0,1.728 0.576,2.784 2.784,2.784l21.504,0c11.424,0 25.824,-6.528 25.824,-21.6l0,-19.968c0,-14.976 -14.4,-21.6 -25.824,-21.6Zm10.752,40.224c0,6.144 -4.416,9.6 -10.752,9.6l-9.216,0l0,-36.48l9.216,0c6.336,0 10.752,3.552 10.752,9.6l0,17.28Z" style="fill:#fff;fill-rule:nonzero;"/><path d="M564.436,98.819l-6.72,0c-2.112,0 -2.688,1.056 -2.688,2.784l0,21.696c0,1.728 0.576,2.784 2.688,2.784l6.72,0c2.112,0 2.688,-1.056 2.688,-2.784l0,-21.696c0,-1.728 -0.576,-2.784 -2.688,-2.784Z" style="fill:#fff;fill-rule:nonzero;"/><path d="M603.988,148.835l-6.048,0l0,-36.672l5.76,0c2.208,0 2.784,-1.056 2.784,-2.784l0,-7.776c0,-1.728 -0.576,-2.784 -2.784,-2.784l-26.688,0c-2.208,0 -2.784,1.056 -2.784,2.784l0,7.776c0,1.728 0.576,2.784 2.784,2.784l5.856,0l0,36.672l-6.048,0c-2.208,0 -2.784,1.056 -2.784,2.784l0,7.584c0,1.728 0.576,2.784 2.784,2.784l27.168,0c2.208,0 2.784,-1.056 2.784,-2.784l0,-7.584c0,-1.728 -0.576,-2.784 -2.784,-2.784Z" style="fill:#fff;fill-rule:nonzero;"/><path d="M672.532,98.723l-9.216,0c-3.168,0 -3.648,2.112 -4.32,3.264l-13.248,23.616l-13.152,-23.616c-0.768,-1.152 -1.152,-3.264 -4.416,-3.264l-9.504,0c-2.208,0 -2.784,1.056 -2.784,2.784l0,57.696c0,2.208 1.056,2.784 2.784,2.784l9.504,0c1.728,0 2.784,-0.576 2.784,-2.784l0,-32.544l9.696,16.8c0.48,0.768 1.248,2.016 2.688,2.016l4.8,0c1.44,0 2.304,-1.248 2.784,-2.016l9.6,-16.8l0,32.544c0,2.208 1.056,2.784 2.784,2.784l9.216,0c1.728,0 2.784,-0.576 2.784,-2.784l0,-57.696c0,-1.728 -0.576,-2.784 -2.784,-2.784Z" style="fill:#fff;fill-rule:nonzero;"/><path d="M740.596,159.299l-21.216,-57.504c-0.864,-2.016 -1.824,-2.976 -3.936,-2.976l-9.216,0c-2.112,0 -3.168,0.96 -3.936,2.976l-21.312,57.504c-0.48,1.152 -0.48,2.688 1.632,2.688l10.08,0c2.112,0 2.88,-0.576 3.648,-2.88l2.688,-7.584l23.52,0l2.688,7.584c0.768,2.304 1.536,2.88 3.648,2.88l10.08,0c2.112,0 2.112,-1.536 1.632,-2.688Zm-36.96,-21.216l7.2,-21.216l7.2,21.216l-14.4,0Z" style="fill:#fff;fill-rule:nonzero;"/><path d="M792.82,126.755l-21.024,0c-2.208,0 -2.784,1.056 -2.784,2.784l0,7.488c0,1.728 0.576,2.784 2.784,2.784l8.64,0c0,7.392 -4.416,10.272 -10.656,10.272c-6.336,0 -10.56,-3.552 -10.56,-9.696l0,-19.296c0,-6.144 4.224,-10.368 10.56,-10.368c6.432,0 9.888,2.88 10.944,5.856c0.48,1.344 0.096,3.264 2.784,3.264l9.312,0c2.208,0 2.784,-0.384 2.784,-2.688c0,-12.864 -13.824,-19.776 -25.824,-19.776c-11.328,0 -25.824,6.432 -25.824,21.6l0,23.616c0,15.072 14.496,20.832 25.824,20.832c10.944,0 24.96,-6.144 25.824,-19.968l0,-13.92c0,-1.728 -0.576,-2.784 -2.784,-2.784Z" style="fill:#fff;fill-rule:nonzero;"/><path d="M850.42,148.547l-30.624,0l0,-12.672l25.728,0c2.208,0 2.784,-1.056 2.784,-2.784l0,-7.488c0,-1.728 -0.576,-2.784 -2.784,-2.784l-25.728,0l0,-10.464l28.992,0c2.208,0 2.784,-1.056 2.784,-2.784l0,-7.968c0,-1.728 -0.576,-2.784 -2.784,-2.784l-41.376,0c-2.208,0 -2.784,1.056 -2.784,2.784l0,57.6c0,1.728 0.576,2.784 2.784,2.784l43.008,0c2.208,0 2.784,-1.056 2.784,-2.784l0,-7.872c0,-1.728 -0.576,-2.784 -2.784,-2.784Z" style="fill:#fff;fill-rule:nonzero;"/><path d="M892.276,125.315c-3.84,-1.536 -17.952,-3.648 -17.952,-9.504c0,-4.32 5.28,-5.568 8.448,-5.568c2.88,0 6.336,0.864 8.16,2.592c1.152,1.152 1.632,1.92 2.016,2.88c0.48,1.248 0.768,2.592 2.592,2.592l9.408,0c2.208,0 2.784,-0.384 2.784,-2.688c0,-12.672 -13.344,-18.24 -25.536,-18.24c-12,0.48 -23.328,6.624 -23.328,19.104c0,12.192 8.928,16.032 18.624,19.104c8.16,2.592 16.704,2.688 16.704,8.064c0,5.376 -4.224,6.528 -9.408,6.528c-3.552,0 -7.488,-0.864 -9.408,-3.168c-1.248,-1.44 -1.728,-2.688 -1.824,-3.936c-0.192,-2.4 -1.248,-2.688 -3.456,-2.688l-9.312,0c-2.208,0 -2.784,0.48 -2.784,2.688c0,13.44 13.824,20.352 25.824,20.352c14.784,0 25.536,-6.528 25.536,-20.16c0,-13.056 -10.176,-15.84 -17.088,-17.952Z" style="fill:#fff;fill-rule:nonzero;"/><g transform="matrix(1,0,0,1,-2239,-2137.75)"><path d="M2328.03,2364.69l-14.016,0c-1.472,0 -1.856,0.704 -1.856,1.856l0,4.992c0,1.152 0.384,1.856 1.856,1.856l5.76,0c0,4.928 -2.944,6.848 -7.104,6.848c-4.224,0 -7.04,-2.368 -7.04,-6.464l0,-12.864c0,-4.096 2.816,-6.912 7.04,-6.912c4.288,0 6.592,1.92 7.296,3.904c0.32,0.896 0.064,2.176 1.856,2.176l6.208,0c1.472,0 1.856,-0.256 1.856,-1.792c0,-8.576 -9.216,-13.184 -17.216,-13.184c-7.552,0 -17.216,4.288 -17.216,14.4l0,15.744c0,10.048 9.664,13.888 17.216,13.888c7.296,0 16.64,-4.096 17.216,-13.312l0,-9.28c0,-1.152 -0.384,-1.856 -1.856,-1.856Z" style="fill:#d35b5b;fill-rule:nonzero;"/><path d="M2372.58,2386.13l-9.024,-13.12c3.968,-1.344 8.896,-6.016 8.896,-12.736c0,-4.096 -1.344,-7.744 -3.712,-10.048c-2.688,-2.688 -5.76,-4.096 -12.736,-4.096l-16.128,0c-1.472,0 -1.792,0.704 -1.792,1.856l0,38.336c0,1.472 0.64,1.856 1.792,1.856l6.336,0c1.152,0 1.856,-0.384 1.856,-1.856l0,-31.232l8.512,0c3.328,0 5.888,2.112 5.888,5.44c0,3.008 -2.944,5.184 -6.08,5.184l-1.28,0c-1.472,0 -1.856,0.704 -1.856,1.856l0,5.12c0,1.792 0.128,2.496 0.704,3.264l6.912,10.304c0.896,1.344 1.664,1.92 3.2,1.92l7.552,0c1.216,0 1.536,-1.152 0.96,-2.048Z" style="fill:#d35b5b;fill-rule:nonzero;"/><path d="M2416.93,2386.38l-14.144,-38.336c-0.576,-1.344 -1.216,-1.984 -2.624,-1.984l-6.144,0c-1.408,0 -2.112,0.64 -2.624,1.984l-14.208,38.336c-0.32,0.768 -0.32,1.792 1.088,1.792l6.72,0c1.408,0 1.92,-0.384 2.432,-1.92l1.792,-5.056l15.68,0l1.792,5.056c0.512,1.536 1.024,1.92 2.432,1.92l6.72,0c1.408,0 1.408,-1.024 1.088,-1.792Zm-24.64,-14.144l4.8,-14.144l4.8,14.144l-9.6,0Z" style="fill:#d35b5b;fill-rule:nonzero;"/><path d="M2448.42,2346.06l-29.696,0c-1.472,0 -1.856,0.704 -1.856,1.856l0,5.312c0,1.152 0.384,1.856 1.856,1.856l9.856,0l0,31.232c0,1.472 0.704,1.856 1.856,1.856l6.336,0c1.152,0 1.856,-0.384 1.856,-1.856l0,-31.232l9.792,0c1.472,0 1.856,-0.704 1.856,-1.856l0,-5.312c0,-1.152 -0.384,-1.856 -1.856,-1.856Z" style="fill:#d35b5b;fill-rule:nonzero;"/><path d="M2488.16,2346.06l-6.336,0c-1.152,0 -1.856,0.384 -1.856,1.856l0,25.984c0,4.032 -2.688,6.336 -6.912,6.336c-4.224,0 -6.848,-2.304 -6.848,-6.336l0,-25.984c0,-1.472 -0.704,-1.856 -1.856,-1.856l-6.336,0c-1.152,0 -1.856,0.384 -1.856,1.856l0,27.392c0,10.048 9.28,13.824 16.896,13.824c7.616,0 16.96,-3.776 16.96,-13.824l0,-27.392c0,-1.472 -0.704,-1.856 -1.856,-1.856Z" style="fill:#d35b5b;fill-rule:nonzero;"/><path d="M2517.28,2379.41l-4.032,0l0,-24.448l3.84,0c1.472,0 1.856,-0.704 1.856,-1.856l0,-5.184c0,-1.152 -0.384,-1.856 -1.856,-1.856l-17.792,0c-1.472,0 -1.856,0.704 -1.856,1.856l0,5.184c0,1.152 0.384,1.856 1.856,1.856l3.904,0l0,24.448l-4.032,0c-1.472,0 -1.856,0.704 -1.856,1.856l0,5.056c0,1.152 0.384,1.856 1.856,1.856l18.112,0c1.472,0 1.856,-0.704 1.856,-1.856l0,-5.056c0,-1.152 -0.384,-1.856 -1.856,-1.856Z" style="fill:#d35b5b;fill-rule:nonzero;"/><path d="M2555.87,2346.06l-29.696,0c-1.472,0 -1.856,0.704 -1.856,1.856l0,5.312c0,1.152 0.384,1.856 1.856,1.856l9.856,0l0,31.232c0,1.472 0.704,1.856 1.856,1.856l6.336,0c1.152,0 1.856,-0.384 1.856,-1.856l0,-31.232l9.792,0c1.472,0 1.856,-0.704 1.856,-1.856l0,-5.312c0,-1.152 -0.384,-1.856 -1.856,-1.856Z" style="fill:#d35b5b;fill-rule:nonzero;"/><path d="M2594.66,2379.22l-20.416,0l0,-8.448l17.152,0c1.472,0 1.856,-0.704 1.856,-1.856l0,-4.992c0,-1.152 -0.384,-1.856 -1.856,-1.856l-17.152,0l0,-6.976l19.328,0c1.472,0 1.856,-0.704 1.856,-1.856l0,-5.312c0,-1.152 -0.384,-1.856 -1.856,-1.856l-27.584,0c-1.472,0 -1.856,0.704 -1.856,1.856l0,38.4c0,1.152 0.384,1.856 1.856,1.856l28.672,0c1.472,0 1.856,-0.704 1.856,-1.856l0,-5.248c0,-1.152 -0.384,-1.856 -1.856,-1.856Z" style="fill:#d35b5b;fill-rule:nonzero;"/><path d="M2624.74,2363.73c-2.56,-1.024 -11.968,-2.432 -11.968,-6.336c0,-2.88 3.52,-3.712 5.632,-3.712c1.92,0 4.224,0.576 5.44,1.728c0.768,0.768 1.088,1.28 1.344,1.92c0.32,0.832 0.512,1.728 1.728,1.728l6.272,0c1.472,0 1.856,-0.256 1.856,-1.792c0,-8.448 -8.896,-12.16 -17.024,-12.16c-8,0.32 -15.552,4.416 -15.552,12.736c0,8.128 5.952,10.688 12.416,12.736c5.44,1.728 11.136,1.792 11.136,5.376c0,3.584 -2.816,4.352 -6.272,4.352c-2.368,0 -4.992,-0.576 -6.272,-2.112c-0.832,-0.96 -1.152,-1.792 -1.216,-2.624c-0.128,-1.6 -0.832,-1.792 -2.304,-1.792l-6.208,0c-1.472,0 -1.856,0.32 -1.856,1.792c0,8.96 9.216,13.568 17.216,13.568c9.856,0 17.024,-4.352 17.024,-13.44c0,-8.704 -6.784,-10.56 -11.392,-11.968Z" style="fill:#d35b5b;fill-rule:nonzero;"/><path d="M2691.49,2379.22l-20.416,0l0,-8.448l17.152,0c1.472,0 1.856,-0.704 1.856,-1.856l0,-4.992c0,-1.152 -0.384,-1.856 -1.856,-1.856l-17.152,0l0,-6.976l19.328,0c1.472,0 1.856,-0.704 1.856,-1.856l0,-5.312c0,-1.152 -0.384,-1.856 -1.856,-1.856l-27.584,0c-1.472,0 -1.856,0.704 -1.856,1.856l0,38.4c0,1.152 0.384,1.856 1.856,1.856l28.672,0c1.472,0 1.856,-0.704 1.856,-1.856l0,-5.248c0,-1.152 -0.384,-1.856 -1.856,-1.856Z" style="fill:#d35b5b;fill-rule:nonzero;"/><path d="M2729.57,2346.06l-29.696,0c-1.472,0 -1.856,0.704 -1.856,1.856l0,5.312c0,1.152 0.384,1.856 1.856,1.856l9.856,0l0,31.232c0,1.472 0.704,1.856 1.856,1.856l6.336,0c1.152,0 1.856,-0.384 1.856,-1.856l0,-31.232l9.792,0c1.472,0 1.856,-0.704 1.856,-1.856l0,-5.312c0,-1.152 -0.384,-1.856 -1.856,-1.856Z" style="fill:#d35b5b;fill-rule:nonzero;"/><path d="M2325.22,2443.22l-18.432,0l0,-31.296c0,-1.472 -0.704,-1.856 -1.856,-1.856l-6.336,0c-1.152,0 -1.856,0.384 -1.856,1.856l0,38.4c0,1.152 0.384,1.856 1.856,1.856l26.624,0c1.472,0 1.856,-0.704 1.856,-1.856l0,-5.248c0,-1.152 -0.384,-1.856 -1.856,-1.856Z" style="fill:#d35b5b;fill-rule:nonzero;"/><path d="M2352.29,2443.41l-4.032,0l0,-24.448l3.84,0c1.472,0 1.856,-0.704 1.856,-1.856l0,-5.184c0,-1.152 -0.384,-1.856 -1.856,-1.856l-17.792,0c-1.472,0 -1.856,0.704 -1.856,1.856l0,5.184c0,1.152 0.384,1.856 1.856,1.856l3.904,0l0,24.448l-4.032,0c-1.472,0 -1.856,0.704 -1.856,1.856l0,5.056c0,1.152 0.384,1.856 1.856,1.856l18.112,0c1.472,0 1.856,-0.704 1.856,-1.856l0,-5.056c0,-1.152 -0.384,-1.856 -1.856,-1.856Z" style="fill:#d35b5b;fill-rule:nonzero;"/><path d="M2392.42,2430.35c0.576,-0.256 4.672,-2.304 4.672,-8.768c0,-6.016 -4.48,-11.584 -14.912,-11.584l-17.92,0c-1.472,0 -1.856,0.704 -1.856,1.856l0,38.464c0,1.152 0.384,1.856 1.856,1.856l18.816,0c8.896,0 15.232,-4.16 15.232,-12.288c0,-6.912 -5.376,-9.344 -5.888,-9.536Zm-9.216,12.736l-10.752,0l0,-24.064l9.728,0c3.328,0 5.312,0.704 5.312,3.584c0,2.496 -1.6,3.84 -5.312,3.84l-0.832,0c-1.472,0 -1.856,0.704 -1.856,1.856l0,4.864c0,1.152 0.384,1.856 1.856,1.856l1.472,0c3.072,0 5.312,0.896 5.312,3.904c0,2.88 -1.792,4.16 -4.928,4.16Z" style="fill:#d35b5b;fill-rule:nonzero;"/><path d="M2440.86,2450.13l-9.024,-13.12c3.968,-1.344 8.896,-6.016 8.896,-12.736c0,-4.096 -1.344,-7.744 -3.712,-10.048c-2.688,-2.688 -5.76,-4.096 -12.736,-4.096l-16.128,0c-1.472,0 -1.792,0.704 -1.792,1.856l0,38.336c0,1.472 0.64,1.856 1.792,1.856l6.336,0c1.152,0 1.856,-0.384 1.856,-1.856l0,-31.232l8.512,0c3.328,0 5.888,2.112 5.888,5.44c0,3.008 -2.944,5.184 -6.08,5.184l-1.28,0c-1.472,0 -1.856,0.704 -1.856,1.856l0,5.12c0,1.792 0.128,2.496 0.704,3.264l6.912,10.304c0.896,1.344 1.664,1.92 3.2,1.92l7.552,0c1.216,0 1.536,-1.152 0.96,-2.048Z" style="fill:#d35b5b;fill-rule:nonzero;"/><path d="M2479.52,2443.22l-20.416,0l0,-8.448l17.152,0c1.472,0 1.856,-0.704 1.856,-1.856l0,-4.992c0,-1.152 -0.384,-1.856 -1.856,-1.856l-17.152,0l0,-6.976l19.328,0c1.472,0 1.856,-0.704 1.856,-1.856l0,-5.312c0,-1.152 -0.384,-1.856 -1.856,-1.856l-27.584,0c-1.472,0 -1.856,0.704 -1.856,1.856l0,38.4c0,1.152 0.384,1.856 1.856,1.856l28.672,0c1.472,0 1.856,-0.704 1.856,-1.856l0,-5.248c0,-1.152 -0.384,-1.856 -1.856,-1.856Z" style="fill:#d35b5b;fill-rule:nonzero;"/><path d="M2509.6,2427.73c-2.56,-1.024 -11.968,-2.432 -11.968,-6.336c0,-2.88 3.52,-3.712 5.632,-3.712c1.92,0 4.224,0.576 5.44,1.728c0.768,0.768 1.088,1.28 1.344,1.92c0.32,0.832 0.512,1.728 1.728,1.728l6.272,0c1.472,0 1.856,-0.256 1.856,-1.792c0,-8.448 -8.896,-12.16 -17.024,-12.16c-8,0.32 -15.552,4.416 -15.552,12.736c0,8.128 5.952,10.688 12.416,12.736c5.44,1.728 11.136,1.792 11.136,5.376c0,3.584 -2.816,4.352 -6.272,4.352c-2.368,0 -4.992,-0.576 -6.272,-2.112c-0.832,-0.96 -1.152,-1.792 -1.216,-2.624c-0.128,-1.6 -0.832,-1.792 -2.304,-1.792l-6.208,0c-1.472,0 -1.856,0.32 -1.856,1.792c0,8.96 9.216,13.568 17.216,13.568c9.856,0 17.024,-4.352 17.024,-13.44c0,-8.704 -6.784,-10.56 -11.392,-11.968Z" style="fill:#d35b5b;fill-rule:nonzero;"/><path d="M2562.02,2410.06l-14.336,0c-1.472,0 -1.856,0.704 -1.856,1.856l0,38.4c0,1.152 0.384,1.856 1.856,1.856l14.336,0c7.616,0 17.216,-4.352 17.216,-14.4l0,-13.312c0,-9.984 -9.6,-14.4 -17.216,-14.4Zm7.168,26.816c0,4.096 -2.944,6.4 -7.168,6.4l-6.144,0l0,-24.32l6.144,0c4.224,0 7.168,2.368 7.168,6.4l0,11.52Z" style="fill:#d35b5b;fill-rule:nonzero;"/><path d="M2617.95,2443.22l-20.416,0l0,-8.448l17.152,0c1.472,0 1.856,-0.704 1.856,-1.856l0,-4.992c0,-1.152 -0.384,-1.856 -1.856,-1.856l-17.152,0l0,-6.976l19.328,0c1.472,0 1.856,-0.704 1.856,-1.856l0,-5.312c0,-1.152 -0.384,-1.856 -1.856,-1.856l-27.584,0c-1.472,0 -1.856,0.704 -1.856,1.856l0,38.4c0,1.152 0.384,1.856 1.856,1.856l28.672,0c1.472,0 1.856,-0.704 1.856,-1.856l0,-5.248c0,-1.152 -0.384,-1.856 -1.856,-1.856Z" style="fill:#d35b5b;fill-rule:nonzero;"/><path d="M2661.09,2410.06l-14.336,0c-1.472,0 -1.856,0.704 -1.856,1.856l0,38.4c0,1.152 0.384,1.856 1.856,1.856l14.336,0c7.616,0 17.216,-4.352 17.216,-14.4l0,-13.312c0,-9.984 -9.6,-14.4 -17.216,-14.4Zm7.168,26.816c0,4.096 -2.944,6.4 -7.168,6.4l-6.144,0l0,-24.32l6.144,0c4.224,0 7.168,2.368 7.168,6.4l0,11.52Z" style="fill:#d35b5b;fill-rule:nonzero;"/><path d="M2720.99,2450.13l-9.024,-13.12c3.968,-1.344 8.896,-6.016 8.896,-12.736c0,-4.096 -1.344,-7.744 -3.712,-10.048c-2.688,-2.688 -5.76,-4.096 -12.736,-4.096l-16.128,0c-1.472,0 -1.792,0.704 -1.792,1.856l0,38.336c0,1.472 0.64,1.856 1.792,1.856l6.336,0c1.152,0 1.856,-0.384 1.856,-1.856l0,-31.232l8.512,0c3.328,0 5.888,2.112 5.888,5.44c0,3.008 -2.944,5.184 -6.08,5.184l-1.28,0c-1.472,0 -1.856,0.704 -1.856,1.856l0,5.12c0,1.792 0.128,2.496 0.704,3.264l6.912,10.304c0.896,1.344 1.664,1.92 3.2,1.92l7.552,0c1.216,0 1.536,-1.152 0.96,-2.048Z" style="fill:#d35b5b;fill-rule:nonzero;"/><path d="M2762.21,2423.57c0,-10.112 -9.6,-14.464 -17.216,-14.464c-7.616,0 -17.088,4.352 -17.088,14.464l0,15.104c0,10.112 9.472,14.464 17.088,14.464c7.616,0 17.216,-4.352 17.216,-14.464l0,-15.104Zm-10.048,14.208c0,4.096 -2.944,6.464 -7.168,6.464c-4.16,0 -7.104,-2.368 -7.104,-6.464l0,-13.312c0,-4.096 2.944,-6.464 7.104,-6.464c4.224,0 7.168,2.368 7.168,6.464l0,13.312Z" style="fill:#d35b5b;fill-rule:nonzero;"/><path d="M2788.7,2443.41l-4.032,0l0,-24.448l3.84,0c1.472,0 1.856,-0.704 1.856,-1.856l0,-5.184c0,-1.152 -0.384,-1.856 -1.856,-1.856l-17.792,0c-1.472,0 -1.856,0.704 -1.856,1.856l0,5.184c0,1.152 0.384,1.856 1.856,1.856l3.904,0l0,24.448l-4.032,0c-1.472,0 -1.856,0.704 -1.856,1.856l0,5.056c0,1.152 0.384,1.856 1.856,1.856l18.112,0c1.472,0 1.856,-0.704 1.856,-1.856l0,-5.056c0,-1.152 -0.384,-1.856 -1.856,-1.856Z" style="fill:#d35b5b;fill-rule:nonzero;"/><path d="M2827.3,2410.06l-29.696,0c-1.472,0 -1.856,0.704 -1.856,1.856l0,5.312c0,1.152 0.384,1.856 1.856,1.856l9.856,0l0,31.232c0,1.472 0.704,1.856 1.856,1.856l6.336,0c1.152,0 1.856,-0.384 1.856,-1.856l0,-31.232l9.792,0c1.472,0 1.856,-0.704 1.856,-1.856l0,-5.312c0,-1.152 -0.384,-1.856 -1.856,-1.856Z" style="fill:#d35b5b;fill-rule:nonzero;"/><path d="M2855.39,2427.73c-2.56,-1.024 -11.968,-2.432 -11.968,-6.336c0,-2.88 3.52,-3.712 5.632,-3.712c1.92,0 4.224,0.576 5.44,1.728c0.768,0.768 1.088,1.28 1.344,1.92c0.32,0.832 0.512,1.728 1.728,1.728l6.272,0c1.472,0 1.856,-0.256 1.856,-1.792c0,-8.448 -8.896,-12.16 -17.024,-12.16c-8,0.32 -15.552,4.416 -15.552,12.736c0,8.128 5.952,10.688 12.416,12.736c5.44,1.728 11.136,1.792 11.136,5.376c0,3.584 -2.816,4.352 -6.272,4.352c-2.368,0 -4.992,-0.576 -6.272,-2.112c-0.832,-0.96 -1.152,-1.792 -1.216,-2.624c-0.128,-1.6 -0.832,-1.792 -2.304,-1.792l-6.208,0c-1.472,0 -1.856,0.32 -1.856,1.792c0,8.96 9.216,13.568 17.216,13.568c9.856,0 17.024,-4.352 17.024,-13.44c0,-8.704 -6.784,-10.56 -11.392,-11.968Z" style="fill:#d35b5b;fill-rule:nonzero;"/></g></g></svg>