<?xml version="1.0" encoding="UTF-8" standalone="no"?><!DOCTYPE svg PUBLIC "-//W3C//DTD SVG 1.1//EN" "http://www.w3.org/Graphics/SVG/1.1/DTD/svg11.dtd"><svg width="100%" height="100%" viewBox="0 0 980 580" version="1.1" xmlns="http://www.w3.org/2000/svg" xmlns:xlink="http://www.w3.org/1999/xlink" xml:space="preserve" style="fill-rule:evenodd;clip-rule:evenodd;stroke-linecap:round;stroke-linejoin:round;stroke-miterlimit:1.5;"><g id="TRYPTIQUE"><path d="M515,91.5l234.5,419l-469,0l234.5,-419Z" style="fill:#fff;stroke:#000;stroke-width:2px;"/><path d="M450.51,69.552c-3.389,0 -6.611,-0.691 -9.666,-2.072c-1.464,-0.669 -2.855,-1.464 -4.173,-2.385c-1.318,-0.92 -2.542,-1.987 -3.672,-3.2c-2.218,-2.344 -3.975,-5.105 -5.272,-8.285c-1.297,-3.306 -1.946,-6.674 -1.946,-10.105c0,-3.473 0.649,-6.862 1.946,-10.168c1.297,-3.18 3.054,-5.942 5.272,-8.285c1.13,-1.213 2.354,-2.28 3.672,-3.201c1.318,-0.92 2.709,-1.715 4.173,-2.385c3.055,-1.381 6.277,-2.071 9.666,-2.071c2.009,0 3.996,0.261 5.963,0.784c1.966,0.523 3.828,1.266 5.586,2.229c1.715,0.962 3.305,2.123 4.77,3.483c1.464,1.36 2.74,2.898 3.828,4.613c0.168,0.209 0.22,0.439 0.157,0.691c-0.063,0.251 -0.199,0.46 -0.408,0.627c-0.544,0.293 -0.962,0.188 -1.255,-0.314c-2.176,-3.222 -4.906,-5.732 -8.191,-7.531c-3.284,-1.8 -6.768,-2.699 -10.45,-2.699c-3.138,0 -6.098,0.638 -8.881,1.914c-2.783,1.276 -5.209,3.013 -7.281,5.21c-2.071,2.196 -3.703,4.759 -4.895,7.688c-1.193,2.929 -1.789,6.067 -1.789,9.415c0,3.347 0.596,6.485 1.789,9.414c1.192,2.929 2.824,5.482 4.895,7.657c2.072,2.176 4.498,3.902 7.281,5.178c2.783,1.277 5.743,1.915 8.881,1.915c3.682,0 7.166,-0.9 10.45,-2.699c3.285,-1.799 6.015,-4.31 8.191,-7.532c0.126,-0.209 0.314,-0.345 0.565,-0.408c0.251,-0.062 0.481,-0.01 0.69,0.157c0.209,0.126 0.345,0.314 0.408,0.565c0.063,0.251 0.011,0.481 -0.157,0.69c-1.088,1.716 -2.364,3.254 -3.828,4.614c-1.465,1.36 -3.055,2.521 -4.77,3.483c-1.758,0.962 -3.62,1.705 -5.586,2.228c-1.967,0.523 -3.954,0.785 -5.963,0.785Z" style="fill-rule:nonzero;"/><path d="M500.094,69.552c-3.097,0 -6.047,-0.691 -8.85,-2.072c-2.72,-1.338 -5.105,-3.2 -7.155,-5.585c-2.134,-2.511 -3.756,-5.335 -4.864,-8.474c-1.109,-3.138 -1.664,-6.443 -1.664,-9.916c0,-3.515 0.555,-6.842 1.664,-9.98c1.108,-3.138 2.73,-5.941 4.864,-8.41c1.046,-1.214 2.165,-2.291 3.358,-3.232c1.192,-0.942 2.458,-1.747 3.797,-2.417c2.803,-1.381 5.753,-2.071 8.85,-2.071c3.096,0 6.025,0.69 8.787,2.071c2.677,1.339 5.062,3.222 7.155,5.649c2.134,2.469 3.765,5.272 4.895,8.41c1.13,3.138 1.695,6.465 1.695,9.98c0,3.473 -0.565,6.778 -1.695,9.916c-1.13,3.139 -2.761,5.963 -4.895,8.474c-2.093,2.426 -4.478,4.288 -7.155,5.585c-2.762,1.381 -5.691,2.072 -8.787,2.072Zm0,-50.274c-2.846,0 -5.524,0.638 -8.034,1.914c-2.511,1.276 -4.697,3.013 -6.559,5.21c-1.862,2.196 -3.337,4.759 -4.425,7.688c-1.088,2.929 -1.632,6.067 -1.632,9.415c0,3.347 0.544,6.485 1.632,9.414c1.088,2.929 2.563,5.482 4.425,7.657c1.862,2.176 4.048,3.902 6.559,5.178c2.51,1.277 5.188,1.915 8.034,1.915c2.845,0 5.523,-0.638 8.033,-1.915c2.511,-1.276 4.697,-3.002 6.559,-5.178c1.862,-2.175 3.337,-4.728 4.425,-7.657c1.088,-2.929 1.632,-6.067 1.632,-9.414c0,-3.348 -0.544,-6.486 -1.632,-9.415c-1.088,-2.929 -2.563,-5.492 -4.425,-7.688c-1.862,-2.197 -4.048,-3.934 -6.559,-5.21c-2.51,-1.276 -5.188,-1.914 -8.033,-1.914Z" style="fill-rule:nonzero;"/><path d="M546.1,69.552c-1.925,0 -3.756,-0.366 -5.492,-1.099c-1.737,-0.732 -3.275,-1.768 -4.613,-3.106c-1.339,-1.339 -2.365,-2.877 -3.076,-4.614c-0.711,-1.736 -1.067,-3.567 -1.067,-5.491l0,-37.094c0,-0.251 0.084,-0.471 0.251,-0.659c0.168,-0.188 0.398,-0.282 0.691,-0.282c0.251,0 0.47,0.094 0.659,0.282c0.188,0.188 0.282,0.408 0.282,0.659l0,37.094c0,1.715 0.324,3.326 0.973,4.832c0.648,1.507 1.527,2.825 2.636,3.954c1.109,1.13 2.416,2.019 3.923,2.668c1.506,0.649 3.117,0.973 4.833,0.973c1.715,0 3.326,-0.324 4.832,-0.973c1.507,-0.649 2.825,-1.538 3.954,-2.668c1.13,-1.129 2.019,-2.447 2.668,-3.954c0.648,-1.506 0.973,-3.117 0.973,-4.832l0,-37.094c0,-0.251 0.094,-0.471 0.282,-0.659c0.188,-0.188 0.408,-0.282 0.659,-0.282c0.251,0 0.471,0.094 0.659,0.282c0.189,0.188 0.283,0.408 0.283,0.659l0,37.094c0,1.924 -0.366,3.755 -1.099,5.491c-0.732,1.737 -1.768,3.275 -3.107,4.614c-1.338,1.338 -2.876,2.374 -4.613,3.106c-1.736,0.733 -3.567,1.099 -5.491,1.099Zm9.853,-56.174c-0.251,0 -0.481,-0.105 -0.69,-0.314l-9.854,-11.297c-0.209,-0.21 -0.303,-0.429 -0.282,-0.659c0.021,-0.23 0.136,-0.45 0.345,-0.659c0.209,-0.168 0.439,-0.241 0.69,-0.22c0.251,0.021 0.461,0.136 0.628,0.345l9.917,11.235c0.376,0.46 0.334,0.9 -0.126,1.318c-0.251,0.167 -0.46,0.251 -0.628,0.251Zm-19.707,0c-0.168,0 -0.377,-0.084 -0.628,-0.251c-0.46,-0.46 -0.481,-0.9 -0.063,-1.318l9.854,-11.235c0.167,-0.209 0.377,-0.324 0.628,-0.345c0.251,-0.021 0.481,0.052 0.69,0.22c0.209,0.209 0.324,0.429 0.345,0.659c0.021,0.23 -0.073,0.449 -0.282,0.659l-9.854,11.297c-0.209,0.209 -0.439,0.314 -0.69,0.314Z" style="fill-rule:nonzero;"/><path d="M585.201,69.552c-0.251,0 -0.47,-0.094 -0.659,-0.283c-0.188,-0.188 -0.282,-0.408 -0.282,-0.659l0,-50.085c0,-0.251 0.094,-0.471 0.282,-0.659c0.189,-0.189 0.408,-0.283 0.659,-0.283c0.251,0 0.471,0.094 0.659,0.283c0.189,0.188 0.283,0.408 0.283,0.659l0,50.085c0,0.251 -0.094,0.471 -0.283,0.659c-0.188,0.189 -0.408,0.283 -0.659,0.283Zm18.076,-50.211l-36.152,0c-0.251,0 -0.47,-0.095 -0.659,-0.283c-0.188,-0.188 -0.282,-0.408 -0.282,-0.659c0,-0.251 0.094,-0.471 0.282,-0.659c0.189,-0.188 0.408,-0.282 0.659,-0.282l36.152,0c0.251,0 0.471,0.094 0.659,0.282c0.189,0.188 0.283,0.408 0.283,0.659c0,0.251 -0.094,0.471 -0.283,0.659c-0.188,0.188 -0.408,0.283 -0.659,0.283Z" style="fill-rule:nonzero;"/><path d="M23.073,579.826c-3.097,0 -6.026,-0.69 -8.787,-2.071c-2.678,-1.297 -5.063,-3.159 -7.155,-5.586c-2.134,-2.511 -3.766,-5.335 -4.896,-8.473c-1.13,-3.138 -1.695,-6.444 -1.695,-9.917c0,-3.515 0.565,-6.841 1.695,-9.979c1.13,-3.138 2.762,-5.942 4.896,-8.411c2.05,-2.427 4.435,-4.309 7.155,-5.648c2.761,-1.381 5.69,-2.072 8.787,-2.072c3.054,0 6.004,0.691 8.849,2.072c1.339,0.669 2.605,1.475 3.798,2.416c1.192,0.941 2.311,2.019 3.357,3.232c2.134,2.469 3.756,5.273 4.865,8.411c1.108,3.138 1.663,6.464 1.663,9.979c0,3.473 -0.555,6.779 -1.663,9.917c-1.109,3.138 -2.731,5.962 -4.865,8.473c-2.05,2.385 -4.435,4.247 -7.155,5.586c-2.845,1.381 -5.795,2.071 -8.849,2.071Zm0,-50.274c-2.846,0 -5.524,0.638 -8.034,1.915c-2.511,1.276 -4.697,3.012 -6.559,5.209c-1.862,2.197 -3.337,4.76 -4.425,7.689c-1.088,2.929 -1.632,6.067 -1.632,9.414c0,3.348 0.544,6.486 1.632,9.415c1.088,2.929 2.563,5.481 4.425,7.657c1.862,2.176 4.048,3.902 6.559,5.178c2.51,1.276 5.188,1.914 8.034,1.914c2.845,0 5.523,-0.638 8.033,-1.914c2.511,-1.276 4.697,-3.002 6.559,-5.178c1.862,-2.176 3.337,-4.728 4.425,-7.657c1.088,-2.929 1.632,-6.067 1.632,-9.415c0,-3.347 -0.544,-6.485 -1.632,-9.414c-1.088,-2.929 -2.563,-5.492 -4.425,-7.689c-1.862,-2.197 -4.048,-3.933 -6.559,-5.209c-2.51,-1.277 -5.188,-1.915 -8.033,-1.915Zm21.59,50.274c-0.334,0 -0.585,-0.125 -0.753,-0.376l-12.364,-17.637c-0.377,-0.502 -0.314,-0.941 0.188,-1.318c0.209,-0.167 0.439,-0.22 0.69,-0.157c0.252,0.063 0.461,0.199 0.628,0.408l12.365,17.574c0.167,0.209 0.23,0.45 0.188,0.722c-0.042,0.272 -0.167,0.47 -0.377,0.596c-0.209,0.125 -0.397,0.188 -0.565,0.188Z" style="fill-rule:nonzero;"/><path d="M68.137,579.826c-1.925,0 -3.755,-0.366 -5.492,-1.098c-1.736,-0.732 -3.274,-1.768 -4.613,-3.107c-1.339,-1.339 -2.364,-2.877 -3.075,-4.613c-0.712,-1.737 -1.067,-3.567 -1.067,-5.492l0,-37.093c0,-0.251 0.083,-0.471 0.251,-0.659c0.167,-0.189 0.397,-0.283 0.69,-0.283c0.251,0 0.471,0.094 0.659,0.283c0.189,0.188 0.283,0.408 0.283,0.659l0,37.093c0,1.716 0.324,3.327 0.972,4.833c0.649,1.506 1.528,2.824 2.637,3.954c1.108,1.13 2.416,2.019 3.922,2.667c1.507,0.649 3.118,0.973 4.833,0.973c1.716,0 3.327,-0.324 4.833,-0.973c1.506,-0.648 2.824,-1.537 3.954,-2.667c1.13,-1.13 2.019,-2.448 2.668,-3.954c0.648,-1.506 0.972,-3.117 0.972,-4.833l0,-37.093c0,-0.251 0.095,-0.471 0.283,-0.659c0.188,-0.189 0.408,-0.283 0.659,-0.283c0.251,0 0.471,0.094 0.659,0.283c0.188,0.188 0.282,0.408 0.282,0.659l0,37.093c0,1.925 -0.366,3.755 -1.098,5.492c-0.732,1.736 -1.768,3.274 -3.107,4.613c-1.339,1.339 -2.877,2.375 -4.613,3.107c-1.736,0.732 -3.567,1.098 -5.492,1.098Z" style="fill-rule:nonzero;"/><path d="M121.737,554.156c0.252,0 0.471,-0.094 0.66,-0.283c0.188,-0.188 0.282,-0.408 0.282,-0.659c0,-0.293 -0.094,-0.523 -0.282,-0.69c-0.189,-0.167 -0.408,-0.251 -0.66,-0.251l-26.674,0c-0.628,0 -0.942,0.314 -0.942,0.941c0,0.251 0.084,0.471 0.251,0.659c0.168,0.189 0.398,0.283 0.691,0.283l26.674,0Zm-26.674,25.67c-0.293,0 -0.523,-0.094 -0.691,-0.282c-0.167,-0.189 -0.251,-0.408 -0.251,-0.659l0,-37.094c0,-1.924 0.356,-3.755 1.067,-5.492c0.712,-1.736 1.737,-3.274 3.076,-4.613c1.339,-1.339 2.876,-2.374 4.613,-3.107c1.736,-0.732 3.567,-1.098 5.492,-1.098c1.925,0 3.755,0.366 5.492,1.098c1.736,0.733 3.274,1.768 4.613,3.107c1.339,1.339 2.374,2.877 3.107,4.613c0.732,1.737 1.098,3.568 1.098,5.492l0,37.094c0,0.251 -0.094,0.47 -0.282,0.659c-0.189,0.188 -0.408,0.282 -0.66,0.282c-0.251,0 -0.47,-0.094 -0.659,-0.282c-0.188,-0.189 -0.282,-0.408 -0.282,-0.659l0,-37.094c0,-1.715 -0.324,-3.326 -0.973,-4.833c-0.648,-1.506 -1.538,-2.824 -2.667,-3.954c-1.13,-1.129 -2.448,-2.019 -3.954,-2.667c-1.507,-0.649 -3.118,-0.973 -4.833,-0.973c-1.716,0 -3.327,0.324 -4.833,0.973c-1.506,0.648 -2.814,1.538 -3.923,2.667c-1.109,1.13 -1.987,2.448 -2.636,3.954c-0.648,1.507 -0.973,3.118 -0.973,4.833l0,37.094c0,0.251 -0.094,0.47 -0.282,0.659c-0.188,0.188 -0.408,0.282 -0.659,0.282Z" style="fill-rule:nonzero;"/><path d="M164.417,579.826l-28.558,0l0,-51.403c0,-0.251 0.095,-0.471 0.283,-0.659c0.188,-0.189 0.408,-0.283 0.659,-0.283c0.293,0 0.523,0.094 0.69,0.283c0.168,0.188 0.251,0.408 0.251,0.659l0,49.52l26.675,0c0.251,0 0.471,0.094 0.659,0.283c0.188,0.188 0.282,0.408 0.282,0.659c0,0.251 -0.094,0.47 -0.282,0.659c-0.188,0.188 -0.408,0.282 -0.659,0.282Z" style="fill-rule:nonzero;"/><path d="M177.786,579.826c-0.251,0 -0.471,-0.094 -0.659,-0.282c-0.189,-0.189 -0.283,-0.408 -0.283,-0.659l0,-50.462c0,-0.251 0.094,-0.471 0.283,-0.659c0.188,-0.189 0.408,-0.283 0.659,-0.283c0.293,0 0.523,0.094 0.69,0.283c0.167,0.188 0.251,0.408 0.251,0.659l0,50.462c0,0.251 -0.084,0.47 -0.251,0.659c-0.167,0.188 -0.397,0.282 -0.69,0.282Z" style="fill-rule:nonzero;"/><path d="M205.904,579.826c-0.251,0 -0.471,-0.094 -0.659,-0.282c-0.188,-0.189 -0.283,-0.408 -0.283,-0.659l0,-50.086c0,-0.251 0.095,-0.471 0.283,-0.659c0.188,-0.188 0.408,-0.282 0.659,-0.282c0.251,0 0.471,0.094 0.659,0.282c0.188,0.188 0.282,0.408 0.282,0.659l0,50.086c0,0.251 -0.094,0.47 -0.282,0.659c-0.188,0.188 -0.408,0.282 -0.659,0.282Zm18.076,-50.211l-36.152,0c-0.251,0 -0.471,-0.094 -0.659,-0.282c-0.188,-0.189 -0.283,-0.408 -0.283,-0.659c0,-0.251 0.095,-0.471 0.283,-0.659c0.188,-0.189 0.408,-0.283 0.659,-0.283l36.152,0c0.251,0 0.471,0.094 0.659,0.283c0.188,0.188 0.282,0.408 0.282,0.659c0,0.251 -0.094,0.47 -0.282,0.659c-0.188,0.188 -0.408,0.282 -0.659,0.282Z" style="fill-rule:nonzero;"/><path d="M257.559,564.575c0.251,0 0.47,0.094 0.659,0.282c0.188,0.188 0.282,0.408 0.282,0.659c0,1.925 -0.366,3.755 -1.098,5.492c-0.733,1.736 -1.768,3.274 -3.107,4.613c-1.339,1.339 -2.877,2.375 -4.613,3.107c-1.737,0.732 -3.567,1.098 -5.492,1.098c-1.925,0 -3.756,-0.366 -5.492,-1.098c-1.736,-0.732 -3.274,-1.768 -4.613,-3.107c-1.339,-1.339 -2.364,-2.877 -3.076,-4.613c-0.711,-1.737 -1.067,-3.567 -1.067,-5.492l0,-23.725c0,-1.924 0.356,-3.755 1.067,-5.492c0.712,-1.736 1.737,-3.274 3.076,-4.613c1.339,-1.339 2.877,-2.374 4.613,-3.107c1.736,-0.732 3.567,-1.098 5.492,-1.098c1.925,0 3.755,0.366 5.492,1.098c1.736,0.733 3.274,1.768 4.613,3.107c1.339,1.339 2.374,2.877 3.107,4.613c0.732,1.737 1.098,3.568 1.098,5.492c0,0.251 -0.094,0.471 -0.282,0.659c-0.189,0.189 -0.408,0.283 -0.659,0.283c-0.252,0 -0.471,-0.094 -0.659,-0.283c-0.189,-0.188 -0.283,-0.408 -0.283,-0.659c0,-1.715 -0.324,-3.326 -0.973,-4.833c-0.648,-1.506 -1.537,-2.824 -2.667,-3.954c-1.13,-1.129 -2.448,-2.019 -3.954,-2.667c-1.507,-0.649 -3.118,-0.973 -4.833,-0.973c-1.716,0 -3.327,0.324 -4.833,0.973c-1.506,0.648 -2.814,1.538 -3.923,2.667c-1.109,1.13 -1.987,2.448 -2.636,3.954c-0.648,1.507 -0.973,3.118 -0.973,4.833l0,11.047l20.21,0c0.251,0 0.471,0.083 0.659,0.251c0.189,0.167 0.283,0.397 0.283,0.69c0,0.251 -0.094,0.471 -0.283,0.659c-0.188,0.188 -0.408,0.283 -0.659,0.283l-20.21,0l0,10.795c0,1.716 0.325,3.327 0.973,4.833c0.649,1.506 1.527,2.824 2.636,3.954c1.109,1.13 2.417,2.019 3.923,2.667c1.506,0.649 3.117,0.973 4.833,0.973c1.715,0 3.326,-0.324 4.833,-0.973c1.506,-0.648 2.824,-1.537 3.954,-2.667c1.13,-1.13 2.019,-2.448 2.667,-3.954c0.649,-1.506 0.973,-3.117 0.973,-4.833c0,-0.251 0.094,-0.471 0.283,-0.659c0.188,-0.188 0.407,-0.282 0.659,-0.282Zm-18.265,-40.922c-0.167,0 -0.376,-0.084 -0.627,-0.252c-0.461,-0.418 -0.502,-0.857 -0.126,-1.318l9.917,-11.234c0.167,-0.21 0.376,-0.325 0.627,-0.346c0.251,-0.02 0.482,0.053 0.691,0.22c0.209,0.209 0.324,0.429 0.345,0.659c0.021,0.23 -0.073,0.45 -0.282,0.659l-9.854,11.298c-0.21,0.209 -0.44,0.314 -0.691,0.314Z" style="fill-rule:nonzero;"/><path d="M783.362,579.826l-11.862,0l0,-52.157l11.862,0c3.306,0 6.507,0.691 9.603,2.072c2.971,1.339 5.586,3.201 7.846,5.586c2.217,2.343 3.975,5.104 5.272,8.284c1.297,3.306 1.946,6.695 1.946,10.168c0,3.431 -0.649,6.8 -1.946,10.105c-1.297,3.18 -3.055,5.942 -5.272,8.285c-2.26,2.385 -4.875,4.247 -7.846,5.586c-3.096,1.381 -6.297,2.071 -9.603,2.071Zm-9.979,-1.883l9.979,0c3.139,0 6.088,-0.638 8.85,-1.914c2.762,-1.276 5.178,-3.002 7.249,-5.178c2.072,-2.176 3.703,-4.728 4.896,-7.657c1.192,-2.929 1.789,-6.067 1.789,-9.415c0,-3.347 -0.597,-6.485 -1.789,-9.414c-1.193,-2.929 -2.824,-5.492 -4.896,-7.689c-2.071,-2.197 -4.487,-3.933 -7.249,-5.209c-2.762,-1.277 -5.711,-1.915 -8.85,-1.915l-9.979,0l0,48.391Z" style="fill-rule:nonzero;"/><path d="M843.051,564.575c0.251,0 0.471,0.094 0.659,0.282c0.188,0.188 0.282,0.408 0.282,0.659c0,1.925 -0.366,3.755 -1.098,5.492c-0.732,1.736 -1.768,3.274 -3.107,4.613c-1.339,1.339 -2.877,2.375 -4.613,3.107c-1.737,0.732 -3.567,1.098 -5.492,1.098c-1.925,0 -3.755,-0.366 -5.492,-1.098c-1.736,-0.732 -3.274,-1.768 -4.613,-3.107c-1.339,-1.339 -2.364,-2.877 -3.075,-4.613c-0.712,-1.737 -1.067,-3.567 -1.067,-5.492l0,-23.725c0,-1.924 0.355,-3.755 1.067,-5.492c0.711,-1.736 1.736,-3.274 3.075,-4.613c1.339,-1.339 2.877,-2.374 4.613,-3.107c1.737,-0.732 3.567,-1.098 5.492,-1.098c1.925,0 3.755,0.366 5.492,1.098c1.736,0.733 3.274,1.768 4.613,3.107c1.339,1.339 2.375,2.877 3.107,4.613c0.732,1.737 1.098,3.568 1.098,5.492c0,0.251 -0.094,0.471 -0.282,0.659c-0.188,0.189 -0.408,0.283 -0.659,0.283c-0.251,0 -0.471,-0.094 -0.659,-0.283c-0.188,-0.188 -0.283,-0.408 -0.283,-0.659c0,-1.715 -0.324,-3.326 -0.972,-4.833c-0.649,-1.506 -1.538,-2.824 -2.668,-3.954c-1.13,-1.129 -2.448,-2.019 -3.954,-2.667c-1.506,-0.649 -3.117,-0.973 -4.833,-0.973c-1.715,0 -3.326,0.324 -4.833,0.973c-1.506,0.648 -2.814,1.538 -3.922,2.667c-1.109,1.13 -1.988,2.448 -2.637,3.954c-0.648,1.507 -0.972,3.118 -0.972,4.833l0,11.047l20.21,0c0.251,0 0.47,0.083 0.659,0.251c0.188,0.167 0.282,0.397 0.282,0.69c0,0.251 -0.094,0.471 -0.282,0.659c-0.189,0.188 -0.408,0.283 -0.659,0.283l-20.21,0l0,10.795c0,1.716 0.324,3.327 0.972,4.833c0.649,1.506 1.528,2.824 2.637,3.954c1.108,1.13 2.416,2.019 3.922,2.667c1.507,0.649 3.118,0.973 4.833,0.973c1.716,0 3.327,-0.324 4.833,-0.973c1.506,-0.648 2.824,-1.537 3.954,-2.667c1.13,-1.13 2.019,-2.448 2.668,-3.954c0.648,-1.506 0.972,-3.117 0.972,-4.833c0,-0.251 0.095,-0.471 0.283,-0.659c0.188,-0.188 0.408,-0.282 0.659,-0.282Zm-18.264,-40.922c-0.168,0 -0.377,-0.084 -0.628,-0.252c-0.46,-0.418 -0.502,-0.857 -0.126,-1.318l9.917,-11.234c0.167,-0.21 0.377,-0.325 0.628,-0.346c0.251,-0.02 0.481,0.053 0.69,0.22c0.209,0.209 0.324,0.429 0.345,0.659c0.021,0.23 -0.073,0.45 -0.282,0.659l-9.854,11.298c-0.209,0.209 -0.439,0.314 -0.69,0.314Z" style="fill-rule:nonzero;"/><path d="M882.215,579.826l-28.557,0l0,-51.403c0,-0.251 0.094,-0.471 0.282,-0.659c0.189,-0.189 0.408,-0.283 0.659,-0.283c0.293,0 0.523,0.094 0.691,0.283c0.167,0.188 0.251,0.408 0.251,0.659l0,49.52l26.674,0c0.252,0 0.471,0.094 0.66,0.283c0.188,0.188 0.282,0.408 0.282,0.659c0,0.251 -0.094,0.47 -0.282,0.659c-0.189,0.188 -0.408,0.282 -0.66,0.282Z" style="fill-rule:nonzero;"/><path d="M921.506,554.156c0.251,0 0.47,-0.094 0.659,-0.283c0.188,-0.188 0.282,-0.408 0.282,-0.659c0,-0.293 -0.094,-0.523 -0.282,-0.69c-0.189,-0.167 -0.408,-0.251 -0.659,-0.251l-26.675,0c-0.628,0 -0.941,0.314 -0.941,0.941c0,0.251 0.083,0.471 0.251,0.659c0.167,0.189 0.397,0.283 0.69,0.283l26.675,0Zm-26.675,25.67c-0.293,0 -0.523,-0.094 -0.69,-0.282c-0.168,-0.189 -0.251,-0.408 -0.251,-0.659l0,-37.094c0,-1.924 0.355,-3.755 1.067,-5.492c0.711,-1.736 1.736,-3.274 3.075,-4.613c1.339,-1.339 2.877,-2.374 4.613,-3.107c1.737,-0.732 3.567,-1.098 5.492,-1.098c1.925,0 3.755,0.366 5.492,1.098c1.736,0.733 3.274,1.768 4.613,3.107c1.339,1.339 2.375,2.877 3.107,4.613c0.732,1.737 1.098,3.568 1.098,5.492l0,37.094c0,0.251 -0.094,0.47 -0.282,0.659c-0.189,0.188 -0.408,0.282 -0.659,0.282c-0.251,0 -0.471,-0.094 -0.659,-0.282c-0.189,-0.189 -0.283,-0.408 -0.283,-0.659l0,-37.094c0,-1.715 -0.324,-3.326 -0.973,-4.833c-0.648,-1.506 -1.537,-2.824 -2.667,-3.954c-1.13,-1.129 -2.448,-2.019 -3.954,-2.667c-1.507,-0.649 -3.117,-0.973 -4.833,-0.973c-1.716,0 -3.327,0.324 -4.833,0.973c-1.506,0.648 -2.814,1.538 -3.923,2.667c-1.108,1.13 -1.987,2.448 -2.636,3.954c-0.648,1.507 -0.973,3.118 -0.973,4.833l0,37.094c0,0.251 -0.094,0.47 -0.282,0.659c-0.188,0.188 -0.408,0.282 -0.659,0.282Z" style="fill-rule:nonzero;"/><path d="M936.82,579.826c-0.251,0 -0.471,-0.094 -0.659,-0.282c-0.188,-0.189 -0.282,-0.408 -0.282,-0.659l0,-50.462c0,-0.251 0.094,-0.471 0.282,-0.659c0.188,-0.189 0.408,-0.283 0.659,-0.283c0.293,0 0.523,0.094 0.69,0.283c0.168,0.188 0.252,0.408 0.252,0.659l0,50.462c0,0.251 -0.084,0.47 -0.252,0.659c-0.167,0.188 -0.397,0.282 -0.69,0.282Z" style="fill-rule:nonzero;"/><path d="M964.185,579.826c-0.753,0 -1.663,-0.031 -2.73,-0.094c-1.067,-0.063 -2.165,-0.23 -3.295,-0.502c-1.13,-0.272 -2.27,-0.701 -3.421,-1.287c-1.151,-0.586 -2.207,-1.381 -3.169,-2.385c-2.888,-3.012 -4.143,-7.573 -3.766,-13.682c0.042,-0.251 0.157,-0.471 0.345,-0.659c0.188,-0.189 0.408,-0.262 0.659,-0.22c0.251,0 0.471,0.094 0.659,0.282c0.188,0.189 0.262,0.429 0.22,0.722c-0.335,5.523 0.732,9.603 3.201,12.239c0.878,0.921 1.862,1.632 2.95,2.134c1.087,0.502 2.165,0.868 3.232,1.099c1.067,0.23 2.092,0.366 3.075,0.408c0.984,0.041 1.81,0.062 2.479,0.062l0.314,0c2.134,0 3.965,-0.314 5.492,-0.941c1.527,-0.628 2.814,-1.433 3.86,-2.417c1.046,-0.983 1.841,-2.081 2.385,-3.295c0.544,-1.213 0.9,-2.427 1.067,-3.64c0.168,-1.297 0.105,-2.657 -0.188,-4.08c-0.293,-1.422 -0.837,-2.772 -1.632,-4.048c-0.795,-1.276 -1.872,-2.427 -3.232,-3.452c-1.36,-1.025 -3.003,-1.789 -4.927,-2.291l-9.227,-2.259c-3.054,-0.837 -5.272,-2.427 -6.653,-4.77c-0.669,-1.088 -1.129,-2.249 -1.38,-3.484c-0.251,-1.234 -0.293,-2.521 -0.126,-3.86c0.209,-1.548 0.67,-3.002 1.381,-4.362c0.711,-1.36 1.632,-2.563 2.761,-3.609c2.637,-2.385 5.879,-3.577 9.729,-3.577c1.883,0 3.661,0.314 5.335,0.941c1.674,0.628 3.18,1.506 4.519,2.636c1.339,1.214 2.374,2.636 3.107,4.268c0.732,1.632 1.098,3.389 1.098,5.272c0,0.251 -0.094,0.471 -0.282,0.659c-0.189,0.189 -0.408,0.283 -0.659,0.283c-0.252,0 -0.471,-0.094 -0.659,-0.283c-0.189,-0.188 -0.283,-0.408 -0.283,-0.659c0,-1.59 -0.314,-3.075 -0.941,-4.456c-0.628,-1.381 -1.486,-2.573 -2.574,-3.577c-1.088,-1.005 -2.374,-1.789 -3.86,-2.354c-1.485,-0.565 -3.086,-0.847 -4.801,-0.847c-1.841,0 -3.473,0.293 -4.896,0.878c-1.422,0.586 -2.636,1.35 -3.64,2.291c-1.004,0.942 -1.789,2.009 -2.354,3.201c-0.565,1.193 -0.931,2.375 -1.098,3.546c-0.126,0.921 -0.115,1.883 0.031,2.887c0.147,1.005 0.482,1.978 1.005,2.919c0.523,0.941 1.244,1.789 2.165,2.542c0.92,0.753 2.092,1.318 3.515,1.695l9.226,2.259c4.017,1.088 7.092,3.201 9.226,6.339c0.921,1.423 1.569,2.95 1.946,4.582c0.377,1.632 0.46,3.306 0.251,5.021c-0.46,3.347 -1.925,6.13 -4.393,8.348c-2.72,2.385 -6.151,3.577 -10.294,3.577l-0.314,0l-0.439,0Z" style="fill-rule:nonzero;"/></g></svg>